<?xml version="1.0" encoding="utf-8"?>
<svg width="151" height="47" viewBox="0 0 151 47" fill="none" xmlns="http://www.w3.org/2000/svg">
<path d="M97.2796 11.4159C90.6874 11.4476 85.3174 16.8658 85.3477 23.612C85.378 30.3583 90.8017 35.7256 97.3938 35.6953C103.986 35.665 109.357 30.2454 109.326 23.5019C109.294 16.7584 103.872 11.387 97.2768 11.4187L97.2796 11.4159ZM97.3704 30.7478C95.5015 30.7588 93.7055 30.0252 92.3774 28.711C91.0494 27.3967 90.3131 25.6062 90.2925 23.7373C90.2718 21.8684 91.015 20.0724 92.3293 18.7443C93.6436 17.4163 95.434 16.68 97.303 16.6594C99.1719 16.6387 100.968 17.3819 102.296 18.6962C103.624 20.0105 104.36 21.8009 104.381 23.6698C104.4 27.4201 101.119 30.7285 97.3704 30.7478ZM123.987 17.1342C120.539 17.1507 117.854 20.0105 117.871 23.4579L117.926 34.9975L112.68 35.0223L112.574 12.0903L117.82 12.0655L117.838 15.6616C117.838 15.6616 120.067 12.0559 124.565 12.0352L126.065 12.027L126.089 17.1218L123.987 17.1342ZM71.6543 12.2857L75.626 28.0049L79.7492 12.2472L84.9954 12.2238L78.5051 35.1998L73.4103 35.2232L69.2899 19.2067L65.3181 35.2604L60.222 35.2838L53.3711 12.3834L58.4659 12.36L63.035 28.0765L66.7095 12.3215L71.6543 12.2857ZM141.394 22.4505C144.979 20.3366 147.512 16.4268 147.491 11.9307L142.245 11.9554C142.264 15.8529 139.129 19.0155 135.383 19.0292L134.633 19.032L134.55 0.897461L129.304 0.922232L129.465 34.9425L134.709 34.9191L134.659 24.1295L135.258 24.1267C135.858 24.124 136.459 24.4213 136.612 24.8699L144.002 34.8751L150.147 34.8475L141.394 22.4505Z" fill="#001C3F"/>
<path d="M41.2275 11.68C35.5341 11.7076 31.2045 15.4743 29.5847 21.476C26.8666 17.2923 24.7458 12.5071 23.5293 8.46655L17.5358 8.49408L17.6101 24.3798C17.6167 25.8902 17.0233 27.3414 15.9603 28.4144C14.8974 29.4875 13.4518 30.0945 11.9415 30.1022C10.4311 30.1088 8.97988 29.5154 7.90685 28.4524C6.83382 27.3894 6.22677 25.9439 6.21912 24.4335L6.14343 8.54775L0.147217 8.57528L0.221533 24.461C0.253187 31.0531 5.52 36.2773 11.9662 36.2456C18.4125 36.214 23.6339 30.9444 23.6036 24.3509L23.5898 21.6535C24.7981 24.044 26.3092 26.5845 27.9703 28.8264L24.3055 46.3774L30.4489 46.3499L33.0913 33.5978C35.4955 35.0869 38.1833 35.9718 41.3431 35.9566C47.938 35.925 53.3094 30.5068 53.275 23.6119C53.2499 20.4352 51.9691 17.3974 49.7123 15.1617C47.4554 12.926 44.4057 11.6738 41.2289 11.6787L41.2275 11.68ZM41.3128 29.8145C38.9155 29.8256 36.5139 28.7879 34.5583 27.1474L35.146 24.7487V24.611C35.5864 22.0595 36.9103 17.7079 41.4078 17.6886C42.9936 17.686 44.5163 18.3098 45.6444 19.4243C46.7725 20.5388 47.4148 22.0537 47.4315 23.6394C47.2967 27.0869 44.463 29.798 41.3142 29.8132L41.3128 29.8145Z" fill="#6FDA44"/>
</svg>
