<svg xmlns="http://www.w3.org/2000/svg" width="60" height="60" viewBox="0 0 60 60" fill="none">
<g id="noun-ai-1235933 1">
<g id="Group">
<path id="Vector" d="M32.0938 37.6171V39.9964C32.0938 40.3926 32.4089 40.714 32.7987 40.714C33.1886 40.714 33.5037 40.3926 33.5037 39.9964V37.6171H35.1695C36.2249 37.6171 37.0842 36.7422 37.0842 35.6672V33.9745H39.4205C39.8103 33.9745 40.1255 33.6531 40.1255 33.2569C40.1255 32.8607 39.8103 32.5392 39.4205 32.5392H37.0842V30.9206H39.4205C39.8103 30.9206 40.1255 30.5991 40.1255 30.2029C40.1255 29.8068 39.8103 29.4853 39.4205 29.4853H37.0842V27.8674H39.4205C39.8103 27.8674 40.1255 27.5459 40.1255 27.1497C40.1255 26.7535 39.8103 26.4321 39.4205 26.4321H37.0842V24.8254C37.0842 23.7504 36.2249 22.8755 35.1695 22.8755H33.5037V20.4962C33.5037 20.1 33.1886 19.7786 32.7987 19.7786C32.4089 19.7786 32.0938 20.1 32.0938 20.4962V22.8762H30.504V20.4969C30.504 20.1007 30.1889 19.7793 29.7991 19.7793C29.4092 19.7793 29.0941 20.1007 29.0941 20.4969V22.8762H27.5051V20.4969C27.5051 20.1007 27.19 19.7793 26.8001 19.7793C26.4103 19.7793 26.0952 20.1007 26.0952 20.4969V22.8762H24.43C23.374 22.8762 22.5146 23.7511 22.5146 24.8261V26.8254H20.1784C19.7885 26.8254 19.4734 27.1469 19.4734 27.5431C19.4734 27.9393 19.7885 28.2608 20.1784 28.2608H22.5146V29.878H20.1784C19.7885 29.878 19.4734 30.1994 19.4734 30.5956C19.4734 30.9918 19.7885 31.3133 20.1784 31.3133H22.5146V32.9319H20.1784C19.7885 32.9319 19.4734 33.2533 19.4734 33.6495C19.4734 34.0457 19.7885 34.3672 20.1784 34.3672H22.5146V35.6665C22.5146 36.7415 23.374 37.6164 24.43 37.6164H26.0952V39.9957C26.0952 40.3919 26.4103 40.7133 26.8001 40.7133C27.19 40.7133 27.5051 40.3919 27.5051 39.9957V37.6171H29.0941V39.9964C29.0941 40.3926 29.4092 40.714 29.7991 40.714C30.1889 40.714 30.504 40.3926 30.504 39.9964V37.6171H32.0938ZM23.9246 35.6672V24.8254C23.9246 24.542 24.1509 24.3108 24.43 24.3108H35.1695C35.448 24.3108 35.6743 24.542 35.6743 24.8254V35.6672C35.6743 35.9506 35.448 36.1818 35.1695 36.1818H24.43C24.1509 36.1818 23.9246 35.9513 23.9246 35.6672Z" fill="#001C3F"/>
<path id="Vector_2" d="M34.533 34.4251V26.2228C34.533 25.8266 34.2178 25.5051 33.828 25.5051H25.7709C25.381 25.5051 25.0659 25.8266 25.0659 26.2228V34.4251C25.0659 34.8213 25.381 35.1428 25.7709 35.1428H33.828C34.2171 35.1428 34.533 34.8213 34.533 34.4251ZM33.123 33.7067H26.4759V26.9397H33.123V33.7067Z" fill="#001C3F"/>
<path id="Vector_3" d="M57.9541 40.6295L57.9477 31.7807C57.9477 31.3845 57.6319 31.0638 57.2428 31.0638H53.2696C53.3358 30.6859 53.3725 30.2968 53.3725 29.8992C53.3725 29.866 53.369 29.8329 53.3683 29.7998C53.3683 29.7927 53.3725 29.7864 53.3725 29.7786C53.3725 27.1639 51.8293 24.9249 49.6517 24.0049C49.3013 23.8484 48.9354 23.7222 48.5547 23.6376C49.5487 22.4822 50.1106 20.9778 50.1106 19.3627C50.1106 18.932 50.0683 18.5111 49.9908 18.1036H54.4518C54.8417 18.1036 55.1568 17.7822 55.1568 17.386V7.69616C56.3341 7.37962 57.2125 6.2975 57.2181 5.00106C57.2237 3.45365 55.9908 2.18893 54.461 2.18188C52.946 2.18188 51.7074 3.43673 51.701 4.97991C51.6961 6.27917 52.5681 7.36834 53.7468 7.69193V16.6676H49.5375C48.8043 15.0151 47.4247 13.7448 45.7377 13.2231L45.7292 7.80331C46.9072 7.48678 47.7856 6.40465 47.7913 5.10892C47.7969 3.5608 46.5639 2.29538 45.0334 2.28904C43.5177 2.28904 42.2805 3.54459 42.2749 5.08706C42.2713 5.83715 42.5554 6.54353 43.0743 7.07508C43.4233 7.4332 43.8533 7.67289 44.32 7.79908L44.3284 12.9757C44.2269 12.9707 44.1275 12.9595 44.0246 12.9595C43.6559 12.9595 43.2872 12.9996 42.9234 13.0715C42.7084 9.84279 40.1487 7.28234 37.0257 7.28234C37.0087 7.28234 36.9932 7.2915 36.977 7.29221C36.9093 7.29009 36.8438 7.28234 36.7761 7.28234C33.5332 7.28234 30.6894 10.4695 30.6894 14.1029V18.0606C30.6894 18.4568 31.0045 18.7783 31.3944 18.7783C31.7842 18.7783 32.0993 18.4568 32.0993 18.0606V14.1029C32.0993 11.2337 34.2847 8.71766 36.7761 8.71766C39.3549 8.71766 41.4536 10.9454 41.4536 13.6835C41.4536 13.7631 41.4472 13.8414 41.4423 13.9189L41.4367 13.9936C41.4303 14.0853 41.4472 14.1734 41.474 14.258C41.1335 16.5414 39.271 18.2954 37.0257 18.2954C36.6358 18.2954 36.3207 18.6168 36.3207 19.013C36.3207 19.4092 36.6358 19.7307 37.0257 19.7307C39.9421 19.7307 42.3665 17.4995 42.8515 14.5767C43.24 14.4681 43.6312 14.3941 44.0253 14.3941C46.6034 14.3941 48.7014 16.6225 48.7014 19.3606C48.7014 21.1279 47.842 22.724 46.4025 23.6292C46.3877 23.6383 46.3785 23.6531 46.3644 23.6637C43.6192 24.2037 41.5346 26.7367 41.5346 29.7765C41.5346 30.1727 41.8498 30.4942 42.2396 30.4942C42.6295 30.4942 42.9446 30.1727 42.9446 29.7765C42.9446 27.1364 44.9671 24.9883 47.4536 24.9883C48.0479 24.9883 48.614 25.1138 49.1328 25.3366C50.7951 26.0994 51.9626 27.8562 51.9626 29.8978C51.9626 32.6352 49.8646 34.8629 47.2858 34.8629C47.161 34.8629 47.0383 34.8537 46.9171 34.8431C46.5984 34.8086 46.2939 35.013 46.1889 35.326C46.0845 35.6376 46.2022 35.9823 46.4744 36.1614C47.8328 37.0518 48.6513 38.5745 48.6922 40.2531C48.6781 40.3095 48.6584 40.3637 48.6584 40.4251C48.6584 43.0666 46.6351 45.2146 44.1487 45.2146C41.663 45.2146 39.6404 43.0659 39.6404 40.4251C39.6404 40.0289 39.3253 39.7074 38.9354 39.7074C38.5456 39.7074 38.2305 40.0289 38.2305 40.4251C38.2305 42.7508 39.4508 44.7797 41.252 45.8477C41.2865 45.9647 41.3182 46.0648 41.3464 46.1501C41.4296 46.4074 41.4522 46.4765 41.4522 46.8072C41.4522 49.5453 39.3535 51.7737 36.7747 51.7737C34.1959 51.7737 32.0979 49.5453 32.0979 46.8072C32.0979 46.7698 32.0831 46.7381 32.0775 46.7028C32.0831 46.6676 32.0979 46.6358 32.0979 46.5985V42.8198C32.0979 42.4237 31.7828 42.1022 31.393 42.1022C31.0031 42.1022 30.688 42.4237 30.688 42.8198V46.5985C30.688 46.6358 30.7028 46.6676 30.7084 46.7028C30.7028 46.7381 30.688 46.7698 30.688 46.8072C30.688 49.8745 32.7507 52.442 35.4924 53.0638V55.4071C35.4924 55.8033 35.8075 56.1247 36.1966 56.1247L47.0687 56.1318C47.3859 57.3274 48.4525 58.2157 49.7243 58.2157H49.7334C51.2541 58.2086 52.4871 56.9439 52.4814 55.3958C52.4751 53.8533 51.2371 52.5992 49.7123 52.5992C48.4377 52.6048 47.376 53.498 47.0651 54.6972L36.9023 54.6901V53.2026C40.1994 53.13 42.8614 50.2925 42.8614 46.8079C42.8614 46.7599 42.8607 46.7141 42.86 46.6704C43.2407 46.7479 43.6298 46.7867 44.0232 46.7867C47.3788 46.7867 50.1092 43.9161 50.1092 40.3863C50.1092 38.7959 49.5593 37.3035 48.5858 36.1515C50.492 35.7131 52.0648 34.3313 52.8431 32.4984H56.5371L56.5427 40.6225C55.3662 40.939 54.4885 42.0204 54.4828 43.3161C54.4772 44.8643 55.7095 46.1297 57.2294 46.136H57.24C58.7549 46.136 59.9936 44.8805 59.9999 43.3366C60.0063 42.0416 59.1363 40.9545 57.9541 40.6295ZM53.111 4.98625C53.1145 4.23194 53.7193 3.61791 54.4645 3.61791C55.2082 3.62073 55.811 4.23969 55.8082 4.99612C55.8046 5.75044 55.2005 6.36376 54.4596 6.36376V6.63659L54.4567 6.63588L54.4546 6.36376C53.7116 6.36024 53.1081 5.74269 53.111 4.98625ZM43.6855 5.0927C43.6883 4.33839 44.2932 3.72436 45.0376 3.72436C45.7821 3.72718 46.3848 4.34614 46.382 5.10328C46.3785 5.85689 45.7736 6.47021 45.032 6.47021V6.47162C45.0306 6.47162 45.0285 6.47092 45.0271 6.47092V6.47021C44.6668 6.4688 44.3291 6.32499 44.0754 6.06486C43.8223 5.80472 43.6841 5.45929 43.6855 5.0927ZM49.7243 54.0338C50.4652 54.0338 51.0694 54.6478 51.0729 55.4007C51.0757 56.1579 50.4723 56.7768 49.7299 56.7797L49.7257 57.4973V56.7797C48.9841 56.7797 48.3792 56.1656 48.3757 55.412C48.3729 54.6556 48.9756 54.0373 49.7243 54.0338ZM57.2421 44.7014V45.4191L57.2371 44.7014C56.4941 44.6986 55.8921 44.0796 55.8949 43.3225C55.8984 42.5689 56.5019 41.9563 57.2477 41.9563C57.9915 41.9591 58.5942 42.5766 58.5921 43.3324C58.5886 44.0874 57.983 44.7014 57.2421 44.7014Z" fill="#001C3F"/>
<path id="Vector_4" d="M28.841 42.0832C28.4512 42.0832 28.1361 42.4046 28.1361 42.8008V46.5794C28.1361 46.6161 28.1509 46.6485 28.1565 46.6838C28.1509 46.719 28.1361 46.7515 28.1361 46.7881C28.1361 49.5262 26.0381 51.7546 23.4593 51.7546C20.8805 51.7546 18.7818 49.5262 18.7818 46.7881C18.7818 46.4582 18.8044 46.3891 18.8876 46.1311C18.9158 46.0458 18.9475 45.9457 18.982 45.8287C20.7832 44.7599 22.0035 42.7317 22.0035 40.406C22.0035 40.0098 21.6884 39.6884 21.2986 39.6884C20.9087 39.6884 20.5936 40.0098 20.5936 40.406C20.5936 43.0476 18.5717 45.1956 16.0853 45.1956C13.5989 45.1956 11.5756 43.0468 11.5756 40.406C11.5756 40.3454 11.5559 40.2904 11.5418 40.234C11.5834 38.5555 12.4018 37.0328 13.7596 36.1424C14.0324 35.964 14.1502 35.6193 14.0451 35.307C13.9408 34.994 13.6376 34.7938 13.3169 34.8241C13.1949 34.8347 13.0723 34.8438 12.9482 34.8438C10.3694 34.8438 8.27142 32.6161 8.27142 29.8787C8.27142 27.8371 9.43815 26.0803 11.1012 25.3176C11.62 25.0955 12.1868 24.9693 12.7804 24.9693C15.2668 24.9693 17.2894 27.1174 17.2894 29.7575C17.2894 30.1537 17.6045 30.4751 17.9944 30.4751C18.3842 30.4751 18.6993 30.1537 18.6993 29.7575C18.6993 26.7176 16.614 24.184 13.8696 23.644C13.8555 23.6341 13.8463 23.6193 13.8315 23.6101C12.392 22.7042 11.5326 21.1089 11.5326 19.3415C11.5326 16.6034 13.6306 14.375 16.2087 14.375C16.6027 14.375 16.994 14.4491 17.3824 14.5576C17.8675 17.4804 20.2919 19.7117 23.2083 19.7117C23.5982 19.7117 23.9133 19.3902 23.9133 18.994C23.9133 18.5978 23.5982 18.2763 23.2083 18.2763C20.9623 18.2763 19.1012 16.5231 18.76 14.239C18.7867 14.1544 18.8037 14.0663 18.7973 13.9746L18.7917 13.8999C18.7867 13.8223 18.7804 13.7441 18.7804 13.6644C18.7804 10.9263 20.8791 8.69862 23.4579 8.69862C25.9492 8.69862 28.1346 11.2147 28.1346 14.0839V18.0416C28.1346 18.4378 28.4498 18.7592 28.8396 18.7592C29.2295 18.7592 29.5446 18.4378 29.5446 18.0416V14.0839C29.5446 10.9397 27.4149 8.13464 24.7402 7.4339V4.8086C24.7402 4.41241 24.4251 4.09094 24.0359 4.09094L15.9831 4.08389C15.6658 2.88826 14.5985 2 13.3197 2C11.7991 2.00634 10.5661 3.27106 10.5717 4.81988C10.5781 6.36235 11.816 7.61649 13.3303 7.61649H13.3409C14.6154 7.61085 15.6771 6.71766 15.988 5.5185L23.331 5.52485V7.26894C23.307 7.26894 23.283 7.27176 23.2577 7.27247C23.2407 7.27176 23.2259 7.2626 23.209 7.2626C20.0853 7.2626 17.5256 9.82305 17.3112 13.0518C16.9468 12.9792 16.5788 12.9397 16.2101 12.9397C12.8544 12.9397 10.1241 15.8118 10.1241 19.3415C10.1241 19.4882 10.134 19.6341 10.1431 19.7786H4.49279V11.7927C5.67149 11.4692 6.54354 10.38 6.53861 9.08001C6.53226 7.53753 5.29363 6.28269 3.76949 6.28269C2.24887 6.28974 1.01588 7.55445 1.02152 9.10257C1.02716 10.3983 1.90555 11.4811 3.08285 11.797V20.497C3.08285 20.8932 3.39797 21.2146 3.78782 21.2146H10.3899C10.6472 22.1057 11.0835 22.9249 11.6792 23.6172C11.3 23.7018 10.9348 23.8273 10.5851 23.9831C8.40607 24.9023 6.86148 27.142 6.86148 29.7582C6.86148 29.7659 6.86571 29.7723 6.86571 29.7793C6.86501 29.8125 6.86148 29.8456 6.86148 29.8787C6.86148 30.1001 6.87558 30.3186 6.89673 30.535H5.43956C5.15687 29.2957 4.07121 28.3644 2.75997 28.3588C1.24499 28.3588 0.00635948 29.6137 1.47529e-05 31.1582C-0.00492003 32.7057 1.22878 33.9697 2.74869 33.9753H2.76068C4.00283 33.9753 5.04619 33.1258 5.3888 31.9711H7.19846C7.88651 34.0557 9.56786 35.6545 11.6475 36.1325C10.674 37.2844 10.1241 38.7768 10.1241 40.3673C10.1241 43.8963 12.8544 46.7677 16.2101 46.7677C16.6042 46.7677 16.9926 46.7289 17.3733 46.6514C17.3726 46.6951 17.3719 46.7402 17.3719 46.7888C17.3719 46.939 17.3839 47.0863 17.393 47.2337L12.8904 47.2308C12.8812 47.2308 12.8742 47.2259 12.865 47.2259C12.8558 47.2259 12.8488 47.2308 12.8396 47.2308L5.76032 47.2259C5.44308 46.0317 4.37647 45.1448 3.09765 45.1448C1.57774 45.1505 0.34404 46.4138 0.348975 47.9626C0.355319 49.5051 1.59395 50.7606 3.10893 50.7606H3.1195C4.39409 50.755 5.45436 49.8611 5.76526 48.6612L12.1607 48.6655V52.8001C10.944 53.0884 10.0289 54.1938 10.0233 55.5178C10.0176 57.0659 11.2506 58.3313 12.7727 58.3376H12.7811C14.2968 58.3376 15.534 57.0821 15.5397 55.5396C15.5432 54.7895 15.2591 54.0831 14.7402 53.5516C14.411 53.2139 14.0085 52.9848 13.5707 52.8516V48.6662L17.6412 48.669C18.4068 51.2837 20.7254 53.1899 23.4593 53.1899C26.8156 53.1899 29.546 50.3179 29.546 46.7881C29.546 46.7515 29.5312 46.719 29.5255 46.6838C29.5312 46.6485 29.546 46.6161 29.546 46.5794V42.8008C29.546 42.4046 29.2302 42.0832 28.841 42.0832ZM13.3352 6.18188L13.3303 6.89954V6.18188C12.5894 6.18188 11.9852 5.56856 11.9817 4.81494C11.9789 4.05781 12.5823 3.43884 13.3289 3.43602C14.0705 3.43602 14.6754 4.05005 14.6789 4.80366C14.6824 5.5608 14.079 6.17906 13.3352 6.18188ZM2.43216 9.09693C2.42934 8.33979 3.03279 7.72083 3.77936 7.71801C4.52098 7.71801 5.12585 8.33204 5.12937 9.08565C5.13219 9.84279 4.52874 10.461 3.7857 10.4639C3.78429 10.4639 3.78218 10.4653 3.78077 10.4653V10.4639C3.03984 10.4646 2.43498 9.85054 2.43216 9.09693ZM2.76068 32.5393V33.2569L2.75433 32.5393C2.01059 32.5365 1.40784 31.9189 1.40995 31.1632C1.41348 30.4082 2.01834 29.7941 2.7649 29.7941C3.50794 29.7969 4.10999 30.4159 4.10717 31.173C4.10435 31.9267 3.50019 32.5393 2.76068 32.5393ZM14.129 55.534C14.1262 56.2883 13.5213 56.9023 12.7804 56.9023V57.62L12.7769 56.9023C12.0324 56.8995 11.4297 56.2805 11.4325 55.5234C11.436 54.7698 12.0409 54.1565 12.7875 54.1565C13.1477 54.1579 13.4854 54.3017 13.7392 54.5618C13.9922 54.822 14.1304 55.1667 14.129 55.534ZM3.11316 49.3246L3.10823 50.0423V49.3246C2.3666 49.3246 1.76173 48.7099 1.75821 47.957C1.75609 47.2005 2.35955 46.5823 3.10893 46.5794C3.84844 46.5794 4.4519 47.1921 4.45542 47.945C4.45895 48.7021 3.8562 49.3211 3.11316 49.3246Z" fill="#001C3F"/>
</g>
</g>
</svg>