<svg xmlns="http://www.w3.org/2000/svg" width="1366" height="206" viewBox="0 0 1366 206" fill="none">
<g opacity="0.5">
<path d="M-74.5 204.04L50.0191 120.532C159.654 47.0069 301.924 43.5392 415.011 111.636V111.636C511.063 169.475 629.446 176.274 731.489 129.813L804.723 96.4687C938.82 35.4124 1093.2 37.5301 1225.57 102.242L1433.8 204.04" stroke="white" stroke-width="3" stroke-linecap="round" stroke-linejoin="round"/>
<path d="M-69.0093 150.54L93.3278 98.6004C186.228 68.877 285.793 66.975 379.761 93.1286L459.465 115.312C542.437 138.406 629.967 139.675 713.573 118.998L869.112 80.5308C941.474 62.6346 1017.58 67.3508 1087.18 94.0438V94.0438C1181.18 130.092 1285.89 125.67 1376.51 81.8242L1436 53.04" stroke="#1157AE" stroke-width="3" stroke-linecap="round" stroke-linejoin="round"/>
<path d="M-74.5 56.04L88.227 105.986C174.689 132.525 266.731 135.114 354.548 113.478L465.561 86.1274C545.726 66.3768 629.535 66.7852 709.505 87.3161L830.987 118.505C901.883 136.706 976.764 131.506 1044.46 103.679V103.679C1119.26 72.9336 1202.58 69.9021 1279.42 95.1304L1436 146.54" stroke="#009CFB" stroke-width="3" stroke-linecap="round" stroke-linejoin="round"/>
</g>
</svg>