<?xml version="1.0" encoding="utf-8"?>
<svg width="128" height="47" viewBox="0 0 128 47" fill="none" xmlns="http://www.w3.org/2000/svg">
<path d="M23.0357 39.8937C22.0736 40.0048 21.0745 40.0788 20.0754 40.0788C15.9308 40.0788 12.0083 38.9686 8.67793 37.0074C8.56691 36.9334 8.4559 36.8964 8.34488 36.8224C8.23387 36.7483 8.12286 36.6743 8.01184 36.6003C7.82682 36.4893 7.6788 36.3783 7.53078 36.2673C6.0876 35.3052 4.79244 34.195 3.60829 32.9369C2.42414 31.6787 1.38801 30.3095 0.499893 28.8293V39.5237C2.60916 41.633 5.01446 43.2612 7.6418 44.3713C15.8938 47.8868 25.8111 46.2586 32.5459 39.5237C34.8032 37.2664 36.5054 34.6391 37.6156 31.8267C34.0261 36.1563 28.8825 39.1537 23.0357 39.8937Z" fill="url(#paint0_linear_349_58)"/>
<path d="M32.102 21.7612C32.102 22.0943 32.102 22.3903 32.065 22.6863C31.88 18.9489 30.3628 15.2854 27.5134 12.436C22.0737 6.99636 13.6367 6.44129 7.53089 10.7338V36.2671C6.08771 35.3049 4.79254 34.1948 3.60839 32.9366C2.42424 31.6785 1.38811 30.3093 0.5 28.8291V7.44041C5.38462 2.5928 11.9344 0.409522 18.2992 0.890583C26.4403 4.36902 32.102 12.399 32.102 21.7612Z" fill="#009CFB"/>
<path d="M37.5785 31.8265C33.989 36.1561 28.8824 39.1165 23.0357 39.8936C22.0735 40.0046 21.0744 40.0786 20.0753 40.0786C15.9308 40.0786 12.0083 38.9684 8.67785 37.0072C14.6726 40.4486 22.4066 39.5975 27.5132 34.4909C28.5124 33.4917 29.3265 32.4186 30.0295 31.2715C31.5467 28.6441 32.2498 25.6468 32.1018 22.6864C32.1018 22.3903 32.1388 22.0573 32.1388 21.7613C32.1388 12.3991 26.4401 4.36906 18.3731 0.890625C23.5537 1.29768 28.6234 3.48095 32.5829 7.44045C39.1327 14.0273 40.8349 23.6855 37.5785 31.8265Z" fill="url(#paint1_linear_349_58)"/>
<path d="M37.5785 31.8265C33.989 36.1561 28.8824 39.1165 23.0357 39.8936C22.0735 40.0046 21.0744 40.0786 20.0753 40.0786C15.9308 40.0786 12.0083 38.9684 8.67785 37.0072C14.6726 40.4486 22.4066 39.5975 27.5132 34.4909C28.5124 33.4917 29.3265 32.4186 30.0295 31.2715C31.5467 28.6441 32.2498 25.6468 32.1018 22.6864C32.1018 22.3903 32.1388 22.0573 32.1388 21.7613C32.1388 12.3991 26.4401 4.36906 18.3731 0.890625C23.5537 1.29768 28.6234 3.48095 32.5829 7.44045C39.1327 14.0273 40.8349 23.6855 37.5785 31.8265Z" fill="#0081D0"/>
<path d="M38.2444 17.0245C36.3942 18.0236 33.4708 19.5408 31.8056 20.4289C31.2136 17.5055 29.8074 14.7302 27.5131 12.4359C25.7369 10.6597 30.3995 5.29399 32.5087 7.44026C34.729 9.66054 36.3942 12.2139 37.5044 14.9522C37.8004 15.6183 38.0224 16.3214 38.2444 17.0245Z" fill="#0081D0"/>
<path d="M21.4446 31.8267C22.5548 34.6021 24.22 37.2294 26.5143 39.5237C33.2491 46.2586 43.1664 47.8868 51.4184 44.3713C54.0088 43.2612 56.4511 41.67 58.5603 39.5237V28.8293C57.6722 30.3095 56.6361 31.7157 55.4519 32.9369C54.2678 34.195 52.9356 35.3052 51.5295 36.2673C51.3444 36.3783 51.1964 36.4893 51.0484 36.6003C50.9374 36.6743 50.8264 36.7483 50.7153 36.8224C50.6043 36.8964 50.4933 36.9704 50.3823 37.0074C47.0519 38.9686 43.1294 40.0788 38.9849 40.0788C37.9857 40.0788 36.9866 40.0048 36.0245 39.8937C30.1407 39.1537 24.9971 36.1563 21.4446 31.8267Z" fill="#009CFB"/>
<path d="M26.9212 21.7612C26.9212 22.0943 26.9212 22.3903 26.9582 22.6863C27.1433 18.9489 28.6604 15.2854 31.5098 12.436C36.9495 6.99636 45.3866 6.44129 51.4923 10.7338V36.2671C52.9355 35.3049 54.2307 34.1948 55.4148 32.9366C56.599 31.6785 57.6351 30.3093 58.5232 28.8291V7.44041C53.6386 2.5928 47.0888 0.409522 40.687 0.890583C32.5829 4.36902 26.9212 12.399 26.9212 21.7612Z" fill="#0081D0"/>
<path d="M21.4443 31.8265C25.0338 36.1561 30.1404 39.1165 35.9872 39.8936C36.9493 40.0046 37.9484 40.0786 38.9476 40.0786C43.0921 40.0786 47.0146 38.9684 50.345 37.0072C44.3502 40.4486 36.6163 39.5975 31.5096 34.4909C30.5105 33.4917 29.6964 32.4186 28.9933 31.2715C27.4761 28.6441 26.773 25.6468 26.921 22.6864C26.921 22.3903 26.884 22.0573 26.884 21.7613C26.884 12.3991 32.5828 4.36906 40.6498 0.890625C35.4691 1.29768 30.3995 3.48095 26.44 7.44045C19.8902 14.0273 18.2249 23.6855 21.4443 31.8265Z" fill="#009CFB"/>
<path d="M32.3981 35.3055L27.3284 40.3011C27.0324 40.0421 26.7733 39.7831 26.5143 39.524C23.813 36.8227 21.9627 33.6403 20.8896 30.2359C22.8509 29.3478 25.7742 28.0526 27.4024 27.3125C28.0685 29.9398 29.4377 32.4561 31.5099 34.4914C31.769 34.7874 32.065 35.0465 32.3981 35.3055Z" fill="#009CFB"/>
<path d="M23.0357 39.8937C22.0736 40.0048 21.0745 40.0788 20.0754 40.0788C15.9308 40.0788 12.0083 38.9686 8.67793 37.0074C8.56691 36.9334 8.4559 36.8964 8.34488 36.8224C8.23387 36.7483 8.12286 36.6743 8.01184 36.6003C7.82682 36.4893 7.6788 36.3783 7.53078 36.2673C6.0876 35.3052 4.79244 34.195 3.60829 32.9369C2.42414 31.6787 1.38801 30.3095 0.499893 28.8293V39.5237C2.60916 41.633 5.01446 43.2612 7.6418 44.3713C15.8938 47.8868 25.8111 46.2586 32.5459 39.5237C34.8032 37.2664 36.5054 34.6391 37.6156 31.8267C34.0261 36.1563 28.8825 39.1537 23.0357 39.8937Z" fill="#009CFB"/>
<path d="M37.5785 31.8261C33.989 36.1556 28.8824 39.116 23.0357 39.8931C22.0735 40.0041 21.0744 40.0781 20.0753 40.0781C15.9308 40.0781 12.0083 38.968 8.67785 37.0067C14.6726 40.4481 22.4066 39.597 27.5132 34.4904C28.5124 33.4913 29.3265 32.4181 30.0295 31.271C31.5467 28.6437 40.8349 23.685 37.5785 31.8261Z" fill="#0081D0"/>
<path d="M80.3929 7.5143C81.9471 7.5143 83.3162 7.66232 84.4264 7.99536C85.5365 8.3284 86.4616 8.80946 87.2017 9.47555C87.9048 10.1416 88.4599 10.9927 88.7929 12.0289C89.126 13.065 89.311 14.2862 89.311 15.6923V19.6518C89.311 21.058 89.126 22.2792 88.7929 23.3153C88.4599 24.3514 87.9418 25.2025 87.2017 25.8686C86.4986 26.5347 85.5735 27.0158 84.4264 27.3488C83.3162 27.6818 81.9471 27.8299 80.3929 27.8299H66.8121C66.2201 27.8299 65.924 27.5338 65.924 26.9418V8.36541C65.924 7.77333 66.2201 7.47729 66.8121 7.47729H80.3929V7.5143ZM70.4016 23.4263C70.4016 23.6853 70.5126 23.7964 70.7716 23.7964H80.2818C81.1329 23.7964 81.836 23.7223 82.4281 23.5743C83.0202 23.4263 83.4642 23.1673 83.8343 22.8342C84.2043 22.5012 84.4634 22.0201 84.6114 21.4281C84.7594 20.836 84.8334 20.1329 84.8334 19.2818V16.0994C84.8334 15.2483 84.7594 14.5452 84.6114 13.9531C84.4634 13.361 84.2043 12.917 83.8343 12.5469C83.4642 12.2139 83.0202 11.9549 82.4281 11.8068C81.836 11.6588 81.1329 11.5848 80.2818 11.5848H70.7716C70.5126 11.5848 70.4016 11.7328 70.4016 11.9919V23.4263Z" fill="#009CFB"/>
<path d="M102.152 7.51416C102.596 7.51416 102.929 7.55117 103.262 7.58817C103.558 7.66218 103.854 7.77319 104.076 7.92121C104.298 8.06923 104.52 8.29126 104.705 8.5873C104.89 8.88333 105.075 9.25338 105.26 9.69744L111.292 23.6482C111.366 23.8332 111.514 23.9072 111.699 23.9072H112.032C112.217 23.9072 112.365 23.8332 112.439 23.6482L118.471 9.69744C118.656 9.21638 118.841 8.84633 119.026 8.5873C119.211 8.29126 119.433 8.06923 119.655 7.92121C119.877 7.77319 120.136 7.66218 120.469 7.58817C120.765 7.51416 121.135 7.51416 121.542 7.51416H124.65C125.65 7.51416 126.316 7.73619 126.686 8.18024C127.019 8.6243 127.204 9.4014 127.204 10.5115V27.1636C127.204 27.6077 126.982 27.7927 126.538 27.7927H123.577C123.133 27.7927 122.948 27.5707 122.948 27.1636V12.0287C122.948 11.8437 122.874 11.7327 122.726 11.7327H122.467C122.282 11.7327 122.134 11.8067 122.097 11.9547L116.213 24.9804C115.991 25.4984 115.732 25.9425 115.51 26.3125C115.251 26.6826 114.992 26.9786 114.733 27.2006C114.437 27.4227 114.141 27.6077 113.771 27.6817C113.401 27.7927 112.994 27.8297 112.513 27.8297H111.107C110.626 27.8297 110.219 27.7927 109.849 27.6817C109.478 27.5707 109.182 27.4227 108.886 27.2006C108.59 26.9786 108.331 26.6826 108.109 26.3125C107.85 25.9425 107.628 25.4984 107.406 24.9804L101.559 11.9917C101.485 11.8437 101.374 11.7697 101.189 11.7697H100.93C100.782 11.7697 100.708 11.8807 100.708 12.0657V27.2006C100.708 27.6447 100.486 27.8297 100.079 27.8297H97.1189C96.6749 27.8297 96.4529 27.6077 96.4529 27.2006V10.5485C96.4529 9.4384 96.6379 8.66131 96.9709 8.21725C97.304 7.77319 98.0071 7.55116 99.0432 7.55116H102.152V7.51416Z" fill="#009CFB"/>
<path d="M72.8438 34.38C72.8438 34.602 72.5848 35.4532 72.1038 36.8593C71.5857 38.3025 71.3637 39.0796 71.3637 39.2646H70.3645C70.3645 39.0796 70.2165 38.5245 69.9205 37.5994C69.5874 36.6003 69.4024 35.9712 69.3654 35.6382H69.2914C69.2544 35.9712 69.0694 36.6003 68.7733 37.5994C68.5143 38.5245 68.3663 39.0796 68.3663 39.2646H67.3302C67.3302 39.0426 67.0711 38.1915 66.5901 36.7483C66.109 35.3051 65.85 34.491 65.85 34.343H67.0341C67.0341 34.491 67.1821 35.1201 67.4782 36.2303C67.7742 37.3404 67.9222 38.0065 67.9222 38.1915H67.9962C67.9962 37.9695 68.1443 37.3404 68.4403 36.2673C68.7363 35.1941 68.8843 34.528 68.8843 34.343H69.9575C69.9575 34.528 70.1055 35.1941 70.4015 36.3043C70.6976 37.4144 70.8456 38.0435 70.8456 38.1915H70.9196C70.9196 38.0065 71.0676 37.3774 71.3267 36.3413C71.6227 35.3051 71.7337 34.6391 71.7337 34.343H72.8438V34.38Z" fill="#009CFB"/>
<path d="M81.466 38.4875L81.429 39.3016H78.2096C78.2466 38.5245 78.2466 37.6734 78.2466 36.7483C78.2466 35.8232 78.2466 35.0461 78.2096 34.417H81.281L81.244 35.2311C80.5039 35.1941 79.8008 35.1571 79.2087 35.1571C79.2457 35.4901 79.2457 35.9342 79.2457 36.3782C79.7638 36.3782 80.3189 36.3782 80.948 36.3412V37.1183C80.3559 37.0813 79.8008 37.0813 79.2457 37.0813C79.2457 37.5994 79.2457 38.0805 79.2827 38.5245C79.9488 38.5245 80.6889 38.5245 81.466 38.4875Z" fill="#009CFB"/>
<path d="M90.8652 37.8214C90.8652 38.8205 90.0511 39.3386 88.4229 39.3386C88.1268 39.3386 87.6828 39.3386 87.0907 39.3016C87.1277 38.5245 87.1277 37.6734 87.1277 36.7483C87.1277 35.8232 87.1277 35.0461 87.0907 34.417H87.7198C87.8308 34.417 88.0158 34.417 88.3119 34.417C88.5709 34.417 88.7929 34.417 88.9409 34.417C90.0511 34.417 90.6061 34.787 90.6061 35.4901C90.6061 36.0452 90.3101 36.4152 89.755 36.6003V36.6743C90.0511 36.7113 90.3101 36.8593 90.5691 37.0443C90.7542 37.1553 90.8652 37.4514 90.8652 37.8214ZM89.57 35.7492C89.57 35.3051 89.274 35.0831 88.7189 35.0831C88.4599 35.0831 88.2378 35.1201 88.0158 35.1571C88.0528 35.4161 88.0528 35.8602 88.0528 36.4522C88.1638 36.4522 88.2378 36.4522 88.3489 36.4522C89.163 36.4522 89.57 36.2302 89.57 35.7492ZM89.829 37.8584C89.829 37.3404 89.385 37.1183 88.4969 37.1183C88.3119 37.1183 88.1638 37.1183 88.0528 37.1553C88.0528 37.6734 88.0528 38.1545 88.0898 38.5985C88.1638 38.6355 88.3119 38.6355 88.4599 38.6355C88.9409 38.6355 89.274 38.5615 89.496 38.4505C89.755 38.3395 89.829 38.1545 89.829 37.8584Z" fill="#009CFB"/>
<path d="M99.6724 37.9695C99.6724 38.9686 98.9693 39.4497 97.5631 39.4497C97.0821 39.4497 96.638 39.3757 96.2309 39.2646L96.416 38.4135C96.823 38.5616 97.1931 38.6356 97.5631 38.6356C97.9702 38.6356 98.2662 38.5986 98.4142 38.5245C98.5992 38.4505 98.6733 38.3025 98.6733 38.1175C98.6733 37.9325 98.5992 37.7474 98.4142 37.6364C98.2662 37.5254 97.9702 37.3774 97.5261 37.1924C97.1191 37.0074 96.823 36.8223 96.638 36.6373C96.379 36.3783 96.268 36.0822 96.268 35.7122C96.268 35.2681 96.416 34.9351 96.749 34.7131C97.0821 34.454 97.5261 34.343 98.1182 34.343C98.5993 34.343 99.0063 34.38 99.3763 34.454L99.2283 35.3051C98.8953 35.1941 98.5252 35.1201 98.1182 35.1201C97.5261 35.1201 97.2301 35.2681 97.2301 35.6012C97.2301 35.7862 97.3041 35.8972 97.4521 36.0082C97.5631 36.0822 97.8221 36.2303 98.2292 36.3783C98.6733 36.5633 98.9693 36.7483 99.1913 36.9333C99.5614 37.2294 99.6724 37.5624 99.6724 37.9695Z" fill="#009CFB"/>
<path d="M109.848 36.7484C109.848 37.5255 109.626 38.1545 109.145 38.6726C108.664 39.1907 108.072 39.4497 107.406 39.4497C106.74 39.4497 106.185 39.2277 105.741 38.7466C105.297 38.2655 105.075 37.6735 105.075 36.9704C105.075 36.1933 105.297 35.5642 105.778 35.0461C106.259 34.5281 106.851 34.269 107.517 34.269C108.183 34.269 108.738 34.4911 109.182 34.9721C109.626 35.4532 109.848 36.0453 109.848 36.7484ZM108.812 36.8594C108.812 36.3413 108.664 35.8972 108.405 35.5642C108.146 35.2312 107.813 35.0831 107.406 35.0831C107.036 35.0831 106.74 35.2312 106.481 35.5642C106.222 35.8972 106.111 36.3043 106.111 36.8224C106.111 37.3404 106.259 37.7845 106.518 38.0805C106.777 38.4136 107.11 38.5616 107.517 38.5616C107.887 38.5616 108.183 38.4136 108.442 38.0805C108.701 37.7845 108.812 37.3774 108.812 36.8594Z" fill="#009CFB"/>
<path d="M118.619 34.3801L118.582 35.1942C117.805 35.1572 117.101 35.1202 116.435 35.1202C116.472 35.5643 116.472 36.0083 116.472 36.5634C116.953 36.5634 117.508 36.5634 118.138 36.5264V37.3035C117.508 37.2665 116.953 37.2665 116.472 37.2665C116.472 37.9696 116.472 38.6357 116.509 39.2647H115.473C115.51 38.4876 115.51 37.6365 115.51 36.7114C115.51 35.7863 115.51 35.0092 115.473 34.3801H118.619Z" fill="#009CFB"/>
<path d="M127.5 34.3801L127.463 35.1942C126.945 35.1572 126.501 35.1202 126.057 35.1202C126.057 35.6013 126.057 36.1193 126.057 36.7114C126.057 37.5995 126.057 38.4876 126.094 39.2647H125.02C125.057 38.4506 125.057 37.5995 125.057 36.7114C125.057 36.1563 125.057 35.6013 125.057 35.1202C124.687 35.1202 124.206 35.1572 123.614 35.1942L123.651 34.3801H127.5Z" fill="#009CFB"/>
<defs>
<linearGradient id="paint0_linear_349_58" x1="7.55465" y1="45.302" x2="26.0585" y2="22.5406" gradientUnits="userSpaceOnUse">
<stop stop-color="#67CBE3"/>
<stop offset="1" stop-color="#5F73B7"/>
</linearGradient>
<linearGradient id="paint1_linear_349_58" x1="29.904" y1="37.4881" x2="11.995" y2="6.5889" gradientUnits="userSpaceOnUse">
<stop stop-color="#67CBE3"/>
<stop offset="1" stop-color="#5F73B7"/>
</linearGradient>
</defs>
</svg>
