<svg xmlns="http://www.w3.org/2000/svg" width="60" height="60" viewBox="0 0 60 60" fill="none">
<path d="M18.5859 2.00391C17.8594 2.17969 16.7929 2.80078 16.2773 3.36328C16.0195 3.64453 15.6328 4.23047 15.4336 4.66406L15.0586 5.44922L15.0234 15.8672L14.9883 26.2734L14.4375 26.1914C13.7461 26.0977 12.6211 25.5 12.2344 25.043C12.0703 24.8555 11.8008 24.4219 11.625 24.0938C11.3672 23.5898 11.3203 23.3438 11.3203 22.5C11.3203 21.6328 11.3672 21.4219 11.6484 20.8594C11.8359 20.5078 12.3047 19.9102 12.6914 19.5469C13.3359 18.9258 13.3828 18.8438 13.3125 18.4922C13.2187 18 12.8554 17.6953 12.3515 17.6953C12.0351 17.6953 11.8242 17.8242 11.2148 18.3984C10.3828 19.1719 9.83201 20.0859 9.55076 21.1523C8.74216 24.293 10.9219 27.5391 14.1914 28.0547L15 28.1719V30.9609V33.75H14.6015C14.1445 33.75 14.1797 33.8086 13.875 32.3789C13.6523 31.2656 13.4765 31.0664 12.539 30.7617C12.1875 30.6445 11.4726 30.3516 10.957 30.1055C10.3594 29.8125 9.93748 29.6719 9.78513 29.7188C9.65623 29.7656 9.15232 30.0586 8.66013 30.3633C8.16795 30.6797 7.72263 30.9375 7.66404 30.9375C7.61716 30.9375 7.3242 30.6914 7.01951 30.3984L6.46873 29.8594L7.05466 28.957C7.93357 27.6211 7.93357 27.6562 7.40623 26.5547C7.14841 26.0273 6.83201 25.2539 6.69138 24.8086C6.53904 24.375 6.33982 23.9766 6.23435 23.918C6.11716 23.8594 5.51951 23.6953 4.89841 23.5547L3.74998 23.2969V22.5V21.7031L4.8867 21.4453C5.50779 21.3047 6.11716 21.1289 6.23435 21.0469C6.35154 20.9766 6.56248 20.5781 6.69138 20.1562C6.83201 19.7344 7.14841 18.9727 7.40623 18.4453C7.93357 17.3438 7.93357 17.3789 7.05466 16.043L6.46873 15.1406L7.01951 14.6016C7.3242 14.3086 7.61716 14.0625 7.66404 14.0625C7.72263 14.0625 8.16795 14.3203 8.66013 14.6367C9.15232 14.9414 9.65623 15.2344 9.78513 15.2812C9.93748 15.3281 10.3594 15.1875 10.957 14.8945C11.4726 14.6484 12.2461 14.332 12.6679 14.1914C13.1836 14.0273 13.4883 13.8516 13.582 13.6758C13.8398 13.1836 14.4023 10.2891 14.2969 10.0078C14.1679 9.67969 13.7344 9.375 13.3945 9.375C12.832 9.375 12.5508 9.82031 12.2812 11.1445L12.0351 12.3867L11.0039 12.8203L9.97263 13.2539L8.87107 12.5391C8.17966 12.1055 7.6406 11.8359 7.42966 11.8359C7.16013 11.8359 6.84373 12.0938 5.71873 13.2188C4.59373 14.3438 4.33591 14.6602 4.33591 14.9414C4.33591 15.1523 4.59373 15.6914 5.05076 16.3945L5.75388 17.4961L5.41404 18.2695C5.21482 18.6914 5.02732 19.1484 4.99216 19.2891C4.93357 19.4883 4.73435 19.5703 3.9492 19.7344C3.42185 19.8398 2.81248 19.9922 2.61326 20.0508C1.93357 20.2617 1.87498 20.4727 1.87498 22.5C1.87498 24.9023 1.81638 24.8203 3.93748 25.2656L4.87498 25.4648L5.32029 26.4961L5.75388 27.5273L5.03904 28.6289C4.60545 29.3203 4.33591 29.8594 4.33591 30.0703C4.33591 30.3398 4.59373 30.6562 5.71873 31.7812C6.84373 32.9062 7.16013 33.1641 7.42966 33.1641C7.6406 33.1641 8.17966 32.8945 8.87107 32.4609L9.97263 31.7461L11.0039 32.1797L12.0351 32.6133L12.2812 33.8555C12.6211 35.4844 12.7617 35.625 14.0625 35.625H14.9883L15.0234 45.0938L15.0586 54.5625L15.4922 55.4531C16.0195 56.5195 16.6992 57.1758 17.789 57.6914L18.5742 58.0664H30H41.4258L42.2109 57.6914C43.3008 57.1758 43.9804 56.5195 44.5078 55.4531L44.9414 54.5625L44.9765 44.1445L45.0117 33.7266L45.5508 33.8086C46.1718 33.9023 47.0156 34.2891 47.5429 34.7344C47.7304 34.8984 48.0703 35.3555 48.2929 35.7656C48.6445 36.4219 48.6797 36.5977 48.6914 37.4414C48.6914 38.2734 48.6445 38.4727 48.3047 39.1641C48.0468 39.6914 47.7422 40.1016 47.3437 40.4297C47.0156 40.6992 46.7226 41.0391 46.6875 41.1914C46.6054 41.5078 46.8984 42.1289 47.1679 42.2344C47.707 42.4336 48.0351 42.3047 48.7851 41.6016C49.6172 40.8281 50.1679 39.9141 50.4492 38.8477C51.2578 35.707 49.0781 32.4609 45.8086 31.9453L45 31.8281V29.0391V26.25H45.3984C45.8554 26.25 45.8203 26.1914 46.125 27.6211C46.3476 28.7344 46.5234 28.9336 47.4609 29.2383C47.8125 29.3555 48.5273 29.6484 49.0429 29.8945C49.6406 30.1875 50.0625 30.3281 50.2148 30.2812C50.3437 30.2344 50.8476 29.9414 51.3398 29.6367C51.832 29.3203 52.2773 29.0625 52.3359 29.0625C52.4648 29.0625 53.4375 30.0234 53.4375 30.1641C53.4375 30.2227 53.1797 30.668 52.8633 31.1602C52.5586 31.6523 52.2656 32.1562 52.2187 32.2852C52.1718 32.4375 52.3125 32.8594 52.6054 33.457C52.8515 33.9727 53.1679 34.7461 53.3086 35.1914C53.4609 35.625 53.6601 36.0234 53.7656 36.082C53.8828 36.1406 54.4804 36.293 55.1133 36.4453L56.25 36.7031V37.5V38.2969L55.1133 38.5547C54.4804 38.707 53.8828 38.8594 53.7656 38.918C53.6601 38.9766 53.4609 39.375 53.3086 39.8086C53.1679 40.2539 52.8515 41.0273 52.5937 41.5547C52.0664 42.6562 52.0664 42.6211 52.9453 43.957L53.5312 44.8594L52.9804 45.3984C52.6758 45.6914 52.3828 45.9375 52.3359 45.9375C52.2773 45.9375 51.832 45.6797 51.3398 45.3633C50.8476 45.0586 50.3437 44.7656 50.2148 44.7188C50.0625 44.6719 49.6406 44.8125 49.0429 45.1055C48.5273 45.3516 47.7539 45.668 47.332 45.8086C46.8164 45.9727 46.5117 46.1484 46.4179 46.3242C46.1601 46.8164 45.5976 49.7109 45.7031 49.9922C45.832 50.3203 46.2656 50.625 46.6054 50.625C47.1679 50.625 47.4492 50.1797 47.7187 48.8438C47.9297 47.7891 48.0234 47.5664 48.2226 47.5078C48.3515 47.4727 48.8086 47.2852 49.2422 47.0859L50.0156 46.7344L51.1289 47.4492C51.8203 47.9062 52.3476 48.1641 52.5586 48.1641C52.8398 48.1641 53.1562 47.9062 54.2812 46.7812C55.4062 45.6562 55.664 45.3398 55.664 45.0586C55.664 44.8477 55.4062 44.3203 54.9609 43.6172L54.2461 42.5156L54.6914 41.4727C54.9726 40.8164 55.1953 40.4297 55.3125 40.4297C55.4062 40.4297 55.9922 40.3008 56.5898 40.1484C58.1484 39.7617 58.125 39.7969 58.125 37.5C58.125 35.2031 58.1484 35.2383 56.5898 34.8516C55.9922 34.6992 55.4062 34.5703 55.3125 34.5703C55.1953 34.5703 54.9726 34.1836 54.6914 33.5273L54.2461 32.4727L54.9609 31.3711C55.3945 30.6797 55.664 30.1406 55.664 29.9297C55.664 29.6602 55.4062 29.3438 54.2812 28.2188C53.1562 27.0938 52.8398 26.8359 52.5703 26.8359C52.3593 26.8359 51.8203 27.1055 51.1172 27.5508L50.0039 28.2656L49.2304 27.9141C48.8086 27.7148 48.3515 27.5273 48.2226 27.4922C48.0234 27.4336 47.9297 27.2109 47.7187 26.1562C47.3789 24.5156 47.2383 24.375 45.9375 24.375H45.0117L44.9765 14.9062L44.9414 5.4375L44.5078 4.54688C43.9804 3.48047 43.3008 2.82422 42.2109 2.30859L41.4258 1.93359L30.2344 1.91016C23.7187 1.89844 18.8554 1.94531 18.5859 2.00391ZM41.1797 3.89062C41.8242 4.07812 42.7968 5.05078 42.9843 5.69531C43.1953 6.39844 43.1953 53.6016 42.9843 54.3047C42.7968 54.9492 41.8242 55.9219 41.1797 56.1094C40.4883 56.3086 19.5117 56.3086 18.8203 56.1094C18.1758 55.9219 17.2031 54.9492 17.0156 54.3047C16.8047 53.6016 16.8047 6.39844 17.0156 5.69531C17.1914 5.09766 18.1758 4.08984 18.75 3.90234C19.3711 3.71484 40.5234 3.70312 41.1797 3.89062Z" fill="#001C3F"/>
<path d="M26.543 5.91797C26.3555 6.09375 26.25 6.33984 26.25 6.5625C26.25 6.78516 26.3555 7.03125 26.543 7.20703L26.8242 7.5H30H33.1758L33.457 7.20703C33.6445 7.03125 33.75 6.78516 33.75 6.5625C33.75 6.33984 33.6445 6.09375 33.457 5.91797L33.1758 5.625H30H26.8242L26.543 5.91797Z" fill="#001C3F"/>
<path d="M22.7695 27.457C20.8242 29.4023 20.625 29.6367 20.625 30C20.625 30.3633 20.8242 30.5977 22.7695 32.543C24.668 34.4531 24.9492 34.6875 25.2891 34.6875C25.8047 34.6875 26.25 34.2422 26.25 33.7383C26.25 33.4102 26.0391 33.1406 24.5859 31.6758L22.9219 30L24.5859 28.3242C26.0391 26.8594 26.25 26.5898 26.25 26.2617C26.25 25.7578 25.8047 25.3125 25.2891 25.3125C24.9492 25.3125 24.668 25.5469 22.7695 27.457Z" fill="#001C3F"/>
<path d="M30.3633 25.5234C30.1523 25.6875 29.9062 26.4844 29.1211 29.6484C28.5703 31.8047 28.125 33.6914 28.125 33.8438C28.125 34.2188 28.6289 34.6875 29.0391 34.6875C29.7773 34.6875 29.8242 34.5703 30.8789 30.3516C31.4297 28.1953 31.875 26.3086 31.875 26.1562C31.875 25.4883 30.9023 25.0781 30.3633 25.5234Z" fill="#001C3F"/>
<path d="M34.043 25.6055C33.8555 25.7812 33.75 26.0156 33.75 26.2617C33.75 26.5898 33.9609 26.8594 35.4141 28.3242L37.0781 30L35.4141 31.6758C33.9609 33.1406 33.75 33.4102 33.75 33.7383C33.75 34.2422 34.1953 34.6875 34.7109 34.6875C35.0508 34.6875 35.332 34.4531 37.2305 32.543C39.1758 30.5977 39.375 30.3633 39.375 30C39.375 29.6367 39.1758 29.4023 37.2305 27.457C35.332 25.5469 35.0508 25.3125 34.7109 25.3125C34.4531 25.3125 34.2305 25.418 34.043 25.6055Z" fill="#001C3F"/>
<path d="M49.043 9.66743C48.4688 10.2299 48.7618 11.1674 49.5352 11.3198C49.8516 11.3784 49.9688 11.3315 50.2735 11.0385C50.5079 10.7924 50.6251 10.5698 50.6251 10.312C50.6251 9.8315 50.168 9.37447 49.6876 9.37447C49.4649 9.37447 49.2188 9.47993 49.043 9.66743Z" fill="#001C3F"/>
<path d="M49.043 13.4174C48.4688 13.9799 48.7618 14.9174 49.5352 15.0698C49.8516 15.1284 49.9688 15.0815 50.2735 14.7885C50.5079 14.5424 50.6251 14.3198 50.6251 14.062C50.6251 13.5815 50.168 13.1245 49.6876 13.1245C49.4649 13.1245 49.2188 13.2299 49.043 13.4174Z" fill="#001C3F"/>
<path d="M49.043 17.1674C48.4688 17.7299 48.7618 18.6674 49.5352 18.8198C49.8516 18.8784 49.9688 18.8315 50.2735 18.5385C50.5079 18.2924 50.6251 18.0698 50.6251 17.812C50.6251 17.3315 50.168 16.8745 49.6876 16.8745C49.4649 16.8745 49.2188 16.9799 49.043 17.1674Z" fill="#001C3F"/>
<path d="M10.008 41.1324C9.37518 41.3785 9.16424 42.3043 9.64471 42.7496C10.1017 43.1832 10.7931 43.0777 11.0744 42.5269C11.3205 42.0699 11.2971 41.7769 10.9924 41.4371C10.676 41.0972 10.3478 40.9918 10.008 41.1324Z" fill="#001C3F"/>
<path d="M10.008 44.8824C9.37518 45.1285 9.16424 46.0543 9.64471 46.4996C10.1017 46.9332 10.7931 46.8277 11.0744 46.2769C11.3205 45.8199 11.2971 45.5269 10.9924 45.1871C10.676 44.8472 10.3478 44.7418 10.008 44.8824Z" fill="#001C3F"/>
<path d="M10.008 48.6324C9.37518 48.8785 9.16424 49.8043 9.64471 50.2496C10.1017 50.6832 10.7931 50.5777 11.0744 50.0269C11.3205 49.5699 11.2971 49.2769 10.9924 48.9371C10.676 48.5972 10.3478 48.4918 10.008 48.6324Z" fill="#001C3F"/>
</svg>