<svg xmlns="http://www.w3.org/2000/svg" width="60" height="60" viewBox="0 0 60 60" fill="none">
<g id="noun-outsourcing-2694345 1" clip-path="url(#clip0_1470_3310)">
<g id="Group">
<path id="Vector" d="M29.5185 42.4454C26.2833 44.2931 28.6613 49.5558 32.5495 47.7588C36.0619 46.1354 32.764 40.5942 29.5185 42.4454Z" fill="#001C3F"/>
<path id="Vector_2" d="M11.2839 42.4454C8.0487 44.2931 10.4267 49.5558 14.3149 47.7588C17.8273 46.1354 14.5294 40.5942 11.2839 42.4454Z" fill="#001C3F"/>
<path id="Vector_3" d="M36.669 50.9986C35.3682 50.1044 34.6937 49.9419 34.5379 49.864C34.0214 52.5761 29.1892 53.6724 27.7403 50.1008C25.1452 51.1096 23.2307 53.0885 22.2942 55.8133C22.7409 57.5972 27.143 60.6436 32.318 59.8781C35.2088 59.444 37.6852 57.9246 39.0862 55.9415V55.9316C39.3624 55.5666 39.5894 55.1719 39.767 54.7773C39.7274 54.6786 39.6781 54.5899 39.6288 54.4912C38.8891 52.9269 37.8611 51.952 36.669 50.9986Z" fill="#001C3F"/>
<path id="Vector_4" d="M48.4714 42.4454C45.2362 44.2931 47.6142 49.5558 51.5024 47.7588C55.0148 46.1354 51.7169 40.5942 48.4714 42.4454Z" fill="#001C3F"/>
<path id="Vector_5" d="M55.7598 51.1071C55.1946 50.5428 53.5895 49.9135 53.4905 49.864C52.9741 52.5761 48.1418 53.6724 46.6929 50.1008C43.8318 51.213 42.0759 53.4012 41.2468 55.8133C41.6935 57.5972 46.0957 60.6436 51.2707 59.8781C54.1615 59.444 56.6378 57.9246 58.0388 55.9415V55.9316C58.315 55.5666 58.542 55.1719 58.7196 54.7773C58.2662 53.6446 57.238 52.2363 55.7598 51.1071Z" fill="#001C3F"/>
<path id="Vector_6" d="M18.4269 50.9986C17.1348 50.0962 16.4747 49.9485 16.3057 49.864C15.7892 52.5761 10.9571 53.6724 9.50802 50.1008C6.9636 51.0901 5.0171 53.0344 4.06201 55.8133C4.49849 57.5598 8.86349 60.6514 14.076 59.8781C16.9766 59.444 19.453 57.9147 20.854 55.9316C20.8343 55.8922 20.8244 55.8527 20.8145 55.8133C20.9893 55.3047 21.3023 54.6742 21.3868 54.4912C20.6574 52.9232 19.6362 51.9657 18.4269 50.9986Z" fill="#001C3F"/>
<path id="Vector_7" d="M29.4606 20.2624C36.4809 27.2857 40.9413 7.56905 38.2413 3.17439C37.166 1.44783 35.3605 0.3034 33.259 0.0567495C31.5917 -0.150459 29.8947 0.214579 28.4148 1.07292C25.7707 2.62189 24.5276 6.10463 24.8236 11.1462C24.8236 14.9891 26.7557 17.6513 29.4606 20.2624ZM27.961 6.31178C31.4036 7.60375 34.4059 7.24003 36.2287 6.25259C36.7783 7.45183 37.1252 9.39619 36.7516 11.7776C36.0734 16.0829 34.5919 17.7437 34.5416 17.8945C34.4428 17.9935 33.457 19.611 32.2625 19.7197C32.2418 19.7197 32.2379 19.7197 32.2231 19.7197C31.6572 19.7197 31.0937 19.2152 29.9342 17.934C29.8509 17.7674 30.1614 18.2595 28.9377 16.8092C28.8686 16.5922 28.7207 16.4146 28.5332 16.2962C27.379 14.7579 26.8663 12.8469 26.8067 11.1757C27.2538 9.76748 27.4473 7.72424 27.961 6.31178Z" fill="#001C3F"/>
<path id="Vector_8" d="M24.3498 32.5358C26.5822 33.7165 29.8125 34.6472 32.2722 34.6472C35.071 34.6472 36.7641 33.537 39.0995 32.1017C40.855 31.0017 44.2182 30.5777 45.5815 28.9347C47.5925 26.46 44.0742 25.0221 38.2017 19.4436C36.7514 21.8904 34.7684 23.6367 32.3117 23.6367C29.8021 23.6202 28.0581 21.8537 26.2836 19.789C23.0015 23.0685 19.2309 23.0668 18.815 24.2681C17.8706 27.0092 21.474 31.0141 24.3498 32.5358Z" fill="#001C3F"/>
<path id="Vector_9" d="M47.2375 17.7376L49.0816 17.0352C48.655 15.933 48.0301 14.4076 47.8872 13.2388C51.3464 15.5707 54.0502 19.1069 55.3403 23.069C56.7056 27.2543 56.536 31.9942 54.8759 36.0731L56.7027 36.8169C58.5362 32.3131 58.7241 27.079 57.2172 22.4572C55.9068 18.4372 53.2866 14.8016 49.906 12.24C51.1449 12.3754 52.3003 12.6607 53.5001 12.8036L53.7333 10.8439C52.0474 10.6442 50.0563 10.0562 48.1489 10.2354C46.7334 10.3677 46.1026 10.3505 45.9445 11.9326C46.0264 12.4444 45.2357 12.5941 47.2375 17.7376Z" fill="#001C3F"/>
<path id="Vector_10" d="M7.24711 36.2818C7.63153 35.7819 9.09474 35.9617 11.4411 29.9141L9.60089 29.2002C9.21249 30.2014 8.6515 31.6413 7.93847 32.7887C6.94042 28.7489 7.30233 24.325 8.99197 20.5279C10.7802 16.5054 14.0791 13.0985 18.0439 11.1812L17.1844 9.40454C12.8064 11.5223 9.16347 15.2842 7.18834 19.7263C5.47605 23.5777 4.98727 28.0161 5.77196 32.1711C4.92616 31.1654 4.24247 30.2522 3.48569 29.3861L2 30.6849C2.41622 31.1604 2.82859 31.6763 3.24674 32.199C6.20131 35.8875 6.62688 35.6986 7.24711 36.2818Z" fill="#001C3F"/>
</g>
</g>
<defs>
<clipPath id="clip0_1470_3310">
<rect width="60" height="60" fill="white"/>
</clipPath>
</defs>
</svg>