<svg xmlns="http://www.w3.org/2000/svg" width="60" height="60" viewBox="0 0 60 60" fill="none">
<g clip-path="url(#clip0_231_988)">
<path d="M4.42969 1.53516C2.42578 2.00391 0.65625 3.98438 0.175781 6.26953C-0.0820313 7.48828 -0.0820313 41.1328 0.175781 42.3398C0.679688 44.7188 2.46094 46.6641 4.54688 47.0977C5.32031 47.2617 12.5156 47.2734 12.9375 47.1094C13.6523 46.8398 13.8633 45.7969 13.3125 45.2461L13.0078 44.9414L8.92969 44.8828C5.01563 44.8242 4.83984 44.8125 4.38281 44.5664C3.72656 44.2148 2.98828 43.3594 2.67188 42.5508L2.40234 41.8945V30.6445V19.3945L27.8672 19.3594L53.3203 19.3359V25.3125V31.2891H52.8867C52.3477 31.2891 51.5039 31.6641 51.082 32.0625L50.7656 32.3672L49.9688 32.0156C49.5234 31.8281 49.043 31.6289 48.9024 31.5938C48.7031 31.5352 48.6328 31.3945 48.5742 30.9023C48.4336 29.8711 47.9297 29.1328 47.0625 28.6875C46.5 28.3945 44.4492 28.2656 43.418 28.4648C42.1406 28.6992 41.2969 29.6016 41.168 30.8555L41.1094 31.4766L40.0664 31.9219L39.0234 32.3672L38.6602 32.0508C38.0274 31.5352 37.6055 31.3711 36.8555 31.3711C36.375 31.3711 36.0117 31.4414 35.6836 31.6172C35.0508 31.9453 33.1055 33.9375 32.8711 34.4766C32.5078 35.3672 32.7656 36.6562 33.457 37.3828L33.75 37.6875L33.293 38.7305L32.8359 39.7852L32.2148 39.8438C31.4883 39.9258 31.0078 40.1484 30.5742 40.6289C29.9531 41.2969 29.8359 41.6602 29.7891 43.3242L29.7422 44.8828H26.1094H22.4766L22.1367 45.2227C21.5625 45.7969 21.7266 46.7227 22.4648 47.0977C22.6406 47.1914 24.293 47.2266 27.7969 47.2266H32.8711L33.3164 48.2812L33.7734 49.3477L33.4219 49.7344C32.6836 50.5781 32.5078 51.7969 33 52.7578C33.3047 53.3555 35.168 55.1602 35.7539 55.4297C36.4805 55.7578 37.3125 55.7344 38.0508 55.3711C38.3789 55.207 38.7305 54.9727 38.8359 54.8555C39.0234 54.6445 39.0703 54.6562 40.0664 55.0664L41.1094 55.4883L41.2383 56.25C41.4024 57.2344 41.8242 57.832 42.6445 58.2656C43.2305 58.5703 43.3477 58.5938 44.7891 58.5938C45.6328 58.5938 46.5234 58.5352 46.7695 58.4648C47.7539 58.1602 48.4805 57.2109 48.5977 56.0625C48.6328 55.7109 48.7266 55.4297 48.7969 55.4297C48.8672 55.4297 49.3477 55.2422 49.8633 55.0195L50.7891 54.6094L51.1524 54.9609C51.8906 55.6758 53.1563 55.875 54.082 55.4297C54.6914 55.1367 56.6602 53.1445 56.8945 52.582C57.2695 51.668 57.0469 50.4492 56.3672 49.7461L56.0156 49.3828L56.4258 48.457C56.6484 47.9414 56.8359 47.4492 56.8359 47.3672C56.8359 47.2852 57 47.2266 57.2578 47.2266C58.0195 47.2266 58.6289 46.9688 59.1797 46.4062C59.8711 45.7148 60 45.2578 60 43.3828C60 41.9414 59.9766 41.8242 59.6719 41.2383C59.2266 40.3828 58.5938 39.9492 57.6563 39.8555L56.9297 39.7852L56.6602 39.0703C56.5078 38.6719 56.3086 38.1914 56.2031 37.9922C56.0391 37.6758 56.0391 37.6289 56.2031 37.4883C56.3086 37.4062 56.543 37.0664 56.7305 36.7383C57.3516 35.6602 57.1641 34.4883 56.1914 33.4102L55.793 32.9766L55.7578 19.793L55.7227 6.62109L55.4063 5.67188C54.8555 4.07812 53.707 2.61328 52.5234 2.00391C51.293 1.37109 52.5234 1.40625 27.7734 1.41797C14.9766 1.42969 4.66406 1.47656 4.42969 1.53516ZM51.0117 3.9375C51.7266 4.18359 52.4883 4.92188 52.9219 5.8125L53.2617 6.50391L53.2969 11.7422L53.332 16.9922H27.832H2.33203L2.36719 11.8594C2.40234 6.85547 2.41406 6.72656 2.67188 6.08203C3.10547 5.00391 3.97266 4.14844 4.92188 3.85547C5.08594 3.80859 15.3984 3.76172 27.8438 3.76172C48.2695 3.75 50.5195 3.77344 51.0117 3.9375ZM46.1719 31.6641C46.1719 32.2383 46.2422 32.6484 46.3828 32.9297C46.5586 33.3047 46.6875 33.375 47.6953 33.7031C48.3047 33.9023 49.2422 34.2891 49.7695 34.5469C50.3086 34.8164 50.8594 35.0391 51.0117 35.0391C51.3399 35.0391 51.6914 34.8047 52.418 34.1133L52.9688 33.5859L53.8477 34.4531C54.3281 34.9336 54.7266 35.3789 54.7266 35.4492C54.7266 35.5195 54.4688 35.8359 54.1406 36.1523C53.8242 36.4688 53.4961 36.9023 53.4258 37.1133C53.3086 37.4766 53.3438 37.6055 53.8828 38.707C54.2109 39.3633 54.5859 40.2773 54.7149 40.7344C55.0664 41.918 55.3008 42.1055 56.5781 42.1875L57.5977 42.2461L57.6328 43.4062C57.6563 44.1562 57.6211 44.6133 57.5274 44.7188C57.4336 44.8359 57.1172 44.8828 56.4844 44.8828C55.2656 44.8828 55.0899 45.0234 54.668 46.3711C54.4922 46.9453 54.1172 47.8594 53.8242 48.4219C53.3438 49.3477 53.3086 49.4648 53.4258 49.8281C53.4961 50.0508 53.8242 50.4844 54.1406 50.8008C54.4688 51.1172 54.7266 51.4336 54.7266 51.5039C54.7266 51.6562 53.0625 53.3203 52.8984 53.3203C52.8399 53.3203 52.5 53.0273 52.1484 52.6758C51.2813 51.7969 51.0703 51.7734 49.8281 52.418C49.2656 52.7109 48.3516 53.0859 47.7891 53.25C46.4414 53.6602 46.2891 53.8477 46.2891 55.0781C46.2891 55.7109 46.2422 56.0273 46.125 56.1211C46.0195 56.2148 45.5625 56.25 44.8125 56.2266L43.6524 56.1914L43.5938 55.1719C43.5117 53.8945 43.3242 53.6602 42.1406 53.3086C41.6836 53.168 40.7813 52.793 40.1367 52.4766C39.0703 51.9375 38.9414 51.9023 38.5547 52.0195C38.332 52.0898 37.8867 52.4062 37.5586 52.7344C37.2422 53.0508 36.9258 53.3203 36.8555 53.3203C36.7852 53.3203 36.3516 52.9336 35.8711 52.4531C34.9219 51.5039 34.8984 51.375 35.6133 50.8711C36.0352 50.5664 36.4453 49.9219 36.4453 49.5703C36.4453 49.418 36.2109 48.8438 35.9297 48.293C35.6484 47.7422 35.2969 46.8867 35.1563 46.4062C34.7695 45.1289 34.5703 44.9531 33.3047 44.8828L32.2852 44.8242L32.25 43.5L32.2148 42.1875H33.0703C33.6445 42.1875 34.0547 42.1172 34.3359 41.9766C34.7109 41.8008 34.7813 41.6719 35.1563 40.5469C35.3906 39.8672 35.7773 38.9531 36.0117 38.5078C36.2461 38.0625 36.4453 37.5938 36.4453 37.4766C36.4453 37.125 36.1524 36.6562 35.5781 36.0938C35.2852 35.8125 35.0391 35.5195 35.0391 35.4609C35.0391 35.2617 36.5977 33.75 36.7969 33.75C36.9024 33.75 37.1953 33.9609 37.4414 34.2305C37.9805 34.7812 38.4258 35.0391 38.8359 35.0391C38.9883 35.0391 39.5742 34.8047 40.1133 34.5234C40.6641 34.2305 41.4961 33.8789 41.9766 33.75C42.5625 33.5742 42.9375 33.3867 43.1602 33.1523C43.4531 32.8359 43.4766 32.7305 43.4766 31.8984C43.4766 31.3945 43.5117 30.9375 43.5586 30.9023C43.5938 30.8555 44.2031 30.8203 44.9063 30.8203H46.1719V31.6641Z" fill="#001C3F"/>
<path d="M9.96094 6.62109C9.23438 6.82031 8.25 7.45312 7.88672 7.94531C7.23047 8.83594 7.08984 9.26953 7.08984 10.4297C7.08984 11.3555 7.13672 11.6367 7.35938 12.082C7.79297 12.9609 8.37891 13.5469 9.22266 13.9688C9.91406 14.3086 10.125 14.3555 10.957 14.3555C11.7422 14.3555 12.0117 14.2969 12.5977 14.0273C13.5 13.6055 14.3203 12.7383 14.6484 11.8594C15 10.9453 14.9414 9.5625 14.5312 8.73047C13.7109 7.04297 11.7305 6.14062 9.96094 6.62109ZM11.9766 9.22266C12.6914 9.86719 12.7148 10.9336 12.0352 11.5664C11.4961 12.0586 10.9336 12.1641 10.3477 11.8828C9.25781 11.3438 9.05859 10.0195 9.94922 9.21094C10.4297 8.76562 11.4844 8.77734 11.9766 9.22266Z" fill="#001C3F"/>
<path d="M20.2616 6.59813C18.2343 7.17235 16.9921 9.09422 17.3554 11.0981C17.6015 12.4341 18.3983 13.4536 19.6757 14.0513C20.6015 14.4848 21.914 14.4848 22.8632 14.0395C23.7069 13.6528 24.4335 12.938 24.8319 12.0825C25.0897 11.5317 25.1366 11.2622 25.1366 10.4302C25.1366 9.57469 25.0897 9.34032 24.8085 8.7661C23.9882 7.09032 21.9608 6.11766 20.2616 6.59813ZM22.2655 9.24657C22.9687 9.76219 23.0038 10.8872 22.3358 11.5552C21.8202 12.0708 21.2577 12.1645 20.6015 11.8481C19.9687 11.5434 19.6874 11.0864 19.6874 10.3833C19.6874 9.93797 19.7577 9.77391 20.0741 9.42235C20.6718 8.7661 21.539 8.69579 22.2655 9.24657Z" fill="#001C3F"/>
<path d="M34.3007 6.57422C31.8984 7.13672 30.539 9.80859 31.5117 12.0234C31.8398 12.75 32.7304 13.6523 33.5039 14.0273L34.1601 14.3555H40.3711C46.582 14.3555 46.582 14.3555 47.1562 14.0859C48.0468 13.6875 48.6679 13.1016 49.1015 12.293C50.0507 10.5 49.5234 8.34375 47.8359 7.18359C46.8046 6.46875 46.5 6.44531 40.3125 6.45703C37.2539 6.46875 34.5468 6.51562 34.3007 6.57422ZM46.5117 9.12891C47.2265 9.64453 47.4257 10.5703 46.957 11.2617C46.4179 12.082 46.4882 12.0703 40.5351 12.0703C37.5937 12.0703 35.0156 12.0352 34.8046 12C34.3007 11.8945 33.6796 11.2617 33.5859 10.7344C33.4804 10.207 33.832 9.33984 34.2304 9.12891C34.8046 8.82422 35.2734 8.80078 40.6054 8.82422L46.1132 8.84766L46.5117 9.12891Z" fill="#001C3F"/>
<path d="M43.125 36.5151C41.1563 37.0307 39.3164 38.519 38.461 40.3237C37.8516 41.5776 37.6875 42.4565 37.7578 43.98C37.8047 44.9292 37.8868 45.3393 38.1446 45.9956C39 48.1401 40.5118 49.5932 42.6797 50.355C43.7813 50.7534 45.7032 50.8003 46.8164 50.4604C49.2539 49.7339 51.1407 47.8472 51.8672 45.4097C52.1836 44.3432 52.1602 42.5972 51.8203 41.4839C51.0703 39.0581 48.9844 37.0659 46.6172 36.5034C45.6914 36.2925 43.9688 36.2925 43.125 36.5151ZM46.9219 39.1167C49.9453 40.5347 50.6719 44.4018 48.3868 46.8159C46.0664 49.2768 42.0821 48.6675 40.5821 45.6206C40.2188 44.8823 40.1485 44.6011 40.1016 43.7807C40.043 42.5737 40.2539 41.7768 40.8868 40.8276C41.461 39.9604 42.3516 39.2807 43.3477 38.9292C44.461 38.5425 45.8438 38.6128 46.9219 39.1167Z" fill="#001C3F"/>
<path d="M18.5507 26.1328C18.4101 26.1914 18.2108 26.3672 18.1054 26.5195C17.8827 26.8593 15.5741 36.3984 15.5507 37.0664C15.539 37.4414 15.5976 37.582 15.914 37.8632C16.5819 38.4609 17.5194 38.2148 17.8007 37.3476C18.0702 36.5156 20.1679 27.5742 20.1796 27.2343C20.1796 26.7422 19.9921 26.4023 19.5702 26.1914C19.1952 25.9922 18.9374 25.9804 18.5507 26.1328Z" fill="#001C3F"/>
<path d="M10.7109 27.1055C10.2187 27.3867 6.91405 31.2188 6.77342 31.6641C6.53905 32.4492 6.74998 32.8242 8.62498 34.9336C9.56248 35.9883 10.4414 36.9492 10.5703 37.0547C10.7109 37.1836 11.0039 37.2656 11.2969 37.2656C11.9765 37.2656 12.4219 36.8086 12.4219 36.1289C12.4219 35.6836 12.3281 35.543 10.8984 33.9258C10.0664 32.9883 9.37498 32.168 9.37498 32.1211C9.37498 32.0742 9.67967 31.6992 10.0547 31.2773C12.5039 28.5117 12.4219 28.6172 12.4219 28.1133C12.4219 27.2227 11.4726 26.6602 10.7109 27.1055Z" fill="#001C3F"/>
<path d="M23.6953 27.2461C23.2851 27.5977 23.1679 28.0547 23.3789 28.5352C23.4609 28.7227 24.1758 29.6016 24.9492 30.4688C25.7226 31.3359 26.3672 32.0859 26.3672 32.1211C26.3672 32.168 25.6992 32.9414 24.8906 33.8555C23.1328 35.8359 22.9453 36.2812 23.6367 36.9609C23.8593 37.1953 24.0586 37.2656 24.4218 37.2656C24.6797 37.2656 24.9843 37.1953 25.0898 37.1133C25.6054 36.7266 28.8398 32.9414 28.957 32.6016C29.2031 31.8633 29.0156 31.4883 27.6797 29.9648C26.9883 29.1797 26.0859 28.1836 25.664 27.7383C24.9961 27.0586 24.8437 26.9531 24.4687 26.9531C24.1875 26.9531 23.9297 27.0469 23.6953 27.2461Z" fill="#001C3F"/>
<path d="M17.0976 45.0585C16.4179 45.4335 16.3827 46.3945 17.0273 46.9453C17.332 47.2031 17.4726 47.2382 17.8593 47.1914C18.5156 47.0976 18.8671 46.6757 18.8671 45.996C18.8671 45.5742 18.8085 45.4453 18.5038 45.1874C18.1054 44.8476 17.5781 44.8007 17.0976 45.0585Z" fill="#001C3F"/>
</g>
<defs>
<clipPath id="clip0_231_988">
<rect width="60" height="60" fill="white"/>
</clipPath>
</defs>
</svg>