<?xml version="1.0" encoding="utf-8"?>
<svg width="133" height="156" viewBox="0 0 133 156" fill="none" xmlns="http://www.w3.org/2000/svg">
<path fill-rule="evenodd" clip-rule="evenodd" d="M71.6354 68.8093V76.7953H57.9451V68.7431C62.4665 69.6194 67.114 69.6194 71.6354 68.7431V68.8093ZM39.5426 134.02H90.038C91.029 134.02 91.9795 134.414 92.6802 135.115C93.381 135.815 93.7747 136.766 93.7747 137.757V139.741C93.7747 140.232 93.678 140.717 93.4902 141.171C93.3025 141.624 93.0272 142.036 92.6802 142.383C92.3332 142.73 91.9213 143.005 91.4679 143.193C91.0146 143.381 90.5287 143.478 90.038 143.478H39.5426C39.0519 143.478 38.566 143.381 38.1126 143.193C37.6592 143.005 37.2473 142.73 36.9003 142.383C36.5533 142.036 36.2781 141.624 36.0903 141.171C35.9025 140.717 35.8059 140.232 35.8059 139.741V137.757C35.8059 136.766 36.1995 135.815 36.9003 135.115C37.6011 134.414 38.5515 134.02 39.5426 134.02ZM39.5426 92.6846H90.038C91.029 92.6846 91.9795 93.0783 92.6802 93.7791C93.381 94.4798 93.7747 95.4303 93.7747 96.4213V98.4054C93.7747 99.3965 93.381 100.347 92.6802 101.048C91.9795 101.748 91.029 102.142 90.038 102.142H39.5426C38.5515 102.142 37.6011 101.748 36.9003 101.048C36.1995 100.347 35.8059 99.3965 35.8059 98.4054V96.4709C35.8059 95.4799 36.1995 94.5294 36.9003 93.8287C37.6011 93.1279 38.5515 92.7342 39.5426 92.7342V92.6846ZM59.5655 79.6061H70.0151C73.0293 79.6084 75.9588 80.6042 78.35 82.4395C80.7411 84.2747 82.4607 86.8469 83.2424 89.7581H46.3547C47.1364 86.8469 48.8559 84.2747 51.2471 82.4395C53.6383 80.6042 56.5677 79.6084 59.582 79.6061H59.5655ZM87.161 105.168V131.044H42.4195V105.168H87.161ZM65.6666 13.7505L68.3782 22.1333H77.1909C77.4011 22.1202 77.6097 22.1766 77.7846 22.2939C77.9595 22.4111 78.0909 22.5826 78.1586 22.782C78.2263 22.9814 78.2265 23.1975 78.1592 23.397C78.0919 23.5965 77.9608 23.7683 77.7861 23.8859L70.6434 29.0115L73.388 37.3778C73.455 37.5724 73.4576 37.7834 73.3954 37.9796C73.3332 38.1757 73.2095 38.3467 73.0427 38.4672C72.8759 38.5877 72.6747 38.6513 72.4689 38.6487C72.2631 38.646 72.0637 38.5773 71.9 38.4525L64.7903 33.2608L57.6806 38.4525C57.5169 38.5773 57.3174 38.646 57.1116 38.6487C56.9059 38.6513 56.7047 38.5877 56.5378 38.4672C56.371 38.3467 56.2474 38.1757 56.1852 37.9796C56.123 37.7834 56.1255 37.5724 56.1925 37.3778L58.9372 29.0115L51.7944 23.8859C51.6301 23.7671 51.5077 23.5993 51.4448 23.4066C51.3818 23.2139 51.3815 23.0062 51.444 22.8134C51.5064 22.6205 51.6284 22.4524 51.7924 22.3332C51.9563 22.214 52.1538 22.1498 52.3566 22.1498H61.1693L63.8809 13.767C63.9447 13.5763 64.0669 13.4106 64.23 13.2931C64.3932 13.1756 64.5892 13.1124 64.7903 13.1124C64.9913 13.1124 65.1873 13.1756 65.3505 13.2931C65.5137 13.4106 65.6358 13.5763 65.6996 13.767L65.6666 13.7505ZM64.7903 66.4449C97.2138 66.8748 98.5696 22.8112 98.6192 2.6891C98.6281 2.03851 98.3792 1.41084 97.9269 0.943084C97.4747 0.475329 96.8557 0.20548 96.2052 0.19244H33.3753C33.0476 0.190211 32.7228 0.253389 32.4198 0.378275C32.1168 0.503162 31.8417 0.687246 31.6108 0.919749C31.3798 1.15225 31.1976 1.4285 31.0747 1.73231C30.9518 2.03613 30.8908 2.36141 30.8952 2.6891C30.8952 22.7781 32.3006 66.4449 64.7241 66.4449H64.7903ZM70.5772 19.1406L68.5435 12.8245C68.2833 12.0345 67.7804 11.3468 67.1065 10.8593C66.4326 10.3718 65.622 10.1093 64.7903 10.1093C63.9585 10.1093 63.148 10.3718 62.4741 10.8593C61.8001 11.3468 61.2973 12.0345 61.037 12.8245L59.0033 19.1406H52.3896C51.5559 19.1405 50.7436 19.4041 50.0687 19.8936C49.3939 20.3832 48.8912 21.0736 48.6325 21.8661C48.3738 22.6587 48.3724 23.5128 48.6285 24.3062C48.8846 25.0996 49.3851 25.7916 50.0583 26.2834L55.4319 30.1689L53.3652 36.4519C53.0999 37.245 53.0943 38.1021 53.3491 38.8986C53.6039 39.6952 54.1059 40.3898 54.7821 40.8819C55.4584 41.3739 56.2739 41.6376 57.1102 41.6349C57.9465 41.6321 58.7602 41.363 59.4332 40.8665L64.7903 36.9644L70.1473 40.8665C70.8204 41.363 71.634 41.6321 72.4704 41.6349C73.3067 41.6376 74.1221 41.3739 74.7984 40.8819C75.4747 40.3898 75.9766 39.6952 76.2314 38.8986C76.4862 38.1021 76.4806 37.245 76.2154 36.4519L74.1651 30.1524L79.5388 26.2668C80.212 25.7751 80.7125 25.083 80.9686 24.2896C81.2247 23.4962 81.2233 22.6422 80.9646 21.8496C80.7059 21.0571 80.2032 20.3666 79.5284 19.8771C78.8535 19.3875 78.0411 19.124 77.2074 19.1241L70.5772 19.1406ZM15.6342 6.93838H28.0017C28.0017 8.79021 28.0844 10.6916 28.1671 12.6427H19.7346C19.5646 12.6423 19.3963 12.6769 19.2402 12.7443C19.0841 12.8117 18.9435 12.9105 18.8272 13.0346C18.7109 13.1587 18.6214 13.3053 18.5641 13.4654C18.5069 13.6256 18.4832 13.7957 18.4946 13.9654V18.38C18.5088 22.0575 19.7038 25.6332 21.9036 28.5801C24.1035 31.5271 27.1917 33.6896 30.7133 34.7489C31.1432 36.8322 31.6558 38.8989 32.251 40.9161C26.8336 40.107 21.8875 37.3774 18.315 33.2252C14.7426 29.073 12.7818 23.7749 12.7903 18.2974V9.78226C12.7903 9.4088 12.8638 9.03899 13.0068 8.69396C13.1497 8.34892 13.3592 8.03541 13.6232 7.77134C13.8873 7.50726 14.2008 7.29778 14.5459 7.15486C14.8909 7.01194 15.2607 6.93838 15.6342 6.93838ZM113.946 6.93838C114.32 6.93838 114.69 7.01194 115.035 7.15486C115.38 7.29778 115.693 7.50726 115.957 7.77134C116.221 8.03541 116.431 8.34892 116.574 8.69396C116.717 9.03899 116.79 9.4088 116.79 9.78226V18.2974C116.777 23.7524 114.813 29.0228 111.253 33.156C107.693 37.2892 102.772 40.0124 97.3791 40.8334C97.9744 38.8163 98.4704 36.7495 98.9168 34.6662C102.428 33.5958 105.504 31.429 107.694 28.4833C109.884 25.5376 111.072 21.9679 111.086 18.2974V13.9654C111.086 13.8012 111.053 13.6385 110.99 13.487C110.927 13.3355 110.834 13.198 110.717 13.0827C110.6 12.9673 110.461 12.8763 110.309 12.8149C110.157 12.7536 109.994 12.7232 109.829 12.7253H101.397C101.397 10.8239 101.529 8.92248 101.562 7.02105L113.946 6.93838Z" fill="url(#paint0_linear_2076_173)"/>
<path d="M0.784546 143.478H128.796" stroke="#001C3F" stroke-width="2"/>
<path d="M111.653 137.921L128.268 154.536" stroke="#009CFB" stroke-width="2"/>
<path d="M115.532 137.921L132.147 154.536" stroke="#009CFB" stroke-width="2"/>
<path d="M0.784546 130.613L17.3997 147.229" stroke="#009CFB" stroke-width="2"/>
<path d="M4.66376 130.613L21.2789 147.229" stroke="#009CFB" stroke-width="2"/>
<defs>
<linearGradient id="paint0_linear_2076_173" x1="64.7903" y1="0.192383" x2="64.7903" y2="143.478" gradientUnits="userSpaceOnUse">
<stop stop-color="#009CFB"/>
<stop offset="1" stop-color="#001C3F"/>
</linearGradient>
</defs>
</svg>
