<svg xmlns="http://www.w3.org/2000/svg" width="141" height="41" viewBox="0 0 141 41" fill="none">
<g clipPath="url(#clip0_2048_55)">
<path d="M36.5901 0.943848H42.9606V40.7599H36.5901V0.943848ZM65.2576 28.0585C65.2576 34.152 60.1341 34.6377 58.6099 34.6377C54.8019 34.6377 54.1091 31.0734 54.1091 28.9234V13.685H47.7386V28.8915C47.7386 32.6661 48.9235 35.7813 51.0003 37.8581C52.835 39.6944 55.5839 40.6977 58.5621 40.6977C60.674 40.6977 63.665 40.04 65.2576 38.5859V40.7599H71.6282V13.685H65.2576V28.0585ZM84.3693 4.12913H77.9987V13.685H73.2208V20.0555H77.9987V40.7599H84.3693V20.0555H89.1472V13.685H84.3693V4.12913ZM109.21 32.6645C107.822 33.9115 105.991 34.6027 103.981 34.6027C99.5503 34.6027 96.2965 31.3489 96.2965 26.8816C96.2965 22.4142 99.4468 19.2974 103.981 19.2974C105.956 19.2974 107.822 19.9552 109.245 21.2022L110.211 22.0336L114.507 17.7398L113.432 16.7699C110.904 14.4877 107.549 13.2072 103.979 13.2072C96.0163 13.2072 90.2334 18.9534 90.2334 26.8481C90.2334 34.7094 96.1548 40.6611 103.979 40.6611C107.615 40.6611 111.006 39.3806 113.502 37.0617L114.54 36.0918L110.178 31.8013L109.21 32.6645ZM137.245 16.0453C135.41 14.2105 133.26 13.2072 130.282 13.2072C128.17 13.2072 125.778 13.8649 124.185 15.3174V0.943848H117.815V40.7599H124.185V25.8448C124.185 19.7513 128.514 19.2672 130.038 19.2672C133.846 19.2672 133.741 22.8331 133.741 24.98V40.7599H140.112V25.0134C140.112 21.2389 139.323 18.1237 137.245 16.0453Z" fill="#001C3F"/>
<path d="M103.771 22.345C104.993 22.345 106.165 22.8302 107.028 23.694C107.892 24.5578 108.377 25.7293 108.377 26.9509C108.377 28.1725 107.892 29.344 107.028 30.2078C106.165 31.0715 104.993 31.5568 103.771 31.5568C102.55 31.5568 101.378 31.0715 100.515 30.2078C99.6508 29.344 99.1655 28.1725 99.1655 26.9509C99.1655 25.7293 99.6508 24.5578 100.515 23.694C101.378 22.8302 102.55 22.345 103.771 22.345Z" fill="#FF3D2E"/>
<path d="M27.6713 30.7591C25.2489 33.2516 21.9585 34.6021 18.4961 34.6021C11.3993 34.6021 6.23917 29.0279 6.23917 21.3768C6.23917 13.6908 11.3993 8.11651 18.4961 8.11651C21.9251 8.11651 25.1788 9.46548 27.6379 11.9245L28.6062 12.8944L32.8649 8.63571L31.93 7.66579C28.3992 4.02979 23.6212 2.05811 18.4961 2.05811C8.04044 2.05811 0.180763 10.3669 0.180763 21.4103C0.180763 32.4202 8.07548 40.6956 18.4961 40.6956C23.6563 40.6956 28.4342 38.6888 31.9651 35.0528L32.9 34.0829L28.6763 29.7557L27.6713 30.7591Z" fill="#001C3F"/>
</g>
<defs>
<clipPath id="clip0_2048_55">
<rect width="140" height="39.816" fill="white" transform="translate(0.147156 0.943848)"/>
</clipPath>
</defs>
</svg>