<?xml version="1.0" encoding="utf-8"?>
<svg width="60" height="60" viewBox="0 0 60 60" fill="none" xmlns="http://www.w3.org/2000/svg">
<path d="M59.3707 21.2007L30.3585 10.066C30.1284 9.97799 29.8723 9.97799 29.6412 10.066L0.629907 21.2007C-0.201444 21.4959 -0.218451 22.7754 0.629907 23.0685L11.9927 27.4294V41.7634C12.2608 52.9962 48.6172 52.1308 48.0079 41.7634V27.4294L53.01 25.5096V36.5452C48.4801 37.6897 49.2515 44.3515 53.9524 44.4145C58.5814 44.3565 59.4408 37.8348 55.0099 36.5812V24.7422L59.3697 23.0685C60.2041 22.7814 60.2161 21.4889 59.3697 21.2007H59.3707ZM55.9483 40.4179C55.8803 43.05 52.0246 43.049 51.9566 40.4179C52.0246 37.7857 55.8803 37.7867 55.9483 40.4179ZM46.0061 41.7644C46.0061 44.6827 41.4912 46.6045 36.0019 47.4088V45.425H40.0035C40.5568 45.425 41.004 44.9778 41.004 44.4245V39.4224H43.0048C43.558 39.4224 44.0052 38.9752 44.0052 38.422V35.1506C45.748 34.1722 45.0377 31.402 42.9998 31.4191C40.9549 31.408 40.2486 34.1792 42.0044 35.1556V37.4216H40.0035C39.4503 37.4216 39.0031 37.8688 39.0031 38.422V43.4241H35.0014C34.4482 43.4241 34.001 43.8713 34.001 44.4245V47.6469C33.3397 47.7089 32.6714 47.755 32.0002 47.786V42.4227H35.0014C35.5547 42.4227 36.0019 41.9755 36.0019 41.4223V35.4197H36.282C37.2614 37.1685 40.0316 36.4452 40.0135 34.4143C40.0135 33.3068 39.1152 32.4085 38.0077 32.4085C37.2644 32.4085 36.6221 32.8176 36.276 33.4189H35.0014C34.4482 33.4189 34.001 33.8661 34.001 34.4193V36.4202H32.7265C31.7501 34.6604 28.9749 35.3767 28.9889 37.4156C28.9739 39.4484 31.7381 40.1698 32.7205 38.421H34.001V40.4219H30.9997C30.4465 40.4219 29.9993 40.869 29.9993 41.4223V47.838C29.334 47.838 28.6658 47.817 27.9985 47.786V39.4214C27.9985 38.8682 27.5513 38.421 26.998 38.421H22.9964V36.1501C23.5916 35.8019 23.9968 35.1636 23.9968 34.4243C23.9968 33.3169 23.0984 32.4185 21.9909 32.4185C19.9561 32.4045 19.2338 35.1776 20.9955 36.1551V39.4214C20.9955 39.9747 21.4427 40.4219 21.9959 40.4219H25.9976V47.6459C24.612 47.5149 23.2635 47.3158 21.9959 47.0517V43.4231C21.9959 42.8699 21.5487 42.4227 20.9955 42.4227H18.9947V40.1417C19.5899 39.7936 19.9951 39.1553 19.9951 38.416C19.9331 35.7729 16.0484 35.7709 15.9834 38.416C15.9834 39.1593 16.3926 39.8006 16.9938 40.1477V43.4231C16.9938 43.9764 17.441 44.4235 17.9942 44.4235H19.9951V46.5584C16.4776 45.539 13.9926 43.9263 13.9926 41.7624V34.4183H15.2671C16.2505 36.1801 19.0157 35.4588 19.0037 33.4219C19.0237 31.393 16.2505 30.6657 15.2721 32.4175H13.9926V28.1957L29.6412 34.2012C29.8723 34.2893 30.1274 34.2893 30.3585 34.2012L46.0071 28.1957V41.7624L46.0061 41.7644ZM29.9993 32.1984L3.78024 22.1351L30.0003 12.0719L56.2204 22.1351L29.9993 32.1984Z" fill="#001C3F"/>
</svg>
