<?xml version="1.0" encoding="utf-8"?>
<svg width="60" height="60" viewBox="0 0 60 60" fill="none" xmlns="http://www.w3.org/2000/svg">
<g id="Marketplaces Icons">
<path id="Vector" d="M50.308 9.35108H46.9576V2.27724C46.9576 1.02083 45.9367 0 44.6803 0H14.749C13.4926 0 12.4718 1.02083 12.4718 2.27724V9.35108H9.12139C7.40037 9.35108 6 10.7514 6 12.4725V47.8809C6 49.6019 7.40037 51.0023 9.12139 51.0023H21.5742V54.0255H13.1C12.0792 54.0255 11.2547 54.8566 11.2547 55.8709V58.1547C11.2547 59.1755 12.0857 60 13.1 60H46.3228C47.3437 60 48.1682 59.1689 48.1682 58.1547V55.8709C48.1682 54.85 47.3371 54.0255 46.3228 54.0255H37.8486V51.0023H50.3014C52.0225 51.0023 53.4228 49.6019 53.4228 47.8809V12.4725C53.4228 10.7514 52.0225 9.35108 50.3014 9.35108H50.308ZM14.4088 9.20057H45.0206V36.1937C45.0206 36.3769 44.8636 36.534 44.6803 36.534H14.749C14.5658 36.534 14.4088 36.3769 14.4088 36.1937V9.19403V9.20057ZM14.749 1.94351H44.6803C44.8636 1.94351 45.0206 2.10056 45.0206 2.28378V7.26361H14.4088V2.27724C14.4088 2.09401 14.5658 1.93696 14.749 1.93696V1.94351ZM7.93696 12.479C7.93696 11.8246 8.46701 11.288 9.12793 11.288H12.4784V36.1937C12.4784 37.4501 13.4992 38.4709 14.7556 38.4709H44.6869C45.9433 38.4709 46.9641 37.4501 46.9641 36.1937V11.2815H50.3145C50.9689 11.2815 51.5055 11.8115 51.5055 12.4725V41.697H7.93696V12.4725V12.479ZM46.2378 58.0761H13.1916V55.969H46.2378V58.0761ZM35.9182 54.0321H23.5112V51.0088H35.9182V54.0321ZM51.4924 47.8875C51.4924 48.5418 50.9624 49.0784 50.3014 49.0784H9.12139C8.46701 49.0784 7.93042 48.5484 7.93042 47.8875V43.6405H51.4924V47.8875ZM26.7242 46.3562C26.7242 45.8196 27.1561 45.3877 27.6927 45.3877H31.7302C32.2668 45.3877 32.6987 45.8196 32.6987 46.3562C32.6987 46.8928 32.2668 47.3247 31.7302 47.3247H27.6927C27.1561 47.3247 26.7242 46.8928 26.7242 46.3562ZM18.2892 12.2238H22.065C22.3726 12.2238 22.4838 12.7604 22.4969 12.8193L25.8342 30.2323C25.0163 30.7231 24.4731 31.6196 24.4731 32.6404C24.4731 34.1913 25.7361 35.4477 27.2804 35.4477C28.491 35.4477 29.5184 34.6821 29.9176 33.6089H35.2507C35.6434 34.6821 36.6773 35.4477 37.8879 35.4477C39.4388 35.4477 40.6952 34.1848 40.6952 32.6404C40.6952 31.0961 39.4322 29.8331 37.8879 29.8331C36.6773 29.8331 35.6499 30.5988 35.2507 31.6719H29.9176C29.5707 30.7362 28.7462 30.036 27.7385 29.8659L27.5683 28.989H37.8224C38.9545 28.989 39.8706 28.1448 40.152 26.8426L42.0759 17.9169C42.1348 17.629 42.0694 17.3345 41.8861 17.1055C41.7029 16.8764 41.4281 16.7456 41.1336 16.7456H25.2257L24.4011 12.4528C24.1525 11.1572 23.2167 10.2868 22.065 10.2868H18.2892C17.7526 10.2868 17.3208 10.7187 17.3208 11.2553C17.3208 11.7919 17.7526 12.2238 18.2892 12.2238ZM37.8879 31.7701C38.3721 31.7701 38.7582 32.1627 38.7582 32.6404C38.7582 33.1181 38.3656 33.5107 37.8879 33.5107C37.4102 33.5107 37.0176 33.1181 37.0176 32.6404C37.0176 32.1627 37.4102 31.7701 37.8879 31.7701ZM27.2804 33.5173C26.7962 33.5173 26.4101 33.1247 26.4101 32.647C26.4101 32.1693 26.8027 31.7766 27.2804 31.7766C27.7581 31.7766 28.1507 32.1693 28.1507 32.647C28.1507 33.1247 27.7581 33.5173 27.2804 33.5173ZM26.5802 23.8259H28.2816L28.8116 27.0586H27.1953L26.5737 23.8259H26.5802ZM33.8046 21.9021V18.6825H36.2716L35.7415 21.9086H33.8046V21.9021ZM35.4274 23.839L34.8974 27.052H33.8046V23.839H35.4274ZM31.8741 21.9021H29.9372L29.4071 18.6891H31.8741V21.9021ZM31.8741 23.839V27.0586H30.7813L30.2513 23.839H31.8741ZM37.829 27.0586H36.8671L37.3971 23.8521H38.8302L38.274 26.4435C38.2609 26.5089 38.13 27.0651 37.8355 27.0651L37.829 27.0586ZM39.2424 21.9217H37.7112L38.2412 18.6891H39.9361L39.2359 21.9217H39.2424ZM27.444 18.6891L27.974 21.8955H26.2203L25.6052 18.6891H27.4505H27.444ZM15.6848 4.60028C15.6848 4.06369 16.1167 3.6318 16.6533 3.6318H18.5379C19.0745 3.6318 19.5064 4.06369 19.5064 4.60028C19.5064 5.13687 19.0745 5.56877 18.5379 5.56877H16.6533C16.1167 5.56877 15.6848 5.13687 15.6848 4.60028ZM21.3648 4.60028C21.3648 4.06369 21.7967 3.6318 22.3333 3.6318H24.2179C24.7545 3.6318 25.1864 4.06369 25.1864 4.60028C25.1864 5.13687 24.7545 5.56877 24.2179 5.56877H22.3333C21.7967 5.56877 21.3648 5.13687 21.3648 4.60028ZM27.0448 4.60028C27.0448 4.06369 27.4767 3.6318 28.0133 3.6318H29.8979C30.4345 3.6318 30.8664 4.06369 30.8664 4.60028C30.8664 5.13687 30.4345 5.56877 29.8979 5.56877H28.0133C27.4767 5.56877 27.0448 5.13687 27.0448 4.60028Z" fill="#001C3F"/>
</g>
</svg>
