<?xml version="1.0" encoding="utf-8"?>
<svg width="60" height="60" viewBox="0 0 60 60" fill="none" xmlns="http://www.w3.org/2000/svg">
<g id="Telemedicine Icon" clip-path="url(#clip0_1408_877)">
<g id="Vector">
<mask id="path-1-outside-1_1408_877" maskUnits="userSpaceOnUse" x="-1" y="-1" width="47" height="62" fill="black">
<rect fill="white" x="-1" y="-1" width="47" height="62"/>
<path d="M44.5616 37.8C44.5616 36.28 44.4416 35.1933 43.8083 34.7867C43.7483 34.7533 43.6883 34.7333 43.6283 34.7C43.8416 34.62 44.0483 34.5267 44.2616 34.4067C44.8016 34.04 45.015 33.1 45.015 31.0667C45.015 29.0333 44.8016 28.0933 44.2283 27.7067C44.0616 27.6133 43.8883 27.5267 43.7216 27.46C43.7216 27.46 43.7283 27.46 43.7283 27.4533C44.2416 27.1067 44.4416 26.2267 44.4416 24.3267C44.4416 22.4267 44.2416 21.5467 43.695 21.18C43.1083 20.84 42.4816 20.6733 41.8283 20.6733C41.315 20.6733 40.8483 20.78 40.435 20.9733V2.98C40.4416 1.34 39.1083 0 37.4616 0H14.2683C12.6216 0 11.2883 1.34 11.2883 2.98V18.1C9.60831 19.9533 7.07498 23.2867 4.55498 28.6533C1.08831 36.04 4.98164 46.6733 5.64164 48.3667L0.0549768 59.2733C-0.0716898 59.52 0.0283101 59.82 0.274977 59.9467C0.34831 59.9867 0.42831 60 0.501644 60C0.681644 60 0.861644 59.9 0.94831 59.7267L6.63498 48.62C6.70164 48.4933 6.70831 48.34 6.65498 48.2C6.60831 48.0867 1.94831 36.5533 5.46164 29.0733C8.86831 21.82 12.375 18.3067 13.4816 17.3067C14.0016 18 14.975 19.6733 14.4216 21.9667C13.5616 25.56 11.5683 27.74 11.5483 27.76C11.5416 27.7667 11.535 27.78 11.5283 27.7867C11.5083 27.8133 11.495 27.8333 11.4816 27.86C11.4683 27.8867 11.4483 27.92 11.4416 27.9467C11.435 27.9733 11.4283 28.0067 11.4216 28.0333C11.4216 28.0533 11.4083 28.0733 11.4083 28.0933V35.1333C11.4083 35.3133 11.5016 35.48 11.6616 35.5667C11.7483 35.6133 20.115 40.64 20.115 55.7C20.115 55.9733 20.3416 56.2 20.615 56.2C20.8883 56.2 21.115 55.9733 21.115 55.7C21.115 55.2533 21.1083 54.82 21.095 54.3867H23.9216L21.6483 59.2867C21.535 59.54 21.6416 59.8333 21.895 59.9533C21.9616 59.9867 22.035 60 22.1016 60C22.2883 60 22.4683 59.8933 22.555 59.7133L25.0216 54.3933H37.455C39.1016 54.3933 40.435 53.0533 40.435 51.4133V47.22C40.7816 47.34 41.155 47.42 41.5683 47.42C42.2083 47.42 42.8283 47.26 43.4416 46.92C44.0416 46.5333 44.1616 45.44 44.1616 43.9267C44.1616 42.4733 44.0416 41.4133 43.4816 40.9733C43.6016 40.92 43.715 40.8667 43.835 40.8067C44.4416 40.4067 44.5616 39.32 44.5616 37.8ZM44.015 31.0667C44.015 33.1333 43.7683 33.5133 43.735 33.56C43.2616 33.8333 42.7616 33.9733 42.2416 33.9733C40.4283 33.9733 39.7883 32.4133 39.7883 31.0733C39.7883 29.7333 40.4283 28.1733 42.2416 28.1733C42.7616 28.1733 43.2616 28.3133 43.695 28.56C43.7683 28.62 44.015 29 44.015 31.0667ZM41.835 21.6733C42.3083 21.6733 42.7683 21.8 43.1616 22.02C43.2283 22.0867 43.4483 22.4467 43.4483 24.3267C43.4483 26.2067 43.2283 26.5667 43.2016 26.6067C42.7683 26.8533 42.3083 26.98 41.835 26.98C40.1816 26.98 39.595 25.5467 39.595 24.3267C39.595 23.1067 40.1816 21.6733 41.835 21.6733ZM15.395 22.2067C16.2483 18.6467 13.9883 16.3467 13.895 16.2533C13.715 16.08 13.435 16.06 13.2416 16.2133C13.195 16.2467 12.8483 16.5267 12.2883 17.06V2.98C12.2883 1.88667 13.175 1 14.2683 1H37.4616C38.555 1 39.4416 1.88667 39.4416 2.98V21.64C39.4416 21.6667 39.455 21.6933 39.4616 21.72C38.915 22.36 38.595 23.2533 38.595 24.3267C38.595 25.36 38.895 26.2267 39.4083 26.86C37.7683 25.9867 35.6816 25.1333 33.915 24.4667C36.5683 22.6933 37.0083 19.4533 35.7816 12.2933C34.6416 5.62667 30.175 2.64 26.255 2.64C22.335 2.64 17.8683 5.62667 16.7283 12.2933C15.5016 19.4867 15.9483 22.72 18.6416 24.4933C17.035 25.1133 15.155 25.8867 13.5616 26.6533C14.2083 25.6 14.9416 24.1 15.395 22.2067ZM26.995 47.0733V47.8333H25.515V47.0733C25.5216 40.88 25.535 30.76 23.7216 26.8467C23.9083 26.72 24.0883 26.6267 24.255 26.58C24.4216 26.54 24.555 26.56 24.6883 26.6333C25.515 27.8 25.7683 28.68 25.775 28.6933C25.835 28.9133 26.0283 29.06 26.255 29.0667C26.4816 29.0667 26.675 28.9133 26.735 28.7C26.7416 28.6867 26.995 27.8067 27.8216 26.64C27.9483 26.5667 28.0883 26.5467 28.255 26.5867C28.4216 26.6267 28.6016 26.72 28.7883 26.8533C26.975 30.76 26.9883 40.88 26.995 47.0733ZM26.255 22.7733C23.1816 22.7733 20.735 19.54 19.9083 16.3467C19.8483 16.1267 19.6883 15.9733 19.4616 15.9733C19.4283 15.9667 18.595 15.84 18.595 14.4933C18.595 13.5867 19.0816 13.0133 19.2483 12.9733C19.4816 12.9267 19.6483 12.7133 19.6483 12.48H19.6683C19.6683 11.9667 19.7083 11.4533 19.795 10.9667C21.6416 10.8267 22.835 9.78667 23.495 8.96667C23.9016 9.95333 24.635 10.74 25.6616 11.2733C27.7483 12.3533 30.795 12.22 32.7816 11.48C32.815 11.8067 32.835 12.14 32.835 12.48H32.8483C32.8483 12.7133 33.015 12.9267 33.2483 12.9733C33.415 13.0067 33.9016 13.5867 33.9016 14.4933C33.9016 15.8467 33.0683 15.9733 33.075 15.9733C32.8483 15.9733 32.6483 16.1267 32.5883 16.3467C31.775 19.54 29.3283 22.7733 26.255 22.7733ZM29.6016 22.6533V23.4C27.7683 24.8067 26.7683 26.2867 26.255 27.2733C25.7416 26.2867 24.7416 24.8067 22.9083 23.4V22.6533C23.9083 23.3467 25.035 23.7733 26.255 23.7733C27.475 23.7733 28.6083 23.3467 29.6016 22.6533ZM23.9016 25.6533C22.9616 25.9467 22.0483 26.98 21.3883 27.8933V24.54C21.795 24.3933 22.115 24.28 22.3216 24.2067C22.9483 24.6933 23.4683 25.18 23.9016 25.6533ZM28.615 25.6533C29.0416 25.18 29.5683 24.6867 30.2016 24.2C30.4083 24.2667 30.7216 24.3733 31.1283 24.52V27.8933C30.475 26.98 29.555 25.9533 28.615 25.6533ZM30.6016 23.2867V21.8267C31.9483 20.52 32.9616 18.7133 33.4883 16.8867C34.055 16.6867 34.915 16.0733 34.915 14.4867C34.915 13.4733 34.4483 12.5267 33.8283 12.1467C33.815 11.6467 33.7683 11.1467 33.6816 10.6667C33.655 10.5133 33.555 10.38 33.415 10.3133C33.275 10.2467 33.1083 10.2467 32.9683 10.3133C31.4883 11.06 28.2883 11.5 26.1283 10.38C25.0216 9.80667 24.3683 8.90667 24.1883 7.69333C24.155 7.47333 23.9816 7.30667 23.7683 7.27333C23.555 7.24 23.335 7.35333 23.2416 7.55333C23.195 7.65333 22.055 9.97333 19.3883 9.97333C19.155 9.97333 18.9483 10.1333 18.9016 10.3667C18.775 10.94 18.715 11.54 18.695 12.1467C18.075 12.52 17.6083 13.4733 17.6083 14.4867C17.6083 16.0733 18.4616 16.6867 19.035 16.8867C19.5616 18.7133 20.575 20.52 21.9216 21.8267V23.2867C21.515 23.4267 20.775 23.6933 19.8616 24.0333C17.295 22.7733 16.335 20.5867 17.7283 12.46C18.7683 6.36667 22.7683 3.64 26.2683 3.64C29.7683 3.64 33.7683 6.36667 34.8083 12.46C36.1883 20.5467 35.2483 22.7467 32.715 24.0133C31.775 23.68 31.0216 23.42 30.6016 23.2867ZM18.735 35.1333C19.495 35.1333 20.115 35.7533 20.115 36.5133C20.115 37.2733 19.495 37.8933 18.735 37.8933C17.975 37.8933 17.355 37.2733 17.355 36.5133C17.355 35.7533 17.975 35.1333 18.735 35.1333ZM12.415 34.8533V28.3867C13.935 27.5067 16.2216 26.5267 18.2416 25.7267V34.18C17.1683 34.4133 16.3616 35.3667 16.3616 36.5067C16.3616 37.82 17.4283 38.8867 18.7416 38.8867C20.055 38.8867 21.1216 37.82 21.1216 36.5067C21.1216 35.3667 20.315 34.4133 19.2416 34.18V25.3333C19.6483 25.18 20.035 25.0333 20.3883 24.9V29.6067C20.3883 29.8333 20.5416 30.0333 20.7616 30.0933C20.8016 30.1067 20.8416 30.1067 20.8883 30.1067C21.0683 30.1067 21.235 30.0067 21.3283 29.8467C21.695 29.18 22.3083 28.2533 22.9483 27.5533C24.5416 31.4267 24.5283 41.4733 24.5216 47.0667V47.8267H20.295C18.355 39.2333 13.5883 35.6267 12.415 34.8533ZM39.4416 51.4067C39.4416 52.5 38.555 53.3867 37.4616 53.3867H21.0483C20.955 51.74 20.7616 50.2267 20.495 48.8333H39.4416V51.4067ZM39.4416 47.8333H27.995V47.0733C27.9883 41.48 27.975 31.4333 29.5683 27.56C30.2083 28.26 30.8216 29.1867 31.1883 29.8533C31.275 30.0133 31.4483 30.1133 31.6283 30.1133C31.6683 30.1133 31.7083 30.1067 31.755 30.1C31.975 30.0467 32.1283 29.8467 32.1283 29.6133V24.8733C32.4816 25 32.855 25.14 33.255 25.2867V29.5867C29.4216 31.52 29.095 34.2533 29.0883 37.88C29.0683 38.0067 29.0883 38.16 29.1816 38.3067C29.375 38.6133 29.7883 38.7533 30.5416 38.7733C30.6683 38.9867 30.8616 39.12 31.0483 39.1467C31.075 39.1533 31.1016 39.1533 31.135 39.1533C31.375 39.1533 31.5883 38.98 31.6283 38.7333C31.6616 38.5267 31.5683 38.3267 31.395 38.2267C31.575 38.12 31.6683 37.9067 31.6216 37.6933C31.5616 37.4267 31.295 37.2533 31.0216 37.3133C30.8216 37.36 30.615 37.52 30.495 37.7733C30.3016 37.7667 30.175 37.7467 30.0883 37.7333C30.1016 34.3467 30.4083 32.1333 33.695 30.4733C36.9816 32.1333 37.295 34.3467 37.3016 37.7333C37.215 37.7467 37.0883 37.7667 36.9016 37.7733C36.7816 37.52 36.575 37.36 36.375 37.3133C36.1016 37.2533 35.835 37.42 35.775 37.6933C35.7283 37.9067 35.8216 38.12 36.0016 38.2267C35.835 38.3333 35.735 38.5267 35.7683 38.7333C35.8083 38.98 36.0216 39.1533 36.2616 39.1533C36.2883 39.1533 36.315 39.1533 36.3483 39.1467C36.535 39.1133 36.7283 38.98 36.855 38.7733C37.6083 38.7533 38.0216 38.6133 38.215 38.3067C38.3083 38.16 38.3283 38.0067 38.3083 37.88C38.3083 34.2867 37.9816 31.5733 34.255 29.6467V25.6667C36.1683 26.4133 38.3083 27.3267 39.7683 28.2067C39.1416 28.8933 38.7816 29.8733 38.7816 31.06C38.7816 32.7067 39.4816 33.96 40.6216 34.5667C39.4616 35.0667 38.7416 36.24 38.7416 37.7933C38.7416 39.1067 39.255 40.1533 40.115 40.7467C39.0283 41.2733 38.355 42.4133 38.355 43.9133C38.355 45.0667 38.7616 46.0067 39.4416 46.62V47.8333ZM42.935 46.0533C42.5016 46.2933 42.0483 46.4133 41.575 46.4133C39.935 46.4133 39.355 45.0667 39.355 43.92C39.355 42.7667 39.935 41.4267 41.575 41.4267C42.0483 41.4267 42.5083 41.5467 42.895 41.76C42.9616 41.82 43.1683 42.1667 43.1683 43.9267C43.1683 45.6733 42.9616 46.02 42.935 46.0533ZM43.3283 39.94C42.895 40.18 42.4416 40.3 41.9683 40.3C40.3283 40.3 39.7483 38.9533 39.7483 37.8067C39.7483 36.6533 40.3283 35.3133 41.9683 35.3133C42.4416 35.3133 42.9016 35.4333 43.2883 35.6467C43.355 35.7067 43.5616 36.0533 43.5616 37.8133C43.5616 39.56 43.3483 39.9 43.3283 39.94Z"/>
</mask>
<path d="M44.5616 37.8C44.5616 36.28 44.4416 35.1933 43.8083 34.7867C43.7483 34.7533 43.6883 34.7333 43.6283 34.7C43.8416 34.62 44.0483 34.5267 44.2616 34.4067C44.8016 34.04 45.015 33.1 45.015 31.0667C45.015 29.0333 44.8016 28.0933 44.2283 27.7067C44.0616 27.6133 43.8883 27.5267 43.7216 27.46C43.7216 27.46 43.7283 27.46 43.7283 27.4533C44.2416 27.1067 44.4416 26.2267 44.4416 24.3267C44.4416 22.4267 44.2416 21.5467 43.695 21.18C43.1083 20.84 42.4816 20.6733 41.8283 20.6733C41.315 20.6733 40.8483 20.78 40.435 20.9733V2.98C40.4416 1.34 39.1083 0 37.4616 0H14.2683C12.6216 0 11.2883 1.34 11.2883 2.98V18.1C9.60831 19.9533 7.07498 23.2867 4.55498 28.6533C1.08831 36.04 4.98164 46.6733 5.64164 48.3667L0.0549768 59.2733C-0.0716898 59.52 0.0283101 59.82 0.274977 59.9467C0.34831 59.9867 0.42831 60 0.501644 60C0.681644 60 0.861644 59.9 0.94831 59.7267L6.63498 48.62C6.70164 48.4933 6.70831 48.34 6.65498 48.2C6.60831 48.0867 1.94831 36.5533 5.46164 29.0733C8.86831 21.82 12.375 18.3067 13.4816 17.3067C14.0016 18 14.975 19.6733 14.4216 21.9667C13.5616 25.56 11.5683 27.74 11.5483 27.76C11.5416 27.7667 11.535 27.78 11.5283 27.7867C11.5083 27.8133 11.495 27.8333 11.4816 27.86C11.4683 27.8867 11.4483 27.92 11.4416 27.9467C11.435 27.9733 11.4283 28.0067 11.4216 28.0333C11.4216 28.0533 11.4083 28.0733 11.4083 28.0933V35.1333C11.4083 35.3133 11.5016 35.48 11.6616 35.5667C11.7483 35.6133 20.115 40.64 20.115 55.7C20.115 55.9733 20.3416 56.2 20.615 56.2C20.8883 56.2 21.115 55.9733 21.115 55.7C21.115 55.2533 21.1083 54.82 21.095 54.3867H23.9216L21.6483 59.2867C21.535 59.54 21.6416 59.8333 21.895 59.9533C21.9616 59.9867 22.035 60 22.1016 60C22.2883 60 22.4683 59.8933 22.555 59.7133L25.0216 54.3933H37.455C39.1016 54.3933 40.435 53.0533 40.435 51.4133V47.22C40.7816 47.34 41.155 47.42 41.5683 47.42C42.2083 47.42 42.8283 47.26 43.4416 46.92C44.0416 46.5333 44.1616 45.44 44.1616 43.9267C44.1616 42.4733 44.0416 41.4133 43.4816 40.9733C43.6016 40.92 43.715 40.8667 43.835 40.8067C44.4416 40.4067 44.5616 39.32 44.5616 37.8ZM44.015 31.0667C44.015 33.1333 43.7683 33.5133 43.735 33.56C43.2616 33.8333 42.7616 33.9733 42.2416 33.9733C40.4283 33.9733 39.7883 32.4133 39.7883 31.0733C39.7883 29.7333 40.4283 28.1733 42.2416 28.1733C42.7616 28.1733 43.2616 28.3133 43.695 28.56C43.7683 28.62 44.015 29 44.015 31.0667ZM41.835 21.6733C42.3083 21.6733 42.7683 21.8 43.1616 22.02C43.2283 22.0867 43.4483 22.4467 43.4483 24.3267C43.4483 26.2067 43.2283 26.5667 43.2016 26.6067C42.7683 26.8533 42.3083 26.98 41.835 26.98C40.1816 26.98 39.595 25.5467 39.595 24.3267C39.595 23.1067 40.1816 21.6733 41.835 21.6733ZM15.395 22.2067C16.2483 18.6467 13.9883 16.3467 13.895 16.2533C13.715 16.08 13.435 16.06 13.2416 16.2133C13.195 16.2467 12.8483 16.5267 12.2883 17.06V2.98C12.2883 1.88667 13.175 1 14.2683 1H37.4616C38.555 1 39.4416 1.88667 39.4416 2.98V21.64C39.4416 21.6667 39.455 21.6933 39.4616 21.72C38.915 22.36 38.595 23.2533 38.595 24.3267C38.595 25.36 38.895 26.2267 39.4083 26.86C37.7683 25.9867 35.6816 25.1333 33.915 24.4667C36.5683 22.6933 37.0083 19.4533 35.7816 12.2933C34.6416 5.62667 30.175 2.64 26.255 2.64C22.335 2.64 17.8683 5.62667 16.7283 12.2933C15.5016 19.4867 15.9483 22.72 18.6416 24.4933C17.035 25.1133 15.155 25.8867 13.5616 26.6533C14.2083 25.6 14.9416 24.1 15.395 22.2067ZM26.995 47.0733V47.8333H25.515V47.0733C25.5216 40.88 25.535 30.76 23.7216 26.8467C23.9083 26.72 24.0883 26.6267 24.255 26.58C24.4216 26.54 24.555 26.56 24.6883 26.6333C25.515 27.8 25.7683 28.68 25.775 28.6933C25.835 28.9133 26.0283 29.06 26.255 29.0667C26.4816 29.0667 26.675 28.9133 26.735 28.7C26.7416 28.6867 26.995 27.8067 27.8216 26.64C27.9483 26.5667 28.0883 26.5467 28.255 26.5867C28.4216 26.6267 28.6016 26.72 28.7883 26.8533C26.975 30.76 26.9883 40.88 26.995 47.0733ZM26.255 22.7733C23.1816 22.7733 20.735 19.54 19.9083 16.3467C19.8483 16.1267 19.6883 15.9733 19.4616 15.9733C19.4283 15.9667 18.595 15.84 18.595 14.4933C18.595 13.5867 19.0816 13.0133 19.2483 12.9733C19.4816 12.9267 19.6483 12.7133 19.6483 12.48H19.6683C19.6683 11.9667 19.7083 11.4533 19.795 10.9667C21.6416 10.8267 22.835 9.78667 23.495 8.96667C23.9016 9.95333 24.635 10.74 25.6616 11.2733C27.7483 12.3533 30.795 12.22 32.7816 11.48C32.815 11.8067 32.835 12.14 32.835 12.48H32.8483C32.8483 12.7133 33.015 12.9267 33.2483 12.9733C33.415 13.0067 33.9016 13.5867 33.9016 14.4933C33.9016 15.8467 33.0683 15.9733 33.075 15.9733C32.8483 15.9733 32.6483 16.1267 32.5883 16.3467C31.775 19.54 29.3283 22.7733 26.255 22.7733ZM29.6016 22.6533V23.4C27.7683 24.8067 26.7683 26.2867 26.255 27.2733C25.7416 26.2867 24.7416 24.8067 22.9083 23.4V22.6533C23.9083 23.3467 25.035 23.7733 26.255 23.7733C27.475 23.7733 28.6083 23.3467 29.6016 22.6533ZM23.9016 25.6533C22.9616 25.9467 22.0483 26.98 21.3883 27.8933V24.54C21.795 24.3933 22.115 24.28 22.3216 24.2067C22.9483 24.6933 23.4683 25.18 23.9016 25.6533ZM28.615 25.6533C29.0416 25.18 29.5683 24.6867 30.2016 24.2C30.4083 24.2667 30.7216 24.3733 31.1283 24.52V27.8933C30.475 26.98 29.555 25.9533 28.615 25.6533ZM30.6016 23.2867V21.8267C31.9483 20.52 32.9616 18.7133 33.4883 16.8867C34.055 16.6867 34.915 16.0733 34.915 14.4867C34.915 13.4733 34.4483 12.5267 33.8283 12.1467C33.815 11.6467 33.7683 11.1467 33.6816 10.6667C33.655 10.5133 33.555 10.38 33.415 10.3133C33.275 10.2467 33.1083 10.2467 32.9683 10.3133C31.4883 11.06 28.2883 11.5 26.1283 10.38C25.0216 9.80667 24.3683 8.90667 24.1883 7.69333C24.155 7.47333 23.9816 7.30667 23.7683 7.27333C23.555 7.24 23.335 7.35333 23.2416 7.55333C23.195 7.65333 22.055 9.97333 19.3883 9.97333C19.155 9.97333 18.9483 10.1333 18.9016 10.3667C18.775 10.94 18.715 11.54 18.695 12.1467C18.075 12.52 17.6083 13.4733 17.6083 14.4867C17.6083 16.0733 18.4616 16.6867 19.035 16.8867C19.5616 18.7133 20.575 20.52 21.9216 21.8267V23.2867C21.515 23.4267 20.775 23.6933 19.8616 24.0333C17.295 22.7733 16.335 20.5867 17.7283 12.46C18.7683 6.36667 22.7683 3.64 26.2683 3.64C29.7683 3.64 33.7683 6.36667 34.8083 12.46C36.1883 20.5467 35.2483 22.7467 32.715 24.0133C31.775 23.68 31.0216 23.42 30.6016 23.2867ZM18.735 35.1333C19.495 35.1333 20.115 35.7533 20.115 36.5133C20.115 37.2733 19.495 37.8933 18.735 37.8933C17.975 37.8933 17.355 37.2733 17.355 36.5133C17.355 35.7533 17.975 35.1333 18.735 35.1333ZM12.415 34.8533V28.3867C13.935 27.5067 16.2216 26.5267 18.2416 25.7267V34.18C17.1683 34.4133 16.3616 35.3667 16.3616 36.5067C16.3616 37.82 17.4283 38.8867 18.7416 38.8867C20.055 38.8867 21.1216 37.82 21.1216 36.5067C21.1216 35.3667 20.315 34.4133 19.2416 34.18V25.3333C19.6483 25.18 20.035 25.0333 20.3883 24.9V29.6067C20.3883 29.8333 20.5416 30.0333 20.7616 30.0933C20.8016 30.1067 20.8416 30.1067 20.8883 30.1067C21.0683 30.1067 21.235 30.0067 21.3283 29.8467C21.695 29.18 22.3083 28.2533 22.9483 27.5533C24.5416 31.4267 24.5283 41.4733 24.5216 47.0667V47.8267H20.295C18.355 39.2333 13.5883 35.6267 12.415 34.8533ZM39.4416 51.4067C39.4416 52.5 38.555 53.3867 37.4616 53.3867H21.0483C20.955 51.74 20.7616 50.2267 20.495 48.8333H39.4416V51.4067ZM39.4416 47.8333H27.995V47.0733C27.9883 41.48 27.975 31.4333 29.5683 27.56C30.2083 28.26 30.8216 29.1867 31.1883 29.8533C31.275 30.0133 31.4483 30.1133 31.6283 30.1133C31.6683 30.1133 31.7083 30.1067 31.755 30.1C31.975 30.0467 32.1283 29.8467 32.1283 29.6133V24.8733C32.4816 25 32.855 25.14 33.255 25.2867V29.5867C29.4216 31.52 29.095 34.2533 29.0883 37.88C29.0683 38.0067 29.0883 38.16 29.1816 38.3067C29.375 38.6133 29.7883 38.7533 30.5416 38.7733C30.6683 38.9867 30.8616 39.12 31.0483 39.1467C31.075 39.1533 31.1016 39.1533 31.135 39.1533C31.375 39.1533 31.5883 38.98 31.6283 38.7333C31.6616 38.5267 31.5683 38.3267 31.395 38.2267C31.575 38.12 31.6683 37.9067 31.6216 37.6933C31.5616 37.4267 31.295 37.2533 31.0216 37.3133C30.8216 37.36 30.615 37.52 30.495 37.7733C30.3016 37.7667 30.175 37.7467 30.0883 37.7333C30.1016 34.3467 30.4083 32.1333 33.695 30.4733C36.9816 32.1333 37.295 34.3467 37.3016 37.7333C37.215 37.7467 37.0883 37.7667 36.9016 37.7733C36.7816 37.52 36.575 37.36 36.375 37.3133C36.1016 37.2533 35.835 37.42 35.775 37.6933C35.7283 37.9067 35.8216 38.12 36.0016 38.2267C35.835 38.3333 35.735 38.5267 35.7683 38.7333C35.8083 38.98 36.0216 39.1533 36.2616 39.1533C36.2883 39.1533 36.315 39.1533 36.3483 39.1467C36.535 39.1133 36.7283 38.98 36.855 38.7733C37.6083 38.7533 38.0216 38.6133 38.215 38.3067C38.3083 38.16 38.3283 38.0067 38.3083 37.88C38.3083 34.2867 37.9816 31.5733 34.255 29.6467V25.6667C36.1683 26.4133 38.3083 27.3267 39.7683 28.2067C39.1416 28.8933 38.7816 29.8733 38.7816 31.06C38.7816 32.7067 39.4816 33.96 40.6216 34.5667C39.4616 35.0667 38.7416 36.24 38.7416 37.7933C38.7416 39.1067 39.255 40.1533 40.115 40.7467C39.0283 41.2733 38.355 42.4133 38.355 43.9133C38.355 45.0667 38.7616 46.0067 39.4416 46.62V47.8333ZM42.935 46.0533C42.5016 46.2933 42.0483 46.4133 41.575 46.4133C39.935 46.4133 39.355 45.0667 39.355 43.92C39.355 42.7667 39.935 41.4267 41.575 41.4267C42.0483 41.4267 42.5083 41.5467 42.895 41.76C42.9616 41.82 43.1683 42.1667 43.1683 43.9267C43.1683 45.6733 42.9616 46.02 42.935 46.0533ZM43.3283 39.94C42.895 40.18 42.4416 40.3 41.9683 40.3C40.3283 40.3 39.7483 38.9533 39.7483 37.8067C39.7483 36.6533 40.3283 35.3133 41.9683 35.3133C42.4416 35.3133 42.9016 35.4333 43.2883 35.6467C43.355 35.7067 43.5616 36.0533 43.5616 37.8133C43.5616 39.56 43.3483 39.9 43.3283 39.94Z" fill="#001C3F"/>
<path d="M44.5616 37.8C44.5616 36.28 44.4416 35.1933 43.8083 34.7867C43.7483 34.7533 43.6883 34.7333 43.6283 34.7C43.8416 34.62 44.0483 34.5267 44.2616 34.4067C44.8016 34.04 45.015 33.1 45.015 31.0667C45.015 29.0333 44.8016 28.0933 44.2283 27.7067C44.0616 27.6133 43.8883 27.5267 43.7216 27.46C43.7216 27.46 43.7283 27.46 43.7283 27.4533C44.2416 27.1067 44.4416 26.2267 44.4416 24.3267C44.4416 22.4267 44.2416 21.5467 43.695 21.18C43.1083 20.84 42.4816 20.6733 41.8283 20.6733C41.315 20.6733 40.8483 20.78 40.435 20.9733V2.98C40.4416 1.34 39.1083 0 37.4616 0H14.2683C12.6216 0 11.2883 1.34 11.2883 2.98V18.1C9.60831 19.9533 7.07498 23.2867 4.55498 28.6533C1.08831 36.04 4.98164 46.6733 5.64164 48.3667L0.0549768 59.2733C-0.0716898 59.52 0.0283101 59.82 0.274977 59.9467C0.34831 59.9867 0.42831 60 0.501644 60C0.681644 60 0.861644 59.9 0.94831 59.7267L6.63498 48.62C6.70164 48.4933 6.70831 48.34 6.65498 48.2C6.60831 48.0867 1.94831 36.5533 5.46164 29.0733C8.86831 21.82 12.375 18.3067 13.4816 17.3067C14.0016 18 14.975 19.6733 14.4216 21.9667C13.5616 25.56 11.5683 27.74 11.5483 27.76C11.5416 27.7667 11.535 27.78 11.5283 27.7867C11.5083 27.8133 11.495 27.8333 11.4816 27.86C11.4683 27.8867 11.4483 27.92 11.4416 27.9467C11.435 27.9733 11.4283 28.0067 11.4216 28.0333C11.4216 28.0533 11.4083 28.0733 11.4083 28.0933V35.1333C11.4083 35.3133 11.5016 35.48 11.6616 35.5667C11.7483 35.6133 20.115 40.64 20.115 55.7C20.115 55.9733 20.3416 56.2 20.615 56.2C20.8883 56.2 21.115 55.9733 21.115 55.7C21.115 55.2533 21.1083 54.82 21.095 54.3867H23.9216L21.6483 59.2867C21.535 59.54 21.6416 59.8333 21.895 59.9533C21.9616 59.9867 22.035 60 22.1016 60C22.2883 60 22.4683 59.8933 22.555 59.7133L25.0216 54.3933H37.455C39.1016 54.3933 40.435 53.0533 40.435 51.4133V47.22C40.7816 47.34 41.155 47.42 41.5683 47.42C42.2083 47.42 42.8283 47.26 43.4416 46.92C44.0416 46.5333 44.1616 45.44 44.1616 43.9267C44.1616 42.4733 44.0416 41.4133 43.4816 40.9733C43.6016 40.92 43.715 40.8667 43.835 40.8067C44.4416 40.4067 44.5616 39.32 44.5616 37.8ZM44.015 31.0667C44.015 33.1333 43.7683 33.5133 43.735 33.56C43.2616 33.8333 42.7616 33.9733 42.2416 33.9733C40.4283 33.9733 39.7883 32.4133 39.7883 31.0733C39.7883 29.7333 40.4283 28.1733 42.2416 28.1733C42.7616 28.1733 43.2616 28.3133 43.695 28.56C43.7683 28.62 44.015 29 44.015 31.0667ZM41.835 21.6733C42.3083 21.6733 42.7683 21.8 43.1616 22.02C43.2283 22.0867 43.4483 22.4467 43.4483 24.3267C43.4483 26.2067 43.2283 26.5667 43.2016 26.6067C42.7683 26.8533 42.3083 26.98 41.835 26.98C40.1816 26.98 39.595 25.5467 39.595 24.3267C39.595 23.1067 40.1816 21.6733 41.835 21.6733ZM15.395 22.2067C16.2483 18.6467 13.9883 16.3467 13.895 16.2533C13.715 16.08 13.435 16.06 13.2416 16.2133C13.195 16.2467 12.8483 16.5267 12.2883 17.06V2.98C12.2883 1.88667 13.175 1 14.2683 1H37.4616C38.555 1 39.4416 1.88667 39.4416 2.98V21.64C39.4416 21.6667 39.455 21.6933 39.4616 21.72C38.915 22.36 38.595 23.2533 38.595 24.3267C38.595 25.36 38.895 26.2267 39.4083 26.86C37.7683 25.9867 35.6816 25.1333 33.915 24.4667C36.5683 22.6933 37.0083 19.4533 35.7816 12.2933C34.6416 5.62667 30.175 2.64 26.255 2.64C22.335 2.64 17.8683 5.62667 16.7283 12.2933C15.5016 19.4867 15.9483 22.72 18.6416 24.4933C17.035 25.1133 15.155 25.8867 13.5616 26.6533C14.2083 25.6 14.9416 24.1 15.395 22.2067ZM26.995 47.0733V47.8333H25.515V47.0733C25.5216 40.88 25.535 30.76 23.7216 26.8467C23.9083 26.72 24.0883 26.6267 24.255 26.58C24.4216 26.54 24.555 26.56 24.6883 26.6333C25.515 27.8 25.7683 28.68 25.775 28.6933C25.835 28.9133 26.0283 29.06 26.255 29.0667C26.4816 29.0667 26.675 28.9133 26.735 28.7C26.7416 28.6867 26.995 27.8067 27.8216 26.64C27.9483 26.5667 28.0883 26.5467 28.255 26.5867C28.4216 26.6267 28.6016 26.72 28.7883 26.8533C26.975 30.76 26.9883 40.88 26.995 47.0733ZM26.255 22.7733C23.1816 22.7733 20.735 19.54 19.9083 16.3467C19.8483 16.1267 19.6883 15.9733 19.4616 15.9733C19.4283 15.9667 18.595 15.84 18.595 14.4933C18.595 13.5867 19.0816 13.0133 19.2483 12.9733C19.4816 12.9267 19.6483 12.7133 19.6483 12.48H19.6683C19.6683 11.9667 19.7083 11.4533 19.795 10.9667C21.6416 10.8267 22.835 9.78667 23.495 8.96667C23.9016 9.95333 24.635 10.74 25.6616 11.2733C27.7483 12.3533 30.795 12.22 32.7816 11.48C32.815 11.8067 32.835 12.14 32.835 12.48H32.8483C32.8483 12.7133 33.015 12.9267 33.2483 12.9733C33.415 13.0067 33.9016 13.5867 33.9016 14.4933C33.9016 15.8467 33.0683 15.9733 33.075 15.9733C32.8483 15.9733 32.6483 16.1267 32.5883 16.3467C31.775 19.54 29.3283 22.7733 26.255 22.7733ZM29.6016 22.6533V23.4C27.7683 24.8067 26.7683 26.2867 26.255 27.2733C25.7416 26.2867 24.7416 24.8067 22.9083 23.4V22.6533C23.9083 23.3467 25.035 23.7733 26.255 23.7733C27.475 23.7733 28.6083 23.3467 29.6016 22.6533ZM23.9016 25.6533C22.9616 25.9467 22.0483 26.98 21.3883 27.8933V24.54C21.795 24.3933 22.115 24.28 22.3216 24.2067C22.9483 24.6933 23.4683 25.18 23.9016 25.6533ZM28.615 25.6533C29.0416 25.18 29.5683 24.6867 30.2016 24.2C30.4083 24.2667 30.7216 24.3733 31.1283 24.52V27.8933C30.475 26.98 29.555 25.9533 28.615 25.6533ZM30.6016 23.2867V21.8267C31.9483 20.52 32.9616 18.7133 33.4883 16.8867C34.055 16.6867 34.915 16.0733 34.915 14.4867C34.915 13.4733 34.4483 12.5267 33.8283 12.1467C33.815 11.6467 33.7683 11.1467 33.6816 10.6667C33.655 10.5133 33.555 10.38 33.415 10.3133C33.275 10.2467 33.1083 10.2467 32.9683 10.3133C31.4883 11.06 28.2883 11.5 26.1283 10.38C25.0216 9.80667 24.3683 8.90667 24.1883 7.69333C24.155 7.47333 23.9816 7.30667 23.7683 7.27333C23.555 7.24 23.335 7.35333 23.2416 7.55333C23.195 7.65333 22.055 9.97333 19.3883 9.97333C19.155 9.97333 18.9483 10.1333 18.9016 10.3667C18.775 10.94 18.715 11.54 18.695 12.1467C18.075 12.52 17.6083 13.4733 17.6083 14.4867C17.6083 16.0733 18.4616 16.6867 19.035 16.8867C19.5616 18.7133 20.575 20.52 21.9216 21.8267V23.2867C21.515 23.4267 20.775 23.6933 19.8616 24.0333C17.295 22.7733 16.335 20.5867 17.7283 12.46C18.7683 6.36667 22.7683 3.64 26.2683 3.64C29.7683 3.64 33.7683 6.36667 34.8083 12.46C36.1883 20.5467 35.2483 22.7467 32.715 24.0133C31.775 23.68 31.0216 23.42 30.6016 23.2867ZM18.735 35.1333C19.495 35.1333 20.115 35.7533 20.115 36.5133C20.115 37.2733 19.495 37.8933 18.735 37.8933C17.975 37.8933 17.355 37.2733 17.355 36.5133C17.355 35.7533 17.975 35.1333 18.735 35.1333ZM12.415 34.8533V28.3867C13.935 27.5067 16.2216 26.5267 18.2416 25.7267V34.18C17.1683 34.4133 16.3616 35.3667 16.3616 36.5067C16.3616 37.82 17.4283 38.8867 18.7416 38.8867C20.055 38.8867 21.1216 37.82 21.1216 36.5067C21.1216 35.3667 20.315 34.4133 19.2416 34.18V25.3333C19.6483 25.18 20.035 25.0333 20.3883 24.9V29.6067C20.3883 29.8333 20.5416 30.0333 20.7616 30.0933C20.8016 30.1067 20.8416 30.1067 20.8883 30.1067C21.0683 30.1067 21.235 30.0067 21.3283 29.8467C21.695 29.18 22.3083 28.2533 22.9483 27.5533C24.5416 31.4267 24.5283 41.4733 24.5216 47.0667V47.8267H20.295C18.355 39.2333 13.5883 35.6267 12.415 34.8533ZM39.4416 51.4067C39.4416 52.5 38.555 53.3867 37.4616 53.3867H21.0483C20.955 51.74 20.7616 50.2267 20.495 48.8333H39.4416V51.4067ZM39.4416 47.8333H27.995V47.0733C27.9883 41.48 27.975 31.4333 29.5683 27.56C30.2083 28.26 30.8216 29.1867 31.1883 29.8533C31.275 30.0133 31.4483 30.1133 31.6283 30.1133C31.6683 30.1133 31.7083 30.1067 31.755 30.1C31.975 30.0467 32.1283 29.8467 32.1283 29.6133V24.8733C32.4816 25 32.855 25.14 33.255 25.2867V29.5867C29.4216 31.52 29.095 34.2533 29.0883 37.88C29.0683 38.0067 29.0883 38.16 29.1816 38.3067C29.375 38.6133 29.7883 38.7533 30.5416 38.7733C30.6683 38.9867 30.8616 39.12 31.0483 39.1467C31.075 39.1533 31.1016 39.1533 31.135 39.1533C31.375 39.1533 31.5883 38.98 31.6283 38.7333C31.6616 38.5267 31.5683 38.3267 31.395 38.2267C31.575 38.12 31.6683 37.9067 31.6216 37.6933C31.5616 37.4267 31.295 37.2533 31.0216 37.3133C30.8216 37.36 30.615 37.52 30.495 37.7733C30.3016 37.7667 30.175 37.7467 30.0883 37.7333C30.1016 34.3467 30.4083 32.1333 33.695 30.4733C36.9816 32.1333 37.295 34.3467 37.3016 37.7333C37.215 37.7467 37.0883 37.7667 36.9016 37.7733C36.7816 37.52 36.575 37.36 36.375 37.3133C36.1016 37.2533 35.835 37.42 35.775 37.6933C35.7283 37.9067 35.8216 38.12 36.0016 38.2267C35.835 38.3333 35.735 38.5267 35.7683 38.7333C35.8083 38.98 36.0216 39.1533 36.2616 39.1533C36.2883 39.1533 36.315 39.1533 36.3483 39.1467C36.535 39.1133 36.7283 38.98 36.855 38.7733C37.6083 38.7533 38.0216 38.6133 38.215 38.3067C38.3083 38.16 38.3283 38.0067 38.3083 37.88C38.3083 34.2867 37.9816 31.5733 34.255 29.6467V25.6667C36.1683 26.4133 38.3083 27.3267 39.7683 28.2067C39.1416 28.8933 38.7816 29.8733 38.7816 31.06C38.7816 32.7067 39.4816 33.96 40.6216 34.5667C39.4616 35.0667 38.7416 36.24 38.7416 37.7933C38.7416 39.1067 39.255 40.1533 40.115 40.7467C39.0283 41.2733 38.355 42.4133 38.355 43.9133C38.355 45.0667 38.7616 46.0067 39.4416 46.62V47.8333ZM42.935 46.0533C42.5016 46.2933 42.0483 46.4133 41.575 46.4133C39.935 46.4133 39.355 45.0667 39.355 43.92C39.355 42.7667 39.935 41.4267 41.575 41.4267C42.0483 41.4267 42.5083 41.5467 42.895 41.76C42.9616 41.82 43.1683 42.1667 43.1683 43.9267C43.1683 45.6733 42.9616 46.02 42.935 46.0533ZM43.3283 39.94C42.895 40.18 42.4416 40.3 41.9683 40.3C40.3283 40.3 39.7483 38.9533 39.7483 37.8067C39.7483 36.6533 40.3283 35.3133 41.9683 35.3133C42.4416 35.3133 42.9016 35.4333 43.2883 35.6467C43.355 35.7067 43.5616 36.0533 43.5616 37.8133C43.5616 39.56 43.3483 39.9 43.3283 39.94Z" stroke="#001C3F" stroke-width="0.4" mask="url(#path-1-outside-1_1408_877)"/>
</g>
</g>
<defs>
<clipPath id="clip0_1408_877">
<rect width="60" height="60" fill="white"/>
</clipPath>
</defs>
</svg>
