<?xml version="1.0" encoding="utf-8"?>
<svg width="60" height="60" viewBox="0 0 60 60" fill="none" xmlns="http://www.w3.org/2000/svg">
<g id="E-commerce Icons" clip-path="url(#clip0_1408_899)">
<g id="Shopping Credit Card">
<path id="Vector" d="M50.625 41.25C48.7708 41.25 46.9582 41.7998 45.4165 42.83C43.8748 43.8601 42.6732 45.3243 41.9636 47.0373C41.2541 48.7504 41.0684 50.6354 41.4301 52.454C41.7919 54.2725 42.6847 55.943 43.9959 57.2541C45.307 58.5652 46.9774 59.4581 48.796 59.8199C50.6146 60.1816 52.4996 59.9959 54.2127 59.2864C55.9257 58.5768 57.3899 57.3752 58.42 55.8335C59.4502 54.2918 60 52.4792 60 50.625C59.9972 48.1395 59.0085 45.7565 57.251 43.999C55.4934 42.2415 53.1105 41.2528 50.625 41.25ZM50.625 58.125C49.1416 58.125 47.6916 57.6851 46.4582 56.861C45.2248 56.0369 44.2636 54.8656 43.6959 53.4951C43.1282 52.1247 42.9797 50.6167 43.2691 49.1618C43.5585 47.707 44.2728 46.3706 45.3217 45.3217C46.3706 44.2728 47.707 43.5585 49.1618 43.2691C50.6167 42.9797 52.1247 43.1282 53.4951 43.6959C54.8656 44.2636 56.0369 45.2248 56.861 46.4582C57.6851 47.6916 58.125 49.1416 58.125 50.625C58.1227 52.6134 57.3318 54.5198 55.9258 55.9258C54.5198 57.3318 52.6134 58.1227 50.625 58.125ZM55.0378 47.6184C55.1249 47.7055 55.194 47.8088 55.2411 47.9225C55.2882 48.0363 55.3125 48.1582 55.3125 48.2813C55.3125 48.4044 55.2882 48.5263 55.2411 48.64C55.194 48.7538 55.1249 48.8571 55.0378 48.9441L50.3503 53.6316C50.2633 53.7187 50.1599 53.7878 50.0462 53.8349C49.9325 53.882 49.8106 53.9063 49.6875 53.9063C49.5644 53.9063 49.4425 53.882 49.3287 53.8349C49.215 53.7878 49.1117 53.7187 49.0246 53.6316L46.2121 50.8191C46.1251 50.7321 46.056 50.6287 46.0089 50.515C45.9618 50.4013 45.9376 50.2794 45.9376 50.1563C45.9376 50.0332 45.9618 49.9113 46.0089 49.7975C46.056 49.6838 46.1251 49.5805 46.2121 49.4934C46.2992 49.4064 46.4025 49.3373 46.5162 49.2902C46.63 49.2431 46.7519 49.2189 46.875 49.2189C46.9981 49.2189 47.12 49.2431 47.2337 49.2902C47.3474 49.3373 47.4508 49.4064 47.5378 49.4934L49.6875 51.6431L53.7122 47.6184C53.7992 47.5313 53.9025 47.4622 54.0163 47.4151C54.13 47.368 54.2519 47.3438 54.375 47.3438C54.4981 47.3438 54.62 47.368 54.7337 47.4152C54.8475 47.4623 54.9508 47.5314 55.0378 47.6184ZM38.4375 49.6875H15C14.2543 49.6867 13.5394 49.3901 13.0122 48.8628C12.4849 48.3356 12.1883 47.6207 12.1875 46.875V36.5625H49.6875V38.4375C49.6875 38.6861 49.7863 38.9246 49.9621 39.1004C50.1379 39.2762 50.3764 39.375 50.625 39.375C50.8736 39.375 51.1121 39.2762 51.2879 39.1004C51.4637 38.9246 51.5625 38.6861 51.5625 38.4375V30C51.561 28.7572 51.0667 27.5658 50.1879 26.687C49.3092 25.8083 48.1177 25.314 46.875 25.3125H15C13.7572 25.314 12.5658 25.8083 11.687 26.687C10.8083 27.5658 10.314 28.7572 10.3125 30V46.875C10.314 48.1177 10.8083 49.3092 11.687 50.1879C12.5658 51.0667 13.7572 51.561 15 51.5625H38.4375C38.6861 51.5625 38.9246 51.4637 39.1004 51.2879C39.2762 51.1121 39.375 50.8736 39.375 50.625C39.375 50.3764 39.2762 50.1379 39.1004 49.9621C38.9246 49.7863 38.6861 49.6875 38.4375 49.6875ZM12.1875 34.6875V31.875H49.6875V34.6875H12.1875ZM15 27.1875H46.875C47.6207 27.1883 48.3356 27.4849 48.8628 28.0122C49.3901 28.5394 49.6867 29.2543 49.6875 30H12.1875C12.1883 29.2543 12.4849 28.5394 13.0122 28.0122C13.5394 27.4849 14.2543 27.1883 15 27.1875ZM8.4375 49.6875H5.625C4.63076 49.6864 3.67755 49.291 2.97452 48.588C2.27149 47.8849 1.87606 46.9317 1.875 45.9375V13.125C1.87525 12.8764 1.9741 12.6381 2.14986 12.4624C2.32562 12.2866 2.56394 12.1877 2.8125 12.1875H32.8125C33.0611 12.1877 33.2994 12.2866 33.4751 12.4624C33.6509 12.6381 33.7497 12.8764 33.75 13.125V22.5C33.75 22.7486 33.8488 22.9871 34.0246 23.1629C34.2004 23.3387 34.4389 23.4375 34.6875 23.4375C34.9361 23.4375 35.1746 23.3387 35.3504 23.1629C35.5262 22.9871 35.625 22.7486 35.625 22.5V13.125C35.6242 12.3793 35.3276 11.6644 34.8003 11.1372C34.2731 10.6099 33.5582 10.3133 32.8125 10.3125H25.3125V7.5C25.3125 5.51088 24.5223 3.60322 23.1158 2.1967C21.7093 0.790176 19.8016 0 17.8125 0C15.8234 0 13.9157 0.790176 12.5092 2.1967C11.1027 3.60322 10.3125 5.51088 10.3125 7.5V10.3125H2.8125C2.06683 10.3133 1.35193 10.6099 0.824661 11.1372C0.297391 11.6644 0.000813933 12.3793 0 13.125L0 45.9375C0.00163034 47.4288 0.594786 48.8586 1.64932 49.9132C2.70386 50.9677 4.13366 51.5609 5.625 51.5625H8.4375C8.68614 51.5625 8.9246 51.4637 9.10041 51.2879C9.27623 51.1121 9.375 50.8736 9.375 50.625C9.375 50.3764 9.27623 50.1379 9.10041 49.9621C8.9246 49.7863 8.68614 49.6875 8.4375 49.6875ZM12.1875 7.5C12.1875 6.00816 12.7801 4.57742 13.835 3.52252C14.8899 2.46763 16.3207 1.875 17.8125 1.875C19.3043 1.875 20.7351 2.46763 21.79 3.52252C22.8449 4.57742 23.4375 6.00816 23.4375 7.5V10.3125H12.1875V7.5ZM12.1875 15V15.9375C12.1875 17.4293 12.7801 18.8601 13.835 19.915C14.8899 20.9699 16.3207 21.5625 17.8125 21.5625C19.3043 21.5625 20.7351 20.9699 21.79 19.915C22.8449 18.8601 23.4375 17.4293 23.4375 15.9375V15C23.4375 14.7514 23.5363 14.5129 23.7121 14.3371C23.8879 14.1613 24.1264 14.0625 24.375 14.0625C24.6236 14.0625 24.8621 14.1613 25.0379 14.3371C25.2137 14.5129 25.3125 14.7514 25.3125 15V15.9375C25.3125 17.9266 24.5223 19.8343 23.1158 21.2408C21.7093 22.6473 19.8016 23.4375 17.8125 23.4375C15.8234 23.4375 13.9157 22.6473 12.5092 21.2408C11.1027 19.8343 10.3125 17.9266 10.3125 15.9375V15C10.3125 14.7514 10.4113 14.5129 10.5871 14.3371C10.7629 14.1613 11.0014 14.0625 11.25 14.0625C11.4986 14.0625 11.7371 14.1613 11.9129 14.3371C12.0887 14.5129 12.1875 14.7514 12.1875 15ZM14.0625 46.875C14.0625 46.7519 14.0867 46.6299 14.1338 46.5162C14.1809 46.4024 14.25 46.2991 14.337 46.212C14.4241 46.1249 14.5274 46.0559 14.6412 46.0088C14.755 45.9617 14.8769 45.9375 15 45.9375H30.9375C31.1861 45.9375 31.4246 46.0363 31.6004 46.2121C31.7762 46.3879 31.875 46.6264 31.875 46.875C31.875 47.1236 31.7762 47.3621 31.6004 47.5379C31.4246 47.7137 31.1861 47.8125 30.9375 47.8125H15C14.8769 47.8125 14.755 47.7883 14.6412 47.7412C14.5274 47.6941 14.4241 47.625 14.337 47.538C14.25 47.4509 14.1809 47.3476 14.1338 47.2338C14.0867 47.12 14.0625 46.9981 14.0625 46.875ZM14.0625 44.0625C14.0625 43.9394 14.0867 43.8174 14.1338 43.7037C14.1809 43.5899 14.25 43.4866 14.337 43.3995C14.4241 43.3124 14.5274 43.2434 14.6412 43.1963C14.755 43.1492 14.8769 43.125 15 43.125H16.875C17.1236 43.125 17.3621 43.2238 17.5379 43.3996C17.7137 43.5754 17.8125 43.8139 17.8125 44.0625C17.8125 44.3111 17.7137 44.5496 17.5379 44.7254C17.3621 44.9012 17.1236 45 16.875 45H15C14.8769 45 14.755 44.9758 14.6412 44.9287C14.5274 44.8816 14.4241 44.8125 14.337 44.7255C14.25 44.6384 14.1809 44.5351 14.1338 44.4213C14.0867 44.3075 14.0625 44.1856 14.0625 44.0625ZM19.6875 45C19.4389 45 19.2004 44.9012 19.0246 44.7254C18.8488 44.5496 18.75 44.3111 18.75 44.0625C18.75 43.8139 18.8488 43.5754 19.0246 43.3996C19.2004 43.2238 19.4389 43.125 19.6875 43.125H21.5625C21.8111 43.125 22.0496 43.2238 22.2254 43.3996C22.4012 43.5754 22.5 43.8139 22.5 44.0625C22.5 44.3111 22.4012 44.5496 22.2254 44.7254C22.0496 44.9012 21.8111 45 21.5625 45H19.6875ZM24.375 45C24.1264 45 23.8879 44.9012 23.7121 44.7254C23.5363 44.5496 23.4375 44.3111 23.4375 44.0625C23.4375 43.8139 23.5363 43.5754 23.7121 43.3996C23.8879 43.2238 24.1264 43.125 24.375 43.125H26.25C26.4986 43.125 26.7371 43.2238 26.9129 43.3996C27.0887 43.5754 27.1875 43.8139 27.1875 44.0625C27.1875 44.3111 27.0887 44.5496 26.9129 44.7254C26.7371 44.9012 26.4986 45 26.25 45H24.375ZM31.875 44.0625C31.875 44.1856 31.8508 44.3075 31.8037 44.4213C31.7566 44.5351 31.6875 44.6384 31.6005 44.7255C31.5134 44.8125 31.4101 44.8816 31.2963 44.9287C31.1825 44.9758 31.0606 45 30.9375 45H29.0625C28.8139 45 28.5754 44.9012 28.3996 44.7254C28.2238 44.5496 28.125 44.3111 28.125 44.0625C28.125 43.8139 28.2238 43.5754 28.3996 43.3996C28.5754 43.2238 28.8139 43.125 29.0625 43.125H30.9375C31.0606 43.125 31.1825 43.1492 31.2963 43.1963C31.4101 43.2434 31.5134 43.3124 31.6005 43.3995C31.6875 43.4866 31.7566 43.5899 31.8037 43.7037C31.8508 43.8174 31.875 43.9394 31.875 44.0625Z" fill="#001C3F"/>
</g>
</g>
<defs>
<clipPath id="clip0_1408_899">
<rect width="60" height="60" fill="white"/>
</clipPath>
</defs>
</svg>
