<?xml version="1.0" encoding="utf-8"?>
<svg width="60" height="60" viewBox="0 0 60 60" fill="none" xmlns="http://www.w3.org/2000/svg">
<g id="Fintech Icons" clip-path="url(#clip0_1408_881)">
<path id="Vector" fill-rule="evenodd" clip-rule="evenodd" d="M21.0999 4.2553C20.8079 4.25528 20.5249 4.35653 20.2991 4.5418C20.0734 4.72706 19.9189 4.98488 19.8619 5.2713C19.805 5.55773 19.8491 5.85505 19.9868 6.11259C20.1244 6.37013 20.3472 6.57196 20.617 6.68368C20.8868 6.7954 21.187 6.8101 21.4665 6.72528C21.7459 6.64045 21.9873 6.46135 22.1495 6.21849C22.3117 5.97563 22.3847 5.68404 22.3559 5.39342C22.3272 5.1028 22.1986 4.83112 21.9921 4.62469C21.875 4.50746 21.7359 4.41449 21.5828 4.35111C21.4297 4.28772 21.2656 4.25516 21.0999 4.2553ZM30 21.6133C31.9403 21.6134 33.8206 22.2861 35.3204 23.517C36.8203 24.748 37.847 26.4608 38.2255 28.3639C38.604 30.2669 38.311 32.2423 37.3963 33.9534C36.4817 35.6646 35.002 37.0057 33.2094 37.7483C31.4168 38.4908 29.4222 38.5888 27.5655 38.0255C25.7087 37.4623 24.1047 36.2727 23.0267 34.6594C21.9488 33.0461 21.4635 31.1089 21.6537 29.178C21.8439 27.247 22.6977 25.4417 24.0697 24.0697C24.8485 23.291 25.773 22.6732 26.7906 22.2517C27.8081 21.8303 28.8986 21.6133 30 21.6133ZM36.9804 30C36.9804 28.6194 36.571 27.2698 35.804 26.1219C35.037 24.974 33.9468 24.0793 32.6713 23.5509C31.3958 23.0226 29.9923 22.8844 28.6382 23.1537C27.2841 23.423 26.0403 24.0879 25.0641 25.0641C24.0879 26.0403 23.423 27.2841 23.1537 28.6382C22.8844 29.9923 23.0226 31.3958 23.5509 32.6713C24.0793 33.9468 24.974 35.037 26.1219 35.804C27.2698 36.571 28.6194 36.9804 30 36.9804C31.8513 36.9804 33.6268 36.245 34.9359 34.9359C36.245 33.6268 36.9804 31.8513 36.9804 30ZM29.3079 24.1057C28.5603 24.2644 27.89 24.6751 27.409 25.269C26.9281 25.8629 26.6658 26.604 26.6661 27.3683C26.6661 29.9287 28.2524 30.306 29.8386 30.6841C30.8835 30.9328 31.929 31.1815 31.929 32.6317C31.929 33.1432 31.7258 33.6336 31.3642 33.9953C31.0026 34.3569 30.5121 34.56 30.0007 34.56C29.4892 34.56 28.9988 34.3569 28.6371 33.9953C28.2755 33.6336 28.0724 33.1432 28.0724 32.6317C28.0753 32.5376 28.0592 32.4438 28.0252 32.356C27.9912 32.2681 27.9398 32.188 27.8743 32.1204C27.8087 32.0528 27.7302 31.999 27.6434 31.9623C27.5567 31.9256 27.4635 31.9066 27.3693 31.9066C27.2751 31.9066 27.1818 31.9256 27.0951 31.9623C27.0083 31.999 26.9298 32.0528 26.8642 32.1204C26.7987 32.188 26.7473 32.2681 26.7133 32.356C26.6793 32.4438 26.6632 32.5376 26.6661 32.6317C26.6659 33.396 26.9282 34.1372 27.4093 34.7312C27.8903 35.3251 28.5609 35.7357 29.3086 35.8943C29.338 36.0563 29.4234 36.203 29.5499 36.3085C29.6764 36.4141 29.8359 36.4719 30.0007 36.4719C30.1654 36.4719 30.3249 36.4141 30.4514 36.3085C30.5779 36.203 30.6633 36.0563 30.6928 35.8943C31.4402 35.7355 32.1104 35.3247 32.5912 34.7308C33.072 34.1369 33.3342 33.3959 33.3339 32.6317C33.3339 30.0713 31.7476 29.6939 30.1614 29.3159C29.1165 29.0672 28.071 28.8185 28.071 27.3683C28.071 26.8568 28.2742 26.3664 28.6358 26.0047C28.9974 25.6431 29.4879 25.4399 29.9993 25.4399C30.5107 25.4399 31.0012 25.6431 31.3628 26.0047C31.7245 26.3664 31.9276 26.8568 31.9276 27.3683C31.9247 27.4624 31.9408 27.5562 31.9748 27.644C32.0088 27.7319 32.0602 27.812 32.1257 27.8796C32.1913 27.9472 32.2698 28.001 32.3566 28.0377C32.4433 28.0744 32.5365 28.0933 32.6307 28.0933C32.7249 28.0933 32.8182 28.0744 32.9049 28.0377C32.9917 28.001 33.0702 27.9472 33.1357 27.8796C33.2013 27.812 33.2527 27.7319 33.2867 27.644C33.3207 27.5562 33.3368 27.4624 33.3339 27.3683C33.3341 26.6039 33.0718 25.8627 32.5907 25.2688C32.1097 24.6749 31.4391 24.2643 30.6914 24.1057C30.662 23.9436 30.5766 23.797 30.4501 23.6915C30.3236 23.5859 30.1641 23.5281 29.9993 23.5281C29.8346 23.5281 29.6751 23.5859 29.5486 23.6915C29.4221 23.797 29.3373 23.9436 29.3079 24.1057ZM55.7447 21.0999C55.7447 20.8079 55.6435 20.525 55.4583 20.2992C55.2731 20.0735 55.0153 19.919 54.7289 19.862C54.4425 19.805 54.1453 19.849 53.8877 19.9866C53.6302 20.1242 53.4283 20.3468 53.3165 20.6166C53.2047 20.8863 53.1899 21.1865 53.2746 21.4659C53.3592 21.7454 53.5382 21.9868 53.7809 22.1491C54.0237 22.3114 54.3152 22.3845 54.6058 22.356C54.8964 22.3275 55.1681 22.1991 55.3746 21.9927C55.4922 21.8757 55.5854 21.7366 55.6489 21.5833C55.7124 21.4301 55.745 21.2658 55.7447 21.0999ZM56.3695 19.2123C56.6571 19.5016 56.8746 19.8529 57.0052 20.2394C57.1357 20.6259 57.1759 21.0372 57.1226 21.4416C57.0692 21.8461 56.9239 22.2329 56.6976 22.5723C56.4713 22.9118 56.1702 23.1948 55.8174 23.3996C55.4646 23.6044 55.0695 23.7256 54.6626 23.7537C54.2556 23.7819 53.8476 23.7164 53.47 23.5621C53.0923 23.4079 52.7551 23.1691 52.4842 22.864C52.2133 22.559 52.016 22.1959 51.9074 21.8027H50.7633L48.841 24.3251C48.7768 24.4222 48.6896 24.502 48.587 24.5571C48.4845 24.6123 48.3699 24.6411 48.2535 24.6412H47.1113C47.5823 26.1499 47.8514 27.7145 47.9115 29.2939H54.3371C54.5087 28.614 54.9228 28.0203 55.5014 27.6244C56.0801 27.2285 56.7835 27.0577 57.4793 27.1441C58.1751 27.2306 58.8153 27.5683 59.2796 28.0937C59.7438 28.6192 60 29.2962 60 29.9973C60 30.6985 59.7438 31.3755 59.2796 31.9009C58.8153 32.4264 58.1751 32.7641 57.4793 32.8505C56.7835 32.937 56.0801 32.7661 55.5014 32.3702C54.9228 31.9743 54.5087 31.3806 54.3371 30.7008H47.9128C47.8534 32.282 47.5843 33.8484 47.1127 35.3588H48.2549C48.3713 35.3589 48.4859 35.3877 48.5884 35.4429C48.6909 35.498 48.7781 35.5778 48.8423 35.6749L50.7646 38.1973H51.9088C52.079 37.5742 52.4696 37.0341 53.008 36.6773C53.5464 36.3204 54.196 36.1711 54.8362 36.257C55.4764 36.3429 56.0636 36.6582 56.4889 37.1444C56.9142 37.6305 57.1486 38.2545 57.1486 38.9004C57.1486 39.5463 56.9142 40.1703 56.4889 40.6564C56.0636 41.1426 55.4764 41.4579 54.8362 41.5438C54.196 41.6297 53.5464 41.4804 53.008 41.1235C52.4696 40.7667 52.079 40.2266 51.9088 39.6035H50.4172C50.3093 39.6037 50.2029 39.5789 50.1062 39.5312C50.0095 39.4834 49.9252 39.4139 49.8598 39.3281L47.9075 36.7671H46.6026C45.6985 38.9778 44.3629 40.9863 42.6738 42.675C40.9847 44.3637 38.976 45.6989 36.7651 46.6026V47.9048L39.3261 49.8571C39.4119 49.9225 39.4814 50.0068 39.5292 50.1035C39.577 50.2002 39.6017 50.3067 39.6015 50.4145V51.9048C40.2245 52.0751 40.7645 52.4658 41.1213 53.0042C41.4781 53.5426 41.6274 54.1922 41.5414 54.8323C41.4555 55.4724 41.1402 56.0596 40.654 56.4849C40.1679 56.9101 39.5439 57.1445 38.8981 57.1445C38.2522 57.1445 37.6282 56.9101 37.1421 56.4849C36.6559 56.0596 36.3406 55.4724 36.2547 54.8323C36.1687 54.1922 36.318 53.5426 36.6748 53.0042C37.0316 52.4658 37.5716 52.0751 38.1946 51.9048V50.7633L35.6736 48.841C35.576 48.7771 35.496 48.69 35.4407 48.5874C35.3854 48.4848 35.3566 48.3701 35.3568 48.2535V47.1113C33.8465 47.5832 32.2801 47.8523 30.6988 47.9115V54.3371C31.3786 54.5087 31.9723 54.9228 32.3682 55.5014C32.7641 56.0801 32.935 56.7835 32.8485 57.4793C32.7621 58.1751 32.4244 58.8153 31.8989 59.2796C31.3735 59.7438 30.6965 60 29.9953 60C29.2942 60 28.6172 59.7438 28.0917 59.2796C27.5663 58.8153 27.2286 58.1751 27.1421 57.4793C27.0557 56.7835 27.2265 56.0801 27.6224 55.5014C28.0183 54.9228 28.612 54.5087 29.2919 54.3371V47.9128C27.7124 47.853 26.1479 47.5839 24.6392 47.1127V48.2549C24.6393 48.3714 24.6104 48.4861 24.5551 48.5886C24.4998 48.6912 24.4199 48.7784 24.3224 48.8423L21.8027 50.7633V51.9074C22.4258 52.0777 22.9659 52.4683 23.3227 53.0067C23.6796 53.5451 23.8289 54.1947 23.743 54.8349C23.6571 55.475 23.3418 56.0623 22.8556 56.4876C22.3695 56.9129 21.7455 57.1473 21.0996 57.1473C20.4537 57.1473 19.8297 56.9129 19.3436 56.4876C18.8574 56.0623 18.5421 55.475 18.4562 54.8349C18.3703 54.1947 18.5196 53.5451 18.8765 53.0067C19.2333 52.4683 19.7734 52.0777 20.3965 51.9074V50.4172C20.3965 50.3093 20.4215 50.2029 20.4693 50.1062C20.5172 50.0095 20.5868 49.9252 20.6725 49.8598L23.2336 47.9075V46.6026C21.0227 45.6986 19.0142 44.363 17.3253 42.6739C15.6364 40.9848 14.3011 38.9761 13.3974 36.7651H12.0925L10.1402 39.3261C10.0749 39.4119 9.99053 39.4814 9.89382 39.5292C9.79712 39.577 9.69066 39.6017 9.5828 39.6015H8.09257C7.92229 40.2246 7.53168 40.7647 6.99329 41.1215C6.4549 41.4784 5.8053 41.6277 5.16512 41.5418C4.52495 41.4559 3.9377 41.1406 3.51242 40.6544C3.08715 40.1683 2.85274 39.5443 2.85274 38.8984C2.85274 38.2525 3.08715 37.6285 3.51242 37.1424C3.9377 36.6562 4.52495 36.3409 5.16512 36.255C5.8053 36.1691 6.4549 36.3184 6.99329 36.6753C7.53168 37.0321 7.92229 37.5722 8.09257 38.1953H9.23674L11.159 35.6729C11.2232 35.5758 11.3104 35.496 11.413 35.4409C11.5155 35.3857 11.6301 35.3569 11.7465 35.3568H12.8886C12.417 33.8464 12.148 32.28 12.0885 30.6988H5.66285C5.4913 31.3786 5.07725 31.9723 4.49857 32.3682C3.91989 32.7641 3.21649 32.935 2.52069 32.8485C1.82489 32.7621 1.18466 32.4244 0.720435 31.8989C0.256212 31.3735 0 30.6965 0 29.9953C0 29.2942 0.256212 28.6172 0.720435 28.0917C1.18466 27.5663 1.82489 27.2286 2.52069 27.1421C3.21649 27.0557 3.91989 27.2265 4.49857 27.6224C5.07725 28.0183 5.4913 28.612 5.66285 29.2919H12.0879C12.1476 27.7124 12.4167 26.1479 12.888 24.6392H11.7465C11.6301 24.6391 11.5155 24.6103 11.413 24.5551C11.3104 24.5 11.2232 24.4202 11.159 24.3231L9.23674 21.8027H8.09257C7.92229 22.4258 7.53168 22.9659 6.99329 23.3227C6.4549 23.6796 5.8053 23.8289 5.16512 23.743C4.52495 23.6571 3.9377 23.3418 3.51242 22.8556C3.08715 22.3695 2.85274 21.7455 2.85274 21.0996C2.85274 20.4537 3.08715 19.8297 3.51242 19.3436C3.9377 18.8574 4.52495 18.5421 5.16512 18.4562C5.8053 18.3703 6.4549 18.5196 6.99329 18.8765C7.53168 19.2333 7.92229 19.7734 8.09257 20.3965H9.5828C9.69066 20.3963 9.79712 20.421 9.89382 20.4688C9.99053 20.5165 10.0749 20.5861 10.1402 20.6719L12.0925 23.2329H13.3974C14.3015 21.0222 15.6371 19.0137 17.3262 17.325C19.0153 15.6363 21.024 14.301 23.2349 13.3974V12.0925L20.6739 10.1402C20.5881 10.0748 20.5186 9.99046 20.4707 9.89378C20.4228 9.7971 20.3979 9.69068 20.3978 9.5828V8.09257C19.7748 7.92229 19.2347 7.53168 18.8778 6.99329C18.521 6.4549 18.3716 5.8053 18.4575 5.16512C18.5434 4.52495 18.8587 3.9377 19.3449 3.51242C19.8311 3.08715 20.455 2.85274 21.1009 2.85274C21.7469 2.85274 22.3708 3.08715 22.857 3.51242C23.3431 3.9377 23.6584 4.52495 23.7443 5.16512C23.8302 5.8053 23.6809 6.4549 23.3241 6.99329C22.9672 7.53168 22.4271 7.92229 21.804 8.09257V9.23674L24.3258 11.159C24.4232 11.223 24.5032 11.3101 24.5585 11.4127C24.6138 11.5152 24.6426 11.63 24.6425 11.7465V12.8886C26.1512 12.4173 27.7157 12.1483 29.2952 12.0885V5.66285C28.6154 5.4913 28.0217 5.07725 27.6258 4.49857C27.2298 3.91989 27.059 3.21649 27.1455 2.52069C27.2319 1.82489 27.5696 1.18466 28.0951 0.720435C28.6205 0.256212 29.2975 0 29.9987 0C30.6998 0 31.3768 0.256212 31.9023 0.720435C32.4277 1.18466 32.7654 1.82489 32.8519 2.52069C32.9383 3.21649 32.7675 3.91989 32.3716 4.49857C31.9757 5.07725 31.3819 5.4913 30.7021 5.66285V12.0879C32.2834 12.147 33.8498 12.4161 35.3602 12.888V11.7465C35.3599 11.6299 35.3887 11.5152 35.444 11.4126C35.4993 11.31 35.5794 11.2229 35.6769 11.159L38.1979 9.23674V8.09257C37.5749 7.92221 37.0349 7.53157 36.6781 6.99317C36.3214 6.45476 36.1721 5.80518 36.258 5.16504C36.344 4.5249 36.6593 3.9377 37.1454 3.51246C37.6316 3.08722 38.2555 2.85284 38.9014 2.85284C39.5473 2.85284 40.1712 3.08722 40.6574 3.51246C41.1435 3.9377 41.4588 4.5249 41.5448 5.16504C41.6307 5.80518 41.4814 6.45476 41.1247 6.99317C40.7679 7.53157 40.2278 7.92221 39.6048 8.09257V9.5828C39.6051 9.69066 39.5803 9.79712 39.5326 9.89382C39.4848 9.99053 39.4153 10.0749 39.3295 10.1402L36.7684 12.0925V13.3974C38.9789 14.3016 40.9871 15.6373 42.6756 17.3264C44.3641 19.0155 45.6991 21.0241 46.6026 23.2349H47.9048L49.8571 20.6739C49.9225 20.5881 50.0068 20.5186 50.1035 20.4708C50.2002 20.4231 50.3067 20.3983 50.4145 20.3985H51.9048C52.0274 19.9472 52.2665 19.5361 52.5982 19.2064C52.9299 18.8767 53.3424 18.64 53.7944 18.52C54.2464 18.4001 54.722 18.4011 55.1735 18.5229C55.625 18.6448 56.0365 18.8832 56.3668 19.2143L56.3695 19.2123ZM55.3746 39.7929C55.5814 39.5864 55.7101 39.3145 55.7389 39.0237C55.7677 38.7329 55.6947 38.4412 55.5324 38.1981C55.3702 37.9551 55.1287 37.7759 54.849 37.691C54.5694 37.6061 54.269 37.6208 53.999 37.7326C53.729 37.8444 53.5062 38.0463 53.3684 38.304C53.2307 38.5617 53.1865 38.8592 53.2436 39.1458C53.3006 39.4324 53.4552 39.6904 53.6812 39.8757C53.9071 40.0611 54.1903 40.1623 54.4825 40.1623C54.6482 40.1625 54.8123 40.13 54.9655 40.0667C55.1186 40.0033 55.2576 39.9102 55.3746 39.7929ZM58.1677 31.0368C58.4082 30.7963 58.5579 30.4798 58.5912 30.1413C58.6245 29.8028 58.5394 29.4632 58.3504 29.1804C58.1614 28.8976 57.8801 28.6891 57.5546 28.5904C57.2291 28.4917 56.8795 28.5089 56.5652 28.6391C56.251 28.7693 55.9916 29.0044 55.8313 29.3044C55.671 29.6045 55.6197 29.9508 55.6861 30.2844C55.7525 30.618 55.9325 30.9182 56.1955 31.134C56.4585 31.3497 56.7881 31.4676 57.1282 31.4676C57.3213 31.4677 57.5126 31.4297 57.6909 31.3558C57.8693 31.2819 58.0314 31.1735 58.1677 31.0368ZM4.62469 20.2071C4.41694 20.4141 4.28743 20.6867 4.25825 20.9785C4.22907 21.2703 4.30203 21.5632 4.46468 21.8072C4.62732 22.0513 4.86959 22.2313 5.15015 22.3166C5.43071 22.402 5.73219 22.3873 6.00317 22.2752C6.27414 22.1631 6.49783 21.9605 6.63608 21.7018C6.77433 21.4432 6.81858 21.1446 6.76127 20.857C6.70397 20.5694 6.54866 20.3106 6.32185 20.1248C6.09503 19.9389 5.81075 19.8374 5.5175 19.8377C5.35169 19.8375 5.18747 19.87 5.03426 19.9334C4.88105 19.9968 4.74187 20.0898 4.62469 20.2071ZM4.2553 38.9001C4.25556 39.1917 4.35693 39.4743 4.54213 39.6996C4.72733 39.9249 4.98491 40.079 5.27099 40.1357C5.55708 40.1924 5.85398 40.1482 6.11112 40.0106C6.36826 39.873 6.56974 39.6504 6.68124 39.381C6.79275 39.1115 6.80737 38.8116 6.72263 38.5326C6.63789 38.2535 6.45903 38.0124 6.2165 37.8504C5.97398 37.6884 5.68279 37.6155 5.39255 37.6441C5.1023 37.6727 4.83094 37.801 4.62469 38.0073C4.50738 38.1244 4.41437 38.2636 4.35098 38.4168C4.28759 38.57 4.25507 38.7343 4.2553 38.9001ZM1.40152 30C1.4014 30.3403 1.5193 30.6702 1.73513 30.9333C1.95095 31.1964 2.25134 31.3766 2.58511 31.4431C2.91889 31.5095 3.26538 31.4582 3.56555 31.2978C3.86572 31.1375 4.10099 30.878 4.23127 30.5636C4.36155 30.2492 4.37877 29.8993 4.28001 29.5736C4.18124 29.248 3.9726 28.9666 3.68963 28.7775C3.40667 28.5884 3.06689 28.5033 2.7282 28.5367C2.38952 28.5701 2.07288 28.7198 1.83225 28.9605C1.69557 29.0969 1.58717 29.2589 1.51325 29.4373C1.43934 29.6157 1.40137 29.8069 1.40152 30ZM20.2045 55.378C20.411 55.5844 20.6827 55.7127 20.9733 55.7413C21.2639 55.7698 21.5554 55.6967 21.7982 55.5343C22.0409 55.372 22.2199 55.1306 22.3046 54.8512C22.3892 54.5717 22.3744 54.2715 22.2626 54.0018C22.1508 53.7321 21.9489 53.5094 21.6914 53.3718C21.4338 53.2342 21.1366 53.1902 20.8502 53.2472C20.5638 53.3042 20.306 53.4587 20.1208 53.6845C19.9356 53.9102 19.8344 54.1932 19.8344 54.4852C19.8343 54.651 19.8669 54.8153 19.9304 54.9685C19.9939 55.1217 20.087 55.2608 20.2045 55.378ZM38.8974 55.7474C39.189 55.7471 39.4716 55.6457 39.6969 55.4605C39.9222 55.2753 40.0763 55.0178 40.133 54.7317C40.1898 54.4456 40.1455 54.1487 40.0079 53.8915C39.8703 53.6344 39.6478 53.4329 39.3783 53.3214C39.1088 53.2099 38.809 53.1953 38.5299 53.28C38.2508 53.3648 38.0098 53.5436 37.8478 53.7862C37.6858 54.0287 37.6129 54.3199 37.6415 54.6101C37.67 54.9004 37.7984 55.1717 38.0046 55.378C38.1218 55.4953 38.2609 55.5883 38.4142 55.6517C38.5674 55.7151 38.7316 55.7476 38.8974 55.7474ZM30 58.5985C30.3403 58.5986 30.6702 58.4807 30.9333 58.2649C31.1964 58.049 31.3766 57.7487 31.4431 57.4149C31.5095 57.0811 31.4582 56.7346 31.2978 56.4344C31.1375 56.1343 30.878 55.899 30.5636 55.7687C30.2492 55.6384 29.8993 55.6212 29.5736 55.72C29.248 55.8188 28.9666 56.0274 28.7775 56.3104C28.5884 56.5933 28.5033 56.9331 28.5367 57.2718C28.5701 57.6105 28.7198 57.9271 28.9605 58.1677C29.0969 58.3044 29.2589 58.4128 29.4373 58.4867C29.6157 58.5607 29.8069 58.5986 30 58.5985ZM30 14.9916C26.5282 14.9916 23.1638 16.1954 20.48 18.3978C17.7963 20.6003 15.9592 23.6651 15.2818 27.0702C14.6045 30.4753 15.1287 34.0099 16.7653 37.0718C18.4019 40.1337 21.0495 42.5334 24.257 43.862C27.4645 45.1906 31.0334 45.366 34.3558 44.3582C37.6781 43.3505 40.5482 41.2219 42.477 38.3352C44.4059 35.4485 45.2742 31.9823 44.9339 28.5273C44.5937 25.0722 43.0659 21.842 40.611 19.387C39.2189 17.9918 37.5649 16.8854 35.7439 16.1315C33.9229 15.3775 31.9709 14.9908 30 14.9936V14.9916ZM39.6168 20.3812C37.3914 18.1563 34.4633 16.7719 31.3315 16.4638C28.1998 16.1558 25.0581 16.9431 22.4418 18.6917C19.8254 20.4403 17.8963 23.042 16.9832 26.0535C16.07 29.065 16.2292 32.2999 17.4337 35.2071C18.6383 38.1143 20.8136 40.514 23.589 41.9972C26.3644 43.4804 29.5682 43.9554 32.6546 43.3412C35.7409 42.7271 38.5189 41.0618 40.5151 38.6291C42.5113 36.1964 43.6023 33.1469 43.6021 30C43.6045 28.2136 43.2538 26.4444 42.5702 24.7941C41.8866 23.1437 40.8836 21.6447 39.6188 20.3832L39.6168 20.3812ZM39.7929 4.62269C39.5863 4.4163 39.3146 4.28791 39.024 4.2594C38.7334 4.23089 38.4419 4.30401 38.1991 4.46631C37.9564 4.62862 37.7775 4.87006 37.6928 5.14951C37.6081 5.42895 37.6229 5.72912 37.7347 5.99886C37.8465 6.26861 38.0484 6.49124 38.3059 6.62884C38.5635 6.76644 38.8608 6.81048 39.1471 6.75348C39.4335 6.69647 39.6913 6.54193 39.8765 6.3162C40.0617 6.09046 40.1629 5.80749 40.1629 5.5155C40.1631 5.34964 40.1304 5.1854 40.0669 5.03219C40.0034 4.87897 39.9103 4.73981 39.7929 4.62269ZM31.0368 1.83225C30.7964 1.59159 30.48 1.44174 30.1415 1.40823C29.803 1.37472 29.4633 1.45962 29.1804 1.64847C28.8975 1.83732 28.6888 2.11843 28.5899 2.4439C28.491 2.76937 28.5081 3.11906 28.6381 3.43338C28.7682 3.7477 29.0032 4.0072 29.3031 4.16767C29.603 4.32813 29.9493 4.37963 30.283 4.31339C30.6166 4.24715 30.917 4.06726 31.1329 3.80439C31.3487 3.54151 31.4668 3.21191 31.4669 2.87175C31.467 2.67866 31.4291 2.48744 31.3552 2.30906C31.2812 2.13068 31.1735 1.96864 31.0368 1.83225ZM41.6812 18.3188C38.9787 15.6165 35.4228 13.9348 31.6194 13.5603C27.8159 13.1858 24.0004 14.1417 20.8227 16.2651C17.645 18.3884 15.3019 21.5479 14.1926 25.2052C13.0833 28.8624 13.2764 32.7912 14.739 36.322C16.2016 39.8529 18.8432 42.7674 22.2138 44.5689C25.5843 46.3704 29.4753 46.9475 33.2236 46.2019C36.972 45.4562 40.3458 43.434 42.7703 40.4797C45.1948 37.5254 46.5199 33.8218 46.5199 30C46.5228 27.8302 46.0968 25.6811 45.2664 23.6765C44.436 21.6718 43.2176 19.851 41.6812 18.3188Z" fill="#001C3F"/>
</g>
<defs>
<clipPath id="clip0_1408_881">
<rect width="60" height="60" fill="white"/>
</clipPath>
</defs>
</svg>
