<?xml version="1.0" encoding="utf-8"?>
<svg width="60" height="60" viewBox="0 0 60 60" fill="none" xmlns="http://www.w3.org/2000/svg">
<path fill-rule="evenodd" clip-rule="evenodd" d="M45.5786 39.1822C45.2169 39.1822 44.9236 38.8888 44.9236 38.5272L44.9236 24.3029C44.9236 23.9414 45.2168 23.648 45.5786 23.648C45.9403 23.648 46.2336 23.9414 46.2336 24.303L46.2337 38.5272C46.2337 38.8888 45.9403 39.1822 45.5786 39.1822Z" fill="#001C3F"/>
<path fill-rule="evenodd" clip-rule="evenodd" d="M15.7441 39.1822C15.3824 39.1822 15.0891 38.8888 15.0891 38.5272V24.3029C15.0891 23.9414 15.3823 23.648 15.7441 23.648C16.1059 23.648 16.3991 23.9414 16.3991 24.303V38.5272C16.3991 38.8888 16.1058 39.1822 15.7441 39.1822Z" fill="#001C3F"/>
<path fill-rule="evenodd" clip-rule="evenodd" d="M46.5893 24.9579H38.4629C38.1012 24.9579 37.8079 24.6659 37.8079 24.3029C37.808 23.9413 38.1012 23.6493 38.4629 23.6493L46.5893 23.6492C48.8683 23.6492 50.7226 21.7949 50.7226 19.5161C50.7226 17.3763 49.0544 15.567 46.9247 15.3964C46.7504 15.3814 46.5888 15.2982 46.4761 15.1645C46.3633 15.0306 46.3089 14.8574 46.3247 14.6828C46.3365 14.5558 46.3423 14.4276 46.3423 14.3034C46.3424 12.6168 45.3327 11.113 43.7703 10.4758C43.5289 10.3775 43.3691 10.1456 43.3631 9.88493C43.3121 7.65797 41.4584 5.84852 39.231 5.84852C39.1247 5.84849 39.0172 5.85263 38.9121 5.85947C38.6203 5.88117 38.3476 5.708 38.2468 5.43236C37.346 2.96659 34.9766 1.30997 32.3506 1.30997C29.5122 1.30985 27.019 3.22311 26.2876 5.96177C26.2399 6.14048 26.1185 6.29064 25.9537 6.37527C25.7888 6.45979 25.5959 6.47077 25.4227 6.40529C24.9551 6.22782 24.4624 6.13781 23.9585 6.13781C21.9345 6.13769 20.1781 7.64431 19.873 9.64204C19.8201 9.98723 19.5047 10.2302 19.1567 10.1933C19.0104 10.1782 18.8624 10.1701 18.7168 10.1701C16.4377 10.17 14.5835 12.0245 14.5835 14.3034C14.5836 14.4452 14.5906 14.5859 14.6047 14.7251C14.6396 15.0688 14.4008 15.3814 14.0593 15.4373C12.0559 15.7661 10.6017 17.4814 10.6017 19.5161C10.6018 21.7949 12.4559 23.6493 14.735 23.6493L22.8613 23.6492C23.2231 23.6492 23.5163 23.9413 23.5163 24.3029C23.5163 24.6659 23.223 24.958 22.8613 24.958L14.7351 24.9579C11.7336 24.9579 9.29175 22.5167 9.29175 19.5161C9.29179 17.0352 10.9347 14.9147 13.2737 14.2706C13.2917 11.289 15.7178 8.86967 18.7007 8.86011C19.3305 6.52531 21.4939 4.82781 23.9585 4.82781C24.3886 4.82777 24.8129 4.87833 25.2261 4.97658C26.3088 2.01538 29.1478 2.48613e-09 32.3506 2.48613e-09C35.3643 -7.73588e-05 38.0985 1.8053 39.299 4.53856C42.0614 4.57263 44.372 6.72184 44.6467 9.43598C46.448 10.3352 47.6043 12.146 47.651 14.1765C50.1528 14.6758 52.0325 16.9097 52.0325 19.516C52.0325 22.5167 49.5907 24.958 46.5893 24.9579Z" fill="#001C3F"/>
<path fill-rule="evenodd" clip-rule="evenodd" d="M29.0303 34.241H32.2956L32.5985 31.5911C32.627 31.3413 32.7952 31.1299 33.032 31.048C33.8702 30.7532 34.6386 30.3084 35.316 29.7271C35.5064 29.5633 35.7735 29.5224 36.0039 29.6221L38.4528 30.6863L40.0855 27.859L37.9406 26.2706C37.7392 26.1205 37.6405 25.8695 37.6865 25.6239C37.7676 25.1899 37.8087 24.7451 37.8087 24.303C37.8087 23.8607 37.7676 23.4174 37.6868 22.9834C37.6408 22.7364 37.7395 22.4854 37.9409 22.3366L40.0855 20.7483L38.4528 17.9209L36.0034 18.9852C35.773 19.0848 35.506 19.0453 35.3156 18.8815C34.6379 18.2988 33.8697 17.8554 33.0321 17.5607C32.7954 17.4773 32.627 17.2659 32.5985 17.0162L32.2956 14.3661H29.0303L28.7272 17.0162C28.6987 17.2658 28.5304 17.4774 28.2937 17.5607C27.4561 17.8553 26.6878 18.2989 26.0102 18.8815C25.8198 19.0438 25.5527 19.0849 25.3225 18.9852L22.8731 17.9209L21.2404 20.7483L23.3849 22.3365C23.5864 22.4866 23.685 22.7364 23.6389 22.9834C23.5581 23.4159 23.5172 23.8608 23.5172 24.303C23.5172 24.7464 23.5581 25.1913 23.639 25.6239C23.685 25.8708 23.5863 26.122 23.3849 26.2707L21.2404 27.859L22.8731 30.6863L25.3225 29.622C25.5527 29.5223 25.8197 29.5634 26.0102 29.7258C26.6879 30.3083 27.4561 30.7519 28.2937 31.0467C28.5305 31.1298 28.6987 31.3414 28.7272 31.5898L29.0303 34.241ZM32.88 35.551H28.4458C28.113 35.551 27.8329 35.3014 27.795 34.9712L27.471 32.1355C26.757 31.8449 26.0892 31.4588 25.4781 30.9825L22.859 32.1206C22.5535 32.2529 22.1971 32.1356 22.0307 31.8477L19.8137 28.0078C19.6471 27.7184 19.7235 27.3514 19.9911 27.1536L22.2851 25.4545C22.2334 25.0738 22.2071 24.6878 22.2071 24.303C22.2072 23.9182 22.2333 23.5334 22.2851 23.1527L19.9911 21.4536C19.7236 21.2558 19.6471 20.8888 19.8137 20.5995L22.0307 16.7595C22.1971 16.4717 22.5535 16.3544 22.859 16.4867L25.4782 17.6247C26.0893 17.1485 26.7569 16.7624 27.471 16.4717L27.7951 13.6361C27.8329 13.3059 28.1129 13.0562 28.4458 13.0562L32.88 13.0562C33.2128 13.0562 33.4928 13.3059 33.5308 13.6362L33.8547 16.4717C34.569 16.7623 35.2366 17.1486 35.8477 17.6248L38.4668 16.4867C38.7723 16.3542 39.1286 16.4717 39.295 16.7596L41.5122 20.5995C41.6786 20.8887 41.6022 21.2559 41.3347 21.4538L39.0405 23.1526C39.0925 23.5333 39.1186 23.9195 39.1186 24.303C39.1186 24.6877 39.0923 25.074 39.0405 25.4547L41.3347 27.1535C41.6022 27.3514 41.6786 27.7185 41.5121 28.0078L39.295 31.8476C39.1286 32.1355 38.7723 32.2529 38.4668 32.1206L35.8481 30.9824C35.2372 31.4588 34.5694 31.8449 33.8547 32.1356L33.5308 34.9712C33.4929 35.3013 33.2128 35.5511 32.88 35.551Z" fill="#001C3F"/>
<path fill-rule="evenodd" clip-rule="evenodd" d="M30.6616 20.6008C28.6196 20.6008 26.9582 22.2615 26.9582 24.3029C26.9583 26.3456 28.6196 28.0063 30.6615 28.0063C32.7036 28.0063 34.3648 26.3457 34.3648 24.3029C34.3648 22.2614 32.7035 20.6008 30.6616 20.6008ZM30.6616 29.3163C27.8972 29.3163 25.6482 27.0675 25.6482 24.3029C25.6482 21.5396 27.8972 19.2909 30.6615 19.2909C33.4259 19.2907 35.6748 21.5396 35.6748 24.3029C35.6748 27.0675 33.4258 29.3164 30.6616 29.3163Z" fill="#001C3F"/>
<path fill-rule="evenodd" clip-rule="evenodd" d="M45.5798 39.1823C40.2029 39.1823 35.8283 43.5571 35.8283 48.9335C35.8283 54.3099 40.2028 58.6847 45.5798 58.6847C50.9569 58.6847 55.3318 54.3099 55.3318 48.9335C55.3318 43.557 50.9568 39.1823 45.5798 39.1823ZM45.5798 59.9946C39.4806 59.9946 34.5183 55.0331 34.5183 48.9335C34.5183 42.8337 39.4806 37.8723 45.5798 37.8723C51.6791 37.8722 56.6418 42.8339 56.6418 48.9335C56.6418 55.033 51.6791 59.9946 45.5798 59.9946Z" fill="#001C3F"/>
<path fill-rule="evenodd" clip-rule="evenodd" d="M55.9869 49.5882H35.1734C34.8117 49.5882 34.5183 49.2949 34.5183 48.9333C34.5183 48.5716 34.8117 48.2784 35.1734 48.2784L55.9869 48.2783C56.3485 48.2783 56.6418 48.5718 56.6418 48.9333C56.6418 49.2949 56.3484 49.5883 55.9869 49.5882Z" fill="#001C3F"/>
<path fill-rule="evenodd" clip-rule="evenodd" d="M45.5803 45.908C42.09 45.908 39.126 45.249 36.519 43.8926C36.1982 43.7261 36.0733 43.3305 36.2404 43.0098C36.4074 42.6876 36.8028 42.5635 37.1238 42.73C39.5395 43.988 42.3056 44.5981 45.5803 44.5981C48.855 44.5981 51.6211 43.9881 54.0368 42.73C54.3577 42.5634 54.7537 42.6891 54.9202 43.0098C55.0867 43.3304 54.9625 43.7262 54.6418 43.8926C52.0346 45.249 49.0706 45.9081 45.5803 45.908Z" fill="#001C3F"/>
<path fill-rule="evenodd" clip-rule="evenodd" d="M54.3386 55.2104C54.2367 55.2104 54.1333 55.1858 54.0368 55.1353C51.6211 53.8785 48.8549 53.2672 45.5802 53.2672C42.3056 53.2672 39.5395 53.8786 37.1238 55.1353C36.803 55.3031 36.4074 55.1776 36.2403 54.857C36.0734 54.5361 36.1982 54.1406 36.519 53.9741C39.126 52.6177 42.09 51.9572 45.5803 51.9572C49.0706 51.9571 52.0345 52.6177 54.6418 53.9741C54.9625 54.1405 55.0866 54.5363 54.9202 54.857C54.8028 55.082 54.5749 55.2104 54.3386 55.2104Z" fill="#001C3F"/>
<path fill-rule="evenodd" clip-rule="evenodd" d="M45.5806 39.1823C42.757 39.1823 40.3713 43.6472 40.3713 48.9335C40.3713 54.2184 42.7569 58.6847 45.5806 58.6847C48.4045 58.6847 50.7901 54.2185 50.7901 48.9335C50.7902 43.6471 48.4045 39.1823 45.5806 39.1823ZM45.5806 59.9946C41.925 59.9946 39.0613 55.1354 39.0613 48.9335C39.0613 42.7301 41.925 37.8723 45.5806 37.8723C49.2365 37.8722 52.1001 42.7302 52.1001 48.9335C52.1001 55.1354 49.2365 59.9946 45.5806 59.9946Z" fill="#001C3F"/>
<path fill-rule="evenodd" clip-rule="evenodd" d="M45.5786 59.9943C45.2169 59.9943 44.9236 59.701 44.9236 59.3394V38.527C44.9236 38.1653 45.2168 37.872 45.5786 37.872C45.9403 37.8719 46.2335 38.1654 46.2335 38.527L46.2336 59.3393C46.2336 59.701 45.9403 59.9944 45.5786 59.9943Z" fill="#001C3F"/>
<path fill-rule="evenodd" clip-rule="evenodd" d="M4.94792 39.182C4.59616 39.182 4.31 39.4686 4.31 39.8193V54.1731C4.31 54.5251 4.59612 54.8104 4.94792 54.8104L26.5419 54.8103C26.8937 54.8103 27.1798 54.5252 27.1798 54.1731L27.1799 39.8193C27.1799 39.4685 26.8937 39.182 26.5419 39.182L4.94792 39.182ZM26.5419 56.1203H4.94792C3.87387 56.1203 3 55.2471 3 54.1732V39.8194C3 38.7454 3.87387 37.8721 4.94792 37.8721L26.5419 37.872C27.6162 37.872 28.49 38.7455 28.49 39.8194L28.49 54.1732C28.49 55.2471 27.6161 56.1205 26.5419 56.1203Z" fill="#001C3F"/>
<path fill-rule="evenodd" clip-rule="evenodd" d="M27.8349 51.4986H3.65502C3.29328 51.4986 3 51.2052 3 50.8436C3 50.482 3.29324 50.1886 3.65498 50.1886L27.835 50.1885C28.1968 50.1885 28.49 50.482 28.49 50.8436C28.4901 51.2052 28.1967 51.4986 27.8349 51.4986Z" fill="#001C3F"/>
<path fill-rule="evenodd" clip-rule="evenodd" d="M10.5082 60C10.4396 60 10.3698 59.989 10.3011 59.9658C9.95794 59.8526 9.77243 59.4814 9.88681 59.1375L11.1799 55.2581C11.2942 54.9156 11.6648 54.73 12.0084 54.8446C12.3515 54.9592 12.537 55.3304 12.4226 55.6729L11.1296 59.5523C11.0381 59.8266 10.7825 60 10.5082 60Z" fill="#001C3F"/>
<path fill-rule="evenodd" clip-rule="evenodd" d="M20.981 60C20.7067 60 20.4511 59.8266 20.3596 59.5524L19.0665 55.6729C18.9521 55.3304 19.1376 54.9593 19.4807 54.8446C19.8243 54.73 20.1948 54.9156 20.3093 55.2581L21.6024 59.1375C21.7169 59.4814 21.5313 59.8526 21.1882 59.9659C21.1194 59.9889 21.0496 60 20.981 60Z" fill="#001C3F"/>
<path fill-rule="evenodd" clip-rule="evenodd" d="M23.3748 53.8103H21.8296C21.4679 53.8103 21.1746 53.5169 21.1746 53.1553C21.1746 52.7936 21.4678 52.5003 21.8295 52.5003L23.3748 52.5002C23.7366 52.5002 24.0299 52.7937 24.0299 53.1553C24.0299 53.5168 23.7365 53.8103 23.3748 53.8103Z" fill="#001C3F"/>
<path fill-rule="evenodd" clip-rule="evenodd" d="M19.6737 53.8103H18.1284C17.7667 53.8103 17.4734 53.5169 17.4734 53.1553C17.4734 52.7936 17.7666 52.5003 18.1284 52.5003L19.6737 52.5002C20.0354 52.5002 20.3286 52.7937 20.3286 53.1553C20.3286 53.5168 20.0354 53.8103 19.6737 53.8103Z" fill="#001C3F"/>
<path fill-rule="evenodd" clip-rule="evenodd" d="M23.5037 60.0001H7.98713C7.62535 60.0001 7.33203 59.7067 7.33203 59.3451C7.33207 58.9833 7.62531 58.6901 7.98705 58.6901L23.5037 58.6899C23.8653 58.6899 24.1585 58.9834 24.1585 59.3451C24.1586 59.7065 23.8653 60.0001 23.5037 60.0001Z" fill="#001C3F"/>
<path fill-rule="evenodd" clip-rule="evenodd" d="M35.1745 49.5882H27.836C27.4743 49.5882 27.1809 49.2949 27.1809 48.9333C27.1809 48.5716 27.4743 48.2784 27.836 48.2784L35.1745 48.2783C35.5363 48.2783 35.8296 48.5718 35.8296 48.9333C35.8296 49.2949 35.5363 49.5883 35.1745 49.5882Z" fill="#001C3F"/>
</svg>
